<svg width="32" height="32" viewBox="0 0 32 32" fill="none" xmlns="http://www.w3.org/2000/svg">
<g clip-path="url(#clip0_192_148)">
<mask id="mask0_192_148" style="mask-type:luminance" maskUnits="userSpaceOnUse" x="17" y="14" width="16" height="14">
<path d="M29.7492 23.2365C30.2108 22.7373 30.5711 22.1404 30.7961 21.4983C31.1012 20.7929 31.2588 19.9845 31.11 19.2278C31.048 18.9125 30.9419 18.6229 30.7891 18.3485C30.693 18.0858 30.5693 17.8351 30.4262 17.5923C30.0625 16.975 29.5398 16.4766 28.9493 16.0783C27.638 15.1937 26.0089 14.949 24.4588 14.948C23.4447 14.9474 22.4021 15.0067 21.4146 15.2622C21.3984 15.3698 20.7973 17.6248 19.395 18.8402C19.1344 19.0784 17.2278 20.0777 17.1705 20.0869C17.1507 20.4638 17.1947 20.833 17.3019 21.1956C17.5056 21.8844 17.9908 22.4638 18.5401 22.9076C19.7021 23.8461 21.1391 24.4264 22.5975 24.7083C22.8334 24.7848 25.5237 25.164 26.5955 24.8985C26.7818 24.8958 27.3397 24.8147 27.3622 24.8079C28.7315 25.6722 31.6216 27.4188 31.6945 27.3951C31.8274 27.355 31.9378 27.2525 32.0174 27.1424C32.1108 27.0131 30.4566 24.3275 29.7492 23.2366V23.2365Z" fill="white"/>
</mask>
<g mask="url(#mask0_192_148)">
<path d="M29.6185 23.2365C30.08 22.7373 30.4404 22.1404 30.6654 21.4983C30.9705 20.7929 31.1281 19.9845 30.9793 19.2278C30.9173 18.9125 30.8112 18.6229 30.6583 18.3485C30.5623 18.0858 30.4385 17.8351 30.2955 17.5923C29.9318 16.975 29.409 16.4766 28.8185 16.0783C27.5073 15.1937 25.8782 14.949 24.328 14.948C23.3139 14.9474 22.2713 15.0067 21.2839 15.2622C21.2676 15.3698 20.6665 17.6248 19.2643 18.8402C19.0037 19.0784 17.0971 20.0777 17.0397 20.0869C17.0199 20.4638 17.0639 20.833 17.1712 21.1956C17.3748 21.8844 17.86 22.4638 18.4094 22.9076C19.5714 23.8461 21.0083 24.4264 22.4668 24.7083C22.7026 24.7848 25.393 25.164 26.4648 24.8985C26.651 24.8958 27.2089 24.8147 27.2315 24.8079C28.6007 25.6722 31.4908 27.4188 31.5638 27.3951C31.6967 27.355 31.8071 27.2525 31.8867 27.1424C31.9801 27.0131 30.3259 24.3275 29.6185 23.2366V23.2365Z" fill="#7C1513"/>
<path d="M31.4627 18.7423C31.447 18.6358 31.0283 18.0298 30.9444 17.963C30.924 17.6669 30.514 17.4962 30.3984 17.2183C30.2459 16.8516 29.7772 16.6108 29.4879 16.3429C29.2109 16.0864 28.8653 15.8982 28.5168 15.7587C28.1331 15.605 28.31 14.862 27.9034 14.7939C27.4543 14.7188 27.2497 14.4681 26.7976 14.4101C26.6662 14.2888 25.6908 14.5748 25.5363 14.6727C24.9403 14.5926 24.2629 15.0316 23.6668 14.9514C23.4817 14.9266 21.4004 14.9984 21.3377 15.175C21.2177 15.5116 19.6982 18.2516 19.679 18.4307C19.659 18.616 21.3856 18.2779 21.5652 18.3406C21.82 18.4295 25.2106 18.7025 26.6182 18.7589C27.7894 18.9202 28.9864 18.9743 30.1668 18.9062C30.3982 18.8928 31.4946 18.9563 31.4628 18.7425L31.4627 18.7423Z" fill="#292B2D"/>
<path d="M32.1206 20.8551C32.2292 20.6617 32.152 19.2897 32.1192 19.1234C32.1774 18.7004 29.6906 18.6284 29.3548 18.6039C25.2645 18.304 22.0273 18.0482 22.0388 18.0475C21.3114 18.0881 18.3313 17.9059 17.6226 18.0475C15.5928 18.4527 16.5928 18.6071 16.5497 19.2793C16.4599 20.6788 16.5164 20.7279 16.5497 20.8378C16.4386 21.0998 17.326 21.2092 17.6008 21.2408C21.0358 21.637 29.9564 21.8313 32.7585 21.7528C33.082 21.7438 32.0838 21.08 32.1206 20.855V20.8551ZM19.4393 19.6386C19.4393 19.6342 19.4391 19.6299 19.4389 19.6256C19.4663 19.6236 19.4937 19.6215 19.5211 19.6193C19.4938 19.6257 19.4666 19.6322 19.4393 19.6387V19.6386Z" fill="#FC142C"/>
<path d="M32.5512 21.6342C31.3217 21.5889 27.1408 21.5948 25.9107 21.5873C25.4668 21.5607 25.0229 21.5357 24.5791 21.5089C23.7561 21.4592 22.9331 21.4095 22.11 21.3598C20.6122 21.2694 18.6435 21.144 17.145 21.0618C16.9149 21.0493 15.5492 22.5693 17.7627 22.9061C18.0244 23.1284 18.3094 23.3238 18.6085 23.4955C19.2678 23.8739 20.2848 24.6098 21.0265 24.786C21.4151 24.8782 31.6157 27.9146 32.3439 27.6434C32.6784 27.5188 32.7684 21.6422 32.5512 21.6343V21.6342Z" fill="#FCD92C"/>
</g>
<path d="M22.2819 10.2847C24.3611 16.2249 18.1203 22.7898 10.21 20.1643C9.55781 19.9481 8.94394 19.6607 8.32205 19.3717C7.85502 19.1546 7.42253 18.9653 6.89175 18.9585C5.88112 18.9456 0.649522 22.344 0.000956392 21.487C-0.0580196 21.2211 2.62359 18.5349 4.43766 17.0807C4.4404 17.0754 4.4433 17.0702 4.44638 17.0651C2.33572 15.2306 1.84032 11.7797 3.38105 9.08278C4.59066 6.9653 6.70474 5.4701 9.06104 4.90094C13.6562 3.79106 20.6981 5.75913 22.2821 10.2847H22.2819ZM21.9395 13.1012C21.9419 13.0266 21.9445 12.9228 21.9429 12.8464C21.9359 12.5068 21.9057 12.1606 21.845 11.822C21.8074 11.6116 21.779 11.498 21.779 11.498C20.5682 6.58803 13.0617 4.70339 8.72445 5.88729C6.46661 6.50374 4.42228 8.0034 3.55764 10.1826C3.55661 10.1851 3.55576 10.1874 3.5549 10.1894C3.54362 10.2192 3.53268 10.249 3.52191 10.279C3.49969 10.3419 3.47781 10.4049 3.45763 10.4685C2.73026 12.751 3.68619 15.6658 5.27444 16.479C6.06643 16.9078 5.52333 17.4814 5.06965 17.491C3.3472 18.8718 1.47519 20.6596 1.47519 20.6596C1.47519 20.6596 6.26284 17.6512 7.92904 18.134C8.96377 18.4338 9.77115 19.1217 11.7138 19.548C16.8973 20.6851 21.2098 17.857 21.8462 14.02C21.9017 13.6846 21.9306 13.3758 21.9397 13.101L21.9395 13.1012Z" fill="#292B2D"/>
<path d="M21.9428 12.8465C21.9443 12.9229 21.9417 13.0267 21.9393 13.1013C21.9303 13.3761 21.9014 13.6848 21.8458 14.0203C21.2094 17.8572 16.897 20.6854 11.7134 19.5483C9.77079 19.122 8.96341 18.4341 7.92868 18.1343C6.26248 17.6515 1.47483 20.6599 1.47483 20.6599C1.47483 20.6599 3.34685 18.872 5.06929 17.4913C5.52298 17.4819 6.06607 16.9082 5.27408 16.4792C3.686 15.6663 2.72991 12.7512 3.45728 10.4688C3.47745 10.4052 3.49933 10.3422 3.52155 10.2793C3.53232 10.2493 3.54343 10.2193 3.55454 10.1897C3.5554 10.1875 3.55625 10.1854 3.55728 10.1828C4.42192 8.00367 6.46625 6.50384 8.72409 5.88756C13.0615 4.70367 20.5678 6.58831 21.7786 11.4983C21.7786 11.4983 21.8072 11.6119 21.8446 11.8223C21.9051 12.161 21.9354 12.5071 21.9426 12.8467L21.9428 12.8465ZM19.0044 11.3213C18.8842 11.1978 18.602 11.2192 18.5168 11.3164C18.4604 11.419 18.4837 11.6201 18.5199 11.7289C18.5262 11.7481 18.5333 11.7668 18.5404 11.7853C18.5977 11.7508 18.8623 11.3813 19.0044 11.3213Z" fill="white"/>
<path d="M18.5169 11.3165C18.602 11.2193 18.8842 11.1979 19.0044 11.3214C18.8625 11.3814 18.5977 11.751 18.5404 11.7854C18.5334 11.7669 18.5263 11.7482 18.5199 11.729C18.4835 11.6202 18.4604 11.4191 18.5169 11.3165Z" fill="white"/>
<path d="M16.9062 15.2641C17.1546 15.0071 17.4179 14.7624 17.6481 14.49C17.9751 14.1031 18.2854 13.7014 18.5892 13.2958C18.8991 12.882 19.194 12.457 19.4928 12.035C19.6689 11.7866 19.84 11.5345 20.0133 11.2842C20.035 11.2911 20.0567 11.2978 20.0784 11.3046C20.0393 11.4485 20.0061 11.5942 19.9598 11.7357C19.8692 12.0124 19.7504 12.2814 19.6813 12.563C19.5736 13.003 19.3769 13.3979 19.1304 13.7694C18.8789 14.1484 18.6237 14.5267 18.3428 14.8837C18.1471 15.1325 17.9155 15.3559 17.6808 15.5697C17.4941 15.7398 17.2543 15.814 17.0004 15.7835C16.903 15.7719 16.8098 15.7093 16.7194 15.661C16.6539 15.6261 16.6014 15.5647 16.5342 15.5354C16.1382 15.3627 16.0113 15.0141 15.9501 14.6308C15.9171 14.4242 15.9038 14.2119 15.9069 14.0026C15.9113 13.6991 15.9106 13.3912 15.9621 13.094C16.0549 12.5586 16.1862 12.0297 16.299 11.4977C16.3488 11.263 16.3929 11.027 16.4419 10.78C16.3014 10.7522 16.2173 10.8415 16.2002 10.9349C16.1645 11.1298 16.0264 11.2056 15.8658 11.2995C15.8481 11.1646 15.832 11.0425 15.8171 10.9309C15.6498 10.8843 15.4863 10.8391 15.2633 10.7771C15.1046 11.0466 14.899 11.3462 14.7436 11.6699C14.3892 12.4073 14.1595 13.1872 14.0131 13.993C13.9723 14.2177 13.9051 14.4386 13.8362 14.657C13.7589 14.9015 13.5586 15.0107 13.3177 14.9569C13.037 14.8942 12.8938 14.686 12.9136 14.4089C12.9401 14.0372 12.9384 13.6633 12.9704 13.2922C12.9914 13.0481 13.0588 12.8082 13.0892 12.5644C13.1037 12.4479 13.0806 12.3268 13.0753 12.2245C12.6704 12.4803 12.2671 12.7318 11.8686 12.9905C11.8235 13.0198 11.7943 13.0858 11.7751 13.1409C11.642 13.5245 11.5078 13.9126 11.2315 14.2174C10.8643 14.6226 10.4149 14.8738 9.8549 14.6868C9.49763 14.5676 9.2619 14.2688 9.10702 13.9354C9.0489 13.8103 9.09899 13.6347 9.09967 13.482C9.09984 13.4308 9.09967 13.3796 9.09967 13.2951C8.94172 13.6409 8.81573 13.9589 8.65299 14.2566C8.55914 14.4281 8.42187 14.5859 8.27264 14.7124C8.1899 14.7824 8.02135 14.8289 7.92767 14.7924C7.68065 14.6964 7.43415 14.5739 7.22782 14.411C7.1432 14.3442 7.14765 14.1468 7.13739 14.007C7.12337 13.8148 7.1338 13.6207 7.1338 13.4274C7.11585 13.4224 7.0979 13.4175 7.07995 13.4125C6.97021 13.6654 6.8714 13.9239 6.74747 14.1696C6.64097 14.3808 6.52797 14.5959 6.3784 14.7766C6.09958 15.1138 5.55205 15.0891 5.29512 14.7374C5.23717 14.6581 5.2105 14.5344 5.21614 14.4336C5.23324 14.1269 5.28161 13.822 5.30059 13.5155C5.31119 13.3433 5.28742 13.1689 5.2799 12.9955C5.27802 12.9537 5.27956 12.9117 5.30743 12.863C5.31597 12.881 5.32469 12.8992 5.31461 12.8783V12.1733C5.3264 12.1724 5.33802 12.1717 5.34982 12.1709C5.3529 12.2133 5.35614 12.2558 5.35529 12.2454C5.39956 11.8698 5.44965 11.4451 5.50059 11.0137C5.51666 11.0079 5.53991 10.999 5.5635 10.9911C6.14694 10.7983 6.08044 10.9241 6.09531 11.3435C6.11343 11.853 6.0483 12.3655 6.02146 12.8769C6.00608 13.1714 5.99531 13.4661 5.98232 13.7606C6.00163 13.7675 6.02095 13.7743 6.04027 13.7812C6.08984 13.6683 6.136 13.5537 6.19036 13.4433C6.23173 13.3594 6.2948 13.2848 6.32848 13.1983C6.36882 13.0945 6.38506 12.9814 6.41788 12.8742C6.4413 12.7981 6.47259 12.7241 6.50438 12.6511C6.64302 12.3333 6.78268 12.016 6.92371 11.6992C6.9408 11.661 6.96525 11.599 6.9914 11.596C7.23192 11.5702 7.47826 11.5184 7.71348 11.5486C7.8834 11.5703 7.91006 11.7787 7.91964 11.9351C7.9381 12.236 7.9434 12.5377 7.94784 12.8392C7.95229 13.1281 7.94887 13.4171 7.94887 13.7164C8.04101 13.64 8.13605 13.4558 8.20819 13.2672C8.25178 13.1534 8.32426 13.051 8.37042 12.9381C8.38649 12.8988 8.36085 12.8432 8.35777 12.7948C8.35606 12.7676 8.35059 12.7308 8.36495 12.7136C8.54906 12.4947 8.51794 12.2236 8.56051 11.9675C8.60666 11.6891 8.70273 11.4189 8.75026 11.1405C8.7906 10.9047 8.79265 10.6623 8.81248 10.4116C8.99898 10.3714 9.10873 10.4173 9.22395 10.6033C9.36532 10.8314 9.40361 11.0807 9.38634 11.3438C9.38019 11.4376 9.38532 11.5321 9.38532 11.6851C9.47421 11.5112 9.53866 11.3851 9.6031 11.2589C9.61353 11.2635 9.62396 11.2681 9.63438 11.2729C9.58498 11.3839 9.53575 11.495 9.48635 11.606C9.49712 11.6109 9.50789 11.6161 9.51866 11.6211C9.56977 11.5326 9.62105 11.4446 9.67182 11.356C9.72447 11.2642 9.77627 11.1718 9.83849 11.0623C9.77815 11.0536 9.7349 11.0473 9.68003 11.0392C9.74157 10.8341 9.90055 10.7495 10.0775 10.7048C10.4783 10.6035 10.865 10.6942 11.2305 10.8518C11.3401 10.8991 11.4108 11.0435 11.4919 11.1494C11.7293 11.4597 11.8746 11.8088 11.9156 12.2253C12.0659 12.1525 12.2052 12.0878 12.3422 12.0179C12.5688 11.902 12.7986 11.7908 13.0179 11.6622C13.1653 11.5757 13.2206 11.4365 13.1533 11.2657C13.5051 10.941 13.9441 11.1041 13.9878 11.5779C14.0513 11.4645 14.1203 11.3538 14.1772 11.2373C14.3872 10.8059 14.6585 10.4127 15.0566 10.1486C15.2224 10.0386 15.4771 10.0174 15.6865 10.0309C15.9168 10.0457 16.0628 9.92402 16.2527 9.83733C16.2551 9.84658 16.2606 9.89284 16.2676 9.89301C16.5006 9.90038 16.7854 9.66017 16.8406 9.42305C16.9708 8.86434 17.1057 8.30683 17.2367 7.74829C17.2515 7.68456 17.2534 7.61757 17.2638 7.5307C17.3368 7.52505 17.4341 7.49387 17.5185 7.5146C17.9871 7.63007 18.0283 7.66982 17.9979 8.13875C17.9787 8.43464 17.8767 8.72556 17.8054 9.01734C17.764 9.18644 17.7102 9.35229 17.6433 9.58427C17.9038 9.53202 18.1199 9.4885 18.336 9.44549C18.37 9.43864 18.4121 9.41842 18.4372 9.43093C18.5613 9.49244 18.6748 9.50974 18.804 9.43076C18.8417 9.4078 18.923 9.45715 18.9846 9.47256C19.0229 9.48216 19.0618 9.49826 19.1003 9.49758C19.247 9.49501 19.3666 9.5339 19.4388 9.67559C19.4846 9.76571 19.4591 9.82002 19.3687 9.84761C19.1359 9.91837 18.9037 9.99204 18.6687 10.0549C18.3138 10.15 17.9582 10.2442 17.5997 10.3243C17.4555 10.3565 17.4117 10.4466 17.3833 10.5689C17.1977 11.3678 16.9927 12.1628 16.8295 12.9663C16.6942 13.6323 16.651 14.3094 16.7741 14.9863C16.7884 15.0653 16.8178 15.1417 16.8404 15.2193C16.8623 15.2344 16.884 15.2493 16.9059 15.2644L16.9062 15.2641ZM10.8536 11.3644C10.8758 11.345 10.898 11.3257 10.9202 11.3063C10.872 11.2326 10.836 11.1418 10.7691 11.0944C10.7454 11.0774 10.6289 11.1516 10.5864 11.208C10.4583 11.3779 10.3195 11.5476 10.2332 11.7391C10.0723 12.0962 9.88943 12.4554 9.95268 12.8704C9.98482 13.081 10.093 13.1399 10.2932 13.0566C10.4452 12.9934 10.5912 12.9146 10.7455 12.8582C10.8729 12.8116 10.9602 12.7669 11.029 12.6199C11.0819 12.5067 11.1514 12.4064 11.1479 12.2779C11.1437 12.115 11.1401 11.9505 11.1146 11.7902C11.0985 11.6886 11.0525 11.588 11.0013 11.4974C10.9703 11.4425 10.9038 11.4079 10.8534 11.3642L10.8536 11.3644ZM10.6854 13.6542C10.6783 13.6349 10.6713 13.6153 10.6643 13.596C10.5091 13.5819 10.3505 13.5835 10.1997 13.5494C10.0402 13.5134 9.88841 13.4435 9.68191 13.3703C9.7031 13.6412 9.69969 13.891 9.74892 14.1298C9.78704 14.3152 9.92123 14.3541 10.0693 14.2318C10.2859 14.0529 10.4811 13.848 10.6854 13.6542Z" fill="#292B2D"/>
</g>
<defs>
<clipPath id="clip0_192_148">
<rect width="32" height="32" fill="white"/>
</clipPath>
</defs>
</svg>
