<svg width="335" height="177" viewBox="0 0 335 177" fill="none" xmlns="http://www.w3.org/2000/svg">
<g clip-path="url(#clip0_509_2175)">
<path d="M149.635 4.6202C149.204 3.71827 147.59 4.4743 148.021 5.37623C149.805 9.10555 151.587 12.8349 153.372 16.5642C153.803 17.4661 155.417 16.7101 154.986 15.8082C153.202 12.0788 151.42 8.34952 149.635 4.6202Z" fill="#292B2D"/>
<path d="M135.387 13.8406C134.668 13.1421 133.415 14.4043 134.134 15.1029C137.109 17.9944 140.083 20.8859 143.056 23.7774C143.775 24.4759 145.028 23.2159 144.307 22.5151C141.332 19.6236 138.357 16.7321 135.384 13.8406H135.387Z" fill="#292B2D"/>
<path d="M181.59 3.26514C180.458 7.23762 179.325 11.2079 178.193 15.1782C177.918 16.1376 179.638 16.6195 179.913 15.6579C181.045 11.6854 182.177 7.71512 183.31 3.74484C183.584 2.78543 181.865 2.30352 181.59 3.26514Z" fill="#292B2D"/>
<path d="M164.423 0.839997C164.842 4.94512 165.262 9.05024 165.682 13.1554C165.785 14.1479 167.56 13.9689 167.46 12.9763C167.04 8.87118 166.62 4.76606 166.2 0.660937C166.1 -0.331631 164.322 -0.154782 164.423 0.839997Z" fill="#292B2D"/>
<path d="M185.818 89.475C186.18 90.4056 187.848 89.7712 187.486 88.8405C185.99 84.9896 184.493 81.1387 182.997 77.2856C182.635 76.3549 180.967 76.9894 181.329 77.92C182.825 81.7709 184.322 85.6218 185.818 89.475Z" fill="#292B2D"/>
<path d="M200.524 80.1306C201.243 80.8292 202.496 79.5691 201.777 78.8683C198.802 75.9769 195.828 73.0854 192.855 70.1939C192.136 69.4953 190.883 70.7554 191.602 71.4561C194.577 74.3476 197.552 77.2391 200.524 80.1306Z" fill="#292B2D"/>
<path d="M154.265 90.6996C155.433 86.7381 156.601 82.7767 157.767 78.8153C158.049 77.8581 156.333 77.3629 156.052 78.3201C154.884 82.2815 153.718 86.243 152.55 90.2044C152.266 91.1616 153.982 91.6568 154.265 90.6996Z" fill="#292B2D"/>
<path d="M170.991 93.2328C170.904 89.1078 170.819 84.9827 170.732 80.8555C170.712 79.8585 168.925 79.8939 168.945 80.8931C169.03 85.0181 169.117 89.1431 169.204 93.2704C169.224 94.2674 171.011 94.232 170.991 93.2328Z" fill="#292B2D"/>
<path d="M152.651 68.3038L144.762 34.3354C144.311 32.3967 142.578 31.13 140.899 31.5125C139.637 31.7999 138.759 32.9361 138.589 34.3067L121.81 38.1244C119.195 38.7191 117.469 41.1242 117.665 43.6952L112.493 44.8712C109.612 45.5256 107.807 48.3795 108.471 51.2312L109.532 55.8006L100.842 57.7768C99.6089 58.0576 98.6218 58.8335 98.0389 59.8438C97.9272 59.8615 97.8155 59.8814 97.7039 59.9101C93.7196 60.9115 89.7443 62.1428 85.9007 63.3366C83.3882 64.1147 80.7908 64.9216 78.2247 65.6511C73.8362 66.9001 69.8899 67.7313 64.9007 67.7313H64.7555C60.1727 67.7158 56.7289 66.9001 53.9238 65.1625C53.2114 64.7204 52.901 64.4706 52.1684 63.7433C51.4649 63.0448 51.1992 62.6623 50.652 61.7073C49.7922 60.2063 49.2763 58.1084 49.1624 55.6414C49.0239 52.6372 49.4036 49.5688 49.7698 46.6022C50.1294 43.6996 50.5001 40.6976 50.4063 37.6845C50.2277 32.001 47.9787 26.8237 43.722 22.2986C36.9728 15.1229 26.838 12.227 17.8957 9.67154L17.6255 9.59417C16.7679 9.34879 15.879 9.10562 15.0192 8.8713C9.983 7.4985 4.77487 6.07928 0.8643 2.92031C0.547167 2.66388 0.297033 2.3986 0 2.12891V4.45227C4.17187 7.72841 9.4135 9.17857 14.5435 10.5779C15.3988 10.8122 16.2832 11.0532 17.1297 11.2941L17.3999 11.3715C26.1188 13.8629 36.0013 16.6881 42.4132 23.5056C46.3662 27.708 48.4544 32.4984 48.6197 37.742C48.709 40.618 48.3472 43.5515 47.9943 46.3899C47.6191 49.4296 47.2283 52.5731 47.3757 55.7254C47.5052 58.5086 48.0837 60.8165 49.0954 62.5827C49.714 63.6637 50.0624 64.1655 50.9021 64.9967C51.7329 65.8191 52.1394 66.1485 52.9747 66.6635C56.0768 68.5824 59.8176 69.4843 64.7488 69.502H64.9007C69.3495 69.502 73.3516 68.8786 78.7183 67.3533C81.3067 66.6171 83.913 65.808 86.4367 65.0255C90.0368 63.9091 93.7553 62.7596 97.4649 61.8024C97.4493 62.1826 97.4783 62.5695 97.5676 62.9563C97.7061 63.5532 97.9652 64.0926 98.3136 64.5546C94.5459 65.5251 90.7917 66.6857 87.1536 67.8131C86.2357 68.0982 85.3178 68.3812 84.3999 68.6642L83.3123 68.998C79.7613 70.0944 76.0874 71.2263 72.4002 71.7679C69.6309 72.1746 67.1653 72.3714 64.8605 72.3714C60.606 72.3714 56.9768 71.6993 53.7653 70.3177C49.7721 68.6 46.8285 65.4809 45.4796 61.5349C43.8783 56.8506 44.4902 51.7772 45.0821 46.8719C45.1714 46.1269 45.2607 45.3819 45.3434 44.6436L45.3724 44.3893C45.6873 41.5487 46.0134 38.613 45.5734 35.7524C45.1535 33.0312 44.1709 30.5774 42.5673 28.2474C40.1978 24.8032 36.8031 22.0002 32.1846 19.6724C27.1707 17.1457 21.6522 15.5827 16.3145 14.0707C12.7389 13.0582 9.04053 12.0104 5.5476 10.6862C3.4974 9.90808 1.69063 8.97741 0 7.88536V9.95671C1.53877 10.8697 3.14007 11.6655 4.90887 12.3376C8.47327 13.6905 12.2096 14.7471 15.8232 15.7706C21.0782 17.2584 26.5141 18.797 31.3739 21.2464C35.7155 23.4349 38.8935 26.05 41.0889 29.2422C42.5383 31.3489 43.4272 33.5661 43.8046 36.0199C44.2088 38.6506 43.8962 41.4691 43.5947 44.197L43.5656 44.4512C43.4852 45.1852 43.3959 45.9213 43.3066 46.6619C42.6924 51.764 42.0559 57.0385 43.7867 62.103C45.3009 66.5287 48.5906 70.0215 53.0528 71.9403C56.4944 73.4192 60.3558 74.1399 64.8605 74.1399C67.2524 74.1399 69.8051 73.9365 72.6615 73.5165C76.485 72.955 80.2258 71.801 83.8416 70.6869L84.9247 70.3531C85.8449 70.0701 86.7628 69.7849 87.6829 69.502C91.5019 68.3171 95.4504 67.0924 99.3856 66.1043C99.5933 66.0512 99.7831 65.9782 99.9662 65.8942C100.819 66.2899 101.804 66.4226 102.791 66.1971L111.481 64.2208L112.542 68.7902C113.203 71.6419 116.086 73.428 118.967 72.7715L124.14 71.5954C125.096 73.994 127.711 75.411 130.326 74.8163L147.105 70.9986C147.86 72.1592 149.153 72.8002 150.415 72.5128C152.094 72.1304 153.095 70.2425 152.646 68.3038H152.651ZM102.396 64.4728C101.011 64.7889 99.6268 63.929 99.3074 62.5584C98.9903 61.1878 99.8568 59.8173 101.241 59.5011L109.931 57.5248L111.086 62.4943L102.396 64.4706V64.4728ZM118.572 71.0472C116.651 71.4849 114.731 70.2934 114.289 68.3923L110.211 50.8355C109.768 48.9344 110.972 47.0332 112.893 46.5955L118.007 45.4327L123.684 69.8844L118.57 71.0472H118.572ZM129.931 73.0898C128.01 73.5275 126.09 72.336 125.647 70.4349L119.528 44.0865C119.086 42.1853 120.29 40.2842 122.21 39.8465L138.75 36.084L146.469 69.3273L129.929 73.0898H129.931ZM150.017 70.7886C149.309 70.9499 148.521 70.2646 148.296 69.2942L140.407 35.328C140.182 34.3575 140.588 33.4003 141.296 33.239C142.004 33.0776 142.793 33.7629 143.018 34.7333L150.906 68.7017C151.132 69.6722 150.725 70.6294 150.017 70.7908V70.7886Z" fill="#292B2D"/>
<path d="M117.174 64.8441C116.24 60.823 115.307 56.8019 114.373 52.7786C114.148 51.8059 112.406 52.2016 112.631 53.1743C113.565 57.1954 114.498 61.2165 115.432 65.2398C115.658 66.2125 117.4 65.8168 117.174 64.8441Z" fill="#292B2D"/>
<path d="M120.466 64.0949C119.532 60.0738 118.599 56.0526 117.665 52.0293C117.44 51.0566 115.698 51.4523 115.923 52.425C116.857 56.4461 117.79 60.4673 118.724 64.4906C118.95 65.4633 120.692 65.0676 120.466 64.0949Z" fill="#292B2D"/>
<path d="M198.752 40.0557L187.512 42.6121L187.868 44.1461L199.108 41.5897L198.752 40.0557Z" fill="#292B2D" fill-opacity="0.3"/>
<path d="M188.926 54.089L175.196 57.2117L175.417 58.164L189.147 55.0413L188.926 54.089Z" fill="#292B2D" fill-opacity="0.3"/>
<path d="M183.704 31.5684L169.974 34.6934L170.195 35.6456L183.925 32.5206L183.704 31.5684Z" fill="#292B2D" fill-opacity="0.3"/>
<path d="M217.826 29.2422C218.759 33.2633 219.693 37.2844 220.626 41.3077C220.852 42.2804 222.594 41.8847 222.368 40.912C221.435 36.8909 220.501 32.8698 219.568 28.8465C219.342 27.8738 217.6 28.2695 217.826 29.2422Z" fill="#292B2D"/>
<path d="M214.534 29.9917C215.467 34.0128 216.401 38.0339 217.334 42.0572C217.56 43.0299 219.302 42.6342 219.076 41.6615C218.143 37.6404 217.209 33.6193 216.276 29.596C216.05 28.6233 214.308 29.019 214.534 29.9917Z" fill="#292B2D"/>
<path d="M335 29.9849C332.57 30.2436 330.221 30.4049 327.753 30.4049C326.964 30.4049 326.18 30.3873 325.421 30.3563C318.004 30.038 311.385 28.3336 305.75 25.2918C302.757 23.6758 300.012 21.8719 297.592 19.9288C295.22 18.0255 293.163 15.8458 291.294 13.7744C291.106 13.5666 290.921 13.3566 290.733 13.1466C289.321 11.5594 287.863 9.91912 285.84 8.95308C284.437 8.28326 282.809 7.92956 281.132 7.92956C280.156 7.92956 279.184 8.04673 278.249 8.28105C273.132 9.55216 269.134 12.9234 264.808 16.8715C264.322 17.3159 263.839 17.7602 263.357 18.2067C259.984 21.3171 256.797 24.2572 252.847 26.3838C248.003 28.9924 242.669 30.7631 237.539 32.2552C237.553 31.8861 237.524 31.5103 237.437 31.1322C237.296 30.5265 237.028 29.9805 236.673 29.5119C237.041 29.4057 237.414 29.2952 237.792 29.1825C242.768 27.6947 248.496 25.8422 253.521 22.6479C256.433 20.7976 258.959 18.4234 261.403 16.1265C262.615 14.9881 263.868 13.8098 265.139 12.7244C269.074 9.36868 273.853 5.84495 279.464 5.17513C280.031 5.1066 280.607 5.07344 281.181 5.07344C283.401 5.07344 285.554 5.57525 287.405 6.52582C289.543 7.62229 291.209 9.36868 292.866 11.2145C294.697 13.2527 296.774 15.565 299.177 17.5281C301.518 19.4403 304.238 21.2264 307.266 22.8336C312.932 25.8444 319.746 27.4626 326.975 27.5157C327.125 27.5157 327.275 27.5157 327.422 27.5157C330.015 27.5157 332.472 27.3521 335 27.0824V25.3028C332.465 25.5769 330.008 25.7472 327.422 25.7472C327.272 25.7494 327.134 25.7472 326.989 25.7472C320.05 25.6963 313.522 24.1511 308.113 21.2751C305.189 19.721 302.565 18.0012 300.316 16.1641C298.02 14.2873 295.992 12.0303 294.204 10.0385C292.43 8.06441 290.637 6.1898 288.229 4.95407C286.123 3.87307 283.687 3.30273 281.183 3.30273C280.538 3.30273 279.888 3.34032 279.251 3.41769C273.166 4.14498 268.114 7.85219 263.975 11.3826C262.671 12.4945 261.403 13.6882 260.174 14.8422C257.791 17.0815 255.328 19.3983 252.559 21.1579C247.728 24.2285 242.138 26.0345 237.278 27.4869C236.49 27.7235 235.713 27.9445 234.991 28.1501C234.982 28.1523 234.973 28.1567 234.964 28.159C234.127 27.7876 233.169 27.6682 232.208 27.887L223.516 29.8656L222.455 25.2962C221.794 22.4445 218.911 20.6583 216.03 21.3149L210.916 22.4777L210.21 19.4425C209.759 17.5038 208.028 16.2371 206.346 16.6195C205.085 16.9069 204.207 18.0432 204.037 19.4137L185.083 23.7267C183.403 24.1091 182.349 25.7737 182.736 27.4361L183.055 28.8155L172.201 31.2848C169.776 31.8352 168.219 33.4136 168.576 34.9522C168.934 36.4908 171.031 37.238 173.456 36.6853L184.31 34.2161L188.281 51.3108L177.427 53.78C175.002 54.3327 173.445 55.9089 173.802 57.4475C174.16 58.9861 176.257 59.7332 178.682 59.1806L189.536 56.7113L189.856 58.0908C190.242 59.7531 191.924 60.7966 193.603 60.4141L212.557 56.1012C213.312 57.2596 214.605 57.9029 215.867 57.6155C217.547 57.233 218.547 55.3452 218.098 53.4064L217.393 50.3713L222.507 49.2085C225.388 48.5541 227.192 45.7002 226.529 42.8485L225.468 38.2792L234.158 36.3029C235.38 36.0243 236.36 35.2573 236.948 34.2603C242.502 32.6752 248.362 30.8051 253.698 27.9313C257.847 25.6963 261.266 22.544 264.572 19.4933C265.052 19.0512 265.532 18.6069 266.017 18.1647C270.159 14.3846 273.972 11.1593 278.68 9.98986C279.475 9.79312 280.299 9.69143 281.127 9.69143C282.537 9.69143 283.897 9.98544 285.06 10.5403C286.758 11.3494 288.035 12.7863 289.388 14.3094C289.578 14.5216 289.768 14.7361 289.958 14.9461C291.876 17.0727 293.994 19.312 296.464 21.295C298.969 23.3044 301.804 25.168 304.892 26.8348C310.77 30.007 317.649 31.7844 325.343 32.1138C326.129 32.1469 326.94 32.1646 327.753 32.1646C330.227 32.1646 332.574 32.0076 335 31.7556V29.9761V29.9849ZM173.056 34.9655C171.522 35.3147 170.396 34.8947 170.318 34.5587C170.24 34.2227 171.069 33.3583 172.603 33.0113L183.457 30.542L183.91 32.4962L173.056 34.9655ZM187.66 40.7551L197.315 38.5577L198.065 41.7896L188.411 43.987L187.66 40.7551ZM178.28 57.4629C176.746 57.8122 175.62 57.3922 175.542 57.0562C175.464 56.7202 176.292 55.8558 177.827 55.5087L188.681 53.0395L189.134 54.9937L178.28 57.4629ZM193.201 58.6943C192.482 58.8578 191.761 58.4113 191.595 57.6995L188.81 45.7113L200.205 43.1182L198.655 36.4399L187.26 39.033L184.475 27.0448C184.31 26.333 184.761 25.6189 185.48 25.4554L204.198 21.1977L211.916 54.441L193.199 58.6987L193.201 58.6943ZM215.465 55.8978C214.757 56.0592 213.969 55.3739 213.743 54.4034L205.855 20.435C205.63 19.4646 206.036 18.5074 206.744 18.346C207.452 18.1846 208.24 18.8699 208.466 19.8404L216.354 53.8088C216.58 54.7792 216.173 55.7364 215.465 55.8978ZM222.107 47.4908L216.993 48.6536L211.316 24.2019L216.43 23.0392C218.351 22.6015 220.271 23.793 220.713 25.6941L224.792 43.2509C225.234 45.152 224.03 47.0531 222.109 47.4908H222.107ZM233.758 34.5852L225.066 36.5637L223.912 31.5943L232.604 29.6157C233.988 29.3018 235.373 30.1596 235.692 31.5301C236.01 32.9007 235.143 34.2713 233.758 34.5874V34.5852Z" fill="#292B2D"/>
</g>
<mask id="mask0_509_2175" style="mask-type:luminance" maskUnits="userSpaceOnUse" x="85" y="104" width="88" height="73">
<path d="M98.7472 152.441C96.059 149.563 93.9605 146.123 92.6503 142.422C90.8732 138.355 89.9554 133.695 90.8222 129.333C91.1831 127.516 91.801 125.847 92.6912 124.265C93.2507 122.751 93.9713 121.305 94.8045 119.906C96.9224 116.348 99.9668 113.475 103.406 111.179C111.042 106.079 120.53 104.669 129.558 104.663C135.463 104.66 141.535 105.001 147.286 106.474C147.381 107.094 150.881 120.093 159.048 127.099C160.565 128.472 171.669 134.232 172.003 134.286C172.118 136.458 171.862 138.586 171.237 140.677C170.051 144.647 167.226 147.987 164.026 150.545C157.259 155.955 148.891 159.3 140.397 160.925C139.024 161.366 123.355 163.552 117.114 162.021C116.029 162.006 112.78 161.538 112.648 161.499C104.674 166.481 87.8429 176.549 87.4182 176.413C86.644 176.182 86.0013 175.591 85.5377 174.956C84.9937 174.211 94.6274 158.73 98.7472 152.442V152.441Z" fill="white"/>
</mask>
<g mask="url(#mask0_509_2175)">
<path d="M99.5084 152.441C96.8202 149.564 94.7218 146.123 93.4115 142.422C91.6344 138.355 90.7167 133.695 91.5834 129.334C91.9444 127.516 92.5622 125.847 93.4525 124.265C94.012 122.751 94.7325 121.305 95.5657 119.906C97.6836 116.348 100.728 113.475 104.167 111.179C111.803 106.079 121.291 104.669 130.319 104.663C136.224 104.66 142.297 105.001 148.047 106.474C148.142 107.094 151.642 120.093 159.809 127.099C161.326 128.472 172.43 134.232 172.764 134.286C172.88 136.458 172.623 138.586 171.999 140.677C170.813 144.647 167.987 147.987 164.787 150.545C158.02 155.955 149.652 159.3 141.158 160.925C139.785 161.366 124.117 163.552 117.875 162.021C116.79 162.006 113.541 161.538 113.41 161.499C105.436 166.481 88.6041 176.549 88.1794 176.413C87.4052 176.182 86.7625 175.591 86.299 174.956C85.7549 174.211 95.3886 158.73 99.5084 152.442V152.441Z" fill="#7C1513"/>
<path d="M88.768 126.534C88.8599 125.921 91.2978 122.427 91.7869 122.042C91.9056 120.335 94.2933 119.351 94.9661 117.749C95.8544 115.635 98.5842 114.247 100.269 112.703C101.882 111.224 103.895 110.14 105.924 109.336C108.159 108.45 107.129 104.166 109.497 103.774C112.112 103.341 113.304 101.896 115.937 101.562C116.702 100.863 122.383 102.511 123.282 103.076C126.753 102.614 130.698 105.144 134.17 104.682C135.248 104.539 147.369 104.953 147.734 105.971C148.433 107.911 157.282 123.706 157.394 124.738C157.51 125.806 147.455 123.857 146.409 124.219C144.925 124.731 125.179 126.305 116.981 126.63C110.161 127.56 103.19 127.872 96.3153 127.479C94.9675 127.402 88.5822 127.768 88.7673 126.535L88.768 126.534Z" fill="#292B2D"/>
<path d="M84.9362 138.713C84.3036 137.598 84.7531 129.689 84.9443 128.731C84.6055 126.292 99.0883 125.877 101.044 125.736C124.864 124.007 143.717 122.533 143.65 122.529C147.887 122.763 165.242 121.713 169.369 122.529C181.191 124.865 175.367 125.754 175.618 129.629C176.14 137.697 175.812 137.979 175.618 138.613C176.265 140.123 171.097 140.754 169.496 140.936C149.491 143.22 97.5399 144.34 81.221 143.887C79.3372 143.835 85.1502 140.009 84.9362 138.712V138.713ZM158.789 131.7C158.789 131.675 158.79 131.65 158.792 131.626C158.632 131.614 158.472 131.602 158.313 131.589C158.472 131.626 158.63 131.664 158.789 131.701V131.7Z" fill="#FC142C"/>
<path d="M82.4286 143.204C89.5888 142.943 113.937 142.977 121.102 142.934C123.686 142.781 126.272 142.637 128.856 142.482C133.65 142.196 138.442 141.909 143.236 141.623C151.959 141.102 163.424 140.379 172.151 139.905C173.491 139.833 181.444 148.595 168.554 150.536C167.029 151.817 165.37 152.944 163.628 153.934C159.788 156.115 153.866 160.357 149.546 161.372C147.283 161.904 87.8767 179.407 83.6362 177.844C81.688 177.125 81.164 143.251 82.4286 143.205V143.204Z" fill="#FCD92C"/>
</g>
<path d="M141.701 92.6265C132.342 119.093 160.434 148.342 196.041 136.645C198.977 135.681 201.74 134.401 204.539 133.113C206.642 132.146 208.589 131.303 210.978 131.272C215.527 131.215 239.076 146.356 241.996 142.538C242.261 141.353 230.19 129.385 222.024 122.906C222.012 122.882 221.999 122.859 221.985 122.836C231.486 114.663 233.716 99.2875 226.781 87.2715C221.336 77.8372 211.82 71.1754 201.213 68.6396C180.528 63.6946 148.83 72.4632 141.7 92.6265H141.701ZM143.242 105.175C143.232 104.843 143.22 104.381 143.227 104.04C143.258 102.527 143.395 100.984 143.668 99.4761C143.837 98.5387 143.965 98.0326 143.965 98.0326C149.415 76.1563 183.205 67.7594 202.728 73.0342C212.891 75.7808 222.094 82.4624 225.986 92.1715C225.99 92.183 225.994 92.1929 225.998 92.2021C226.049 92.3349 226.098 92.4677 226.147 92.6013C226.247 92.8814 226.345 93.1624 226.436 93.4456C229.71 103.615 225.407 116.602 218.258 120.225C214.693 122.135 217.137 124.691 219.18 124.734C226.933 130.886 235.36 138.851 235.36 138.851C235.36 138.851 213.809 125.448 206.309 127.599C201.651 128.935 198.017 132 189.272 133.899C165.939 138.965 146.527 126.364 143.662 109.269C143.412 107.774 143.282 106.399 143.242 105.174L143.242 105.175Z" fill="#292B2D"/>
<path d="M143.227 104.041C143.22 104.381 143.232 104.844 143.243 105.176C143.284 106.4 143.414 107.776 143.664 109.27C146.528 126.366 165.94 138.966 189.273 133.9C198.018 132.001 201.652 128.936 206.31 127.6C213.81 125.449 235.361 138.853 235.361 138.853C235.361 138.853 226.934 130.887 219.181 124.735C217.139 124.693 214.694 122.138 218.259 120.226C225.408 116.604 229.711 103.616 226.437 93.4469C226.346 93.1637 226.248 92.8827 226.148 92.6026C226.099 92.469 226.049 92.3354 225.999 92.2034C225.995 92.1934 225.992 92.1843 225.987 92.1728C222.095 82.4637 212.893 75.7813 202.729 73.0355C183.205 67.7607 149.416 76.1576 143.966 98.0339C143.966 98.0339 143.838 98.54 143.669 99.4774C143.397 100.987 143.26 102.528 143.228 104.041L143.227 104.041ZM156.454 97.2453C156.995 96.6949 158.265 96.7904 158.649 97.2232C158.903 97.6804 158.798 98.5766 158.635 99.0613C158.606 99.1468 158.575 99.23 158.542 99.3125C158.285 99.159 157.093 97.5125 156.454 97.2453Z" fill="white"/>
<path d="M158.649 97.2234C158.266 96.7906 156.995 96.6951 156.454 97.2455C157.093 97.5127 158.285 99.1592 158.543 99.3127C158.574 99.2302 158.607 99.147 158.635 99.0615C158.799 98.5768 158.903 97.6806 158.649 97.2234Z" fill="white"/>
<mask id="path-26-outside-1_509_2175" maskUnits="userSpaceOnUse" x="191.716" y="90.8752" width="20" height="24" fill="black">
<rect fill="white" x="191.716" y="90.8752" width="20" height="24"/>
<path d="M211 101.266C211 102.071 210.923 102.857 210.77 103.624C210.629 104.378 210.457 105.138 210.252 105.905C210.112 106.045 210.003 106.192 209.927 106.345C209.85 106.486 209.818 106.658 209.831 106.863C209.677 106.901 209.575 106.997 209.524 107.15C209.473 107.291 209.416 107.425 209.352 107.553C209.134 107.693 208.943 107.859 208.777 108.051C208.623 108.23 208.457 108.409 208.278 108.588C208.227 108.639 208.176 108.696 208.125 108.76C208.087 108.824 208.042 108.875 207.991 108.914C207.876 109.003 207.748 109.086 207.608 109.163C207.467 109.227 207.339 109.297 207.224 109.374C206.969 109.54 206.72 109.712 206.477 109.891C206.234 110.083 205.998 110.287 205.768 110.504C205.218 110.722 204.688 110.964 204.177 111.233C203.679 111.514 203.18 111.82 202.682 112.153H202.203C202.037 112.255 201.883 112.338 201.743 112.402C201.602 112.466 201.436 112.498 201.245 112.498C200.989 112.664 200.708 112.798 200.401 112.9C200.095 113.015 199.782 113.117 199.462 113.207C199.143 113.296 198.823 113.379 198.504 113.456C198.184 113.532 197.884 113.622 197.603 113.724C197.539 113.711 197.475 113.692 197.411 113.667C197.36 113.654 197.303 113.647 197.239 113.647C197.06 113.647 196.894 113.686 196.741 113.762C196.6 113.839 196.447 113.897 196.281 113.935C196.23 113.961 196.172 113.967 196.108 113.954C196.044 113.954 195.987 113.954 195.936 113.954C195.603 113.954 195.303 113.897 195.035 113.782C194.767 113.679 194.479 113.596 194.172 113.532C194.096 113.366 193.987 113.207 193.847 113.053L193.425 112.593C193.284 112.44 193.163 112.28 193.061 112.114C192.946 111.961 192.876 111.788 192.85 111.597V111.405C192.85 111.265 192.837 111.124 192.812 110.983C192.786 110.843 192.754 110.702 192.716 110.562C192.805 110.332 192.895 110.089 192.984 109.834C193.074 109.578 193.169 109.329 193.272 109.086C193.374 108.831 193.489 108.588 193.617 108.358C193.744 108.128 193.904 107.93 194.096 107.764C194.16 107.483 194.262 107.227 194.402 106.997C194.53 106.754 194.677 106.524 194.843 106.307C194.997 106.077 195.15 105.847 195.303 105.617C195.457 105.387 195.584 105.138 195.687 104.87C195.75 104.882 195.789 104.87 195.801 104.831C195.827 104.793 195.846 104.755 195.859 104.716C195.885 104.665 195.91 104.627 195.936 104.601C195.961 104.576 196.012 104.576 196.089 104.601C196.089 104.473 196.115 104.371 196.166 104.295C196.217 104.205 196.268 104.122 196.319 104.045C196.383 103.969 196.434 103.892 196.472 103.815C196.523 103.726 196.555 103.624 196.568 103.509C196.658 103.47 196.728 103.413 196.779 103.336C196.843 103.26 196.9 103.183 196.951 103.106C197.003 103.017 197.054 102.934 197.105 102.857C197.156 102.781 197.233 102.723 197.335 102.685C197.36 102.519 197.405 102.378 197.469 102.263C197.546 102.135 197.622 102.02 197.699 101.918C197.788 101.816 197.871 101.714 197.948 101.611C198.037 101.496 198.108 101.369 198.159 101.228C198.236 101.164 198.325 101.145 198.427 101.171C198.606 100.813 198.817 100.474 199.06 100.155C199.302 99.8354 199.552 99.5224 199.807 99.2157C200.063 98.9091 200.318 98.6024 200.574 98.2958C200.829 97.9763 201.053 97.6441 201.245 97.2991C201.423 97.1969 201.59 97.0755 201.743 96.935C201.909 96.7817 202.043 96.6092 202.145 96.4175C201.89 95.932 201.666 95.4656 201.475 95.0184C201.283 94.5584 201.187 94.041 201.187 93.466C201.187 93.3766 201.193 93.2871 201.206 93.1977C201.219 93.1082 201.232 93.0124 201.245 92.9102C201.462 92.6163 201.673 92.3736 201.877 92.1819C202.081 91.9775 202.382 91.8752 202.778 91.8752C203.161 91.8752 203.532 91.9455 203.889 92.0861C204.26 92.2266 204.637 92.2969 205.02 92.2969C205.212 92.4374 205.404 92.5652 205.595 92.6802C205.8 92.7824 206.01 92.8846 206.228 92.9869L206.477 93.0827C206.579 93.1082 206.668 93.1402 206.745 93.1785C206.822 93.2296 206.898 93.2871 206.975 93.351C207.065 93.4149 207.148 93.4788 207.224 93.5427C207.735 93.9643 208.208 94.4243 208.643 94.9226C209.09 95.4081 209.531 95.9064 209.965 96.4175V96.4558C209.965 96.6603 210.01 96.82 210.099 96.935C210.189 97.0372 210.284 97.1586 210.387 97.2991C210.387 97.5291 210.419 97.7336 210.482 97.9124C210.546 98.0913 210.629 98.2766 210.732 98.4682C210.732 98.6471 210.732 98.8324 210.732 99.0241C210.744 99.2029 210.776 99.3818 210.827 99.5607C210.879 99.6885 210.91 99.7843 210.923 99.8482C210.974 100.027 211 100.257 211 100.538V101.266ZM209.447 101.247C209.447 100.877 209.422 100.538 209.371 100.231C209.332 99.9121 209.281 99.5735 209.217 99.2157C209.166 98.9091 209.102 98.6024 209.026 98.2958C208.962 97.9891 208.86 97.6952 208.719 97.4141C208.591 97.133 208.419 96.8775 208.202 96.6475C207.997 96.4175 207.742 96.2195 207.435 96.0534H207.378C207.339 96.0534 207.295 96.0853 207.243 96.1492C207.205 96.2003 207.116 96.2259 206.975 96.2259C206.898 96.2259 206.822 96.2131 206.745 96.1875C206.681 96.1492 206.617 96.1364 206.553 96.1492H206.477C206.323 96.2259 206.189 96.2834 206.074 96.3217C205.959 96.36 205.812 96.3664 205.634 96.3409C205.442 96.5197 205.237 96.6858 205.02 96.8392C204.816 96.9797 204.586 97.0883 204.33 97.165C204.215 97.395 204.068 97.5994 203.889 97.7783C203.711 97.9444 203.493 98.0594 203.238 98.1233C203.187 98.2766 203.11 98.4107 203.008 98.5257C202.918 98.628 202.816 98.7238 202.701 98.8132C202.586 98.8899 202.465 98.9666 202.337 99.0432C202.209 99.1199 202.094 99.2029 201.992 99.2924C201.89 99.3946 201.807 99.5032 201.743 99.6182C201.692 99.7204 201.615 99.8162 201.513 99.9057C201.372 100.033 201.245 100.155 201.13 100.27C201.027 100.385 200.925 100.519 200.823 100.672C200.733 100.813 200.644 100.953 200.555 101.094C200.478 101.234 200.433 101.394 200.42 101.573C200.05 101.79 199.756 102.071 199.539 102.416L198.887 103.451C198.798 103.579 198.708 103.694 198.619 103.796L198.351 104.103C198.312 104.154 198.287 104.212 198.274 104.275C198.274 104.339 198.28 104.403 198.293 104.467C198.114 104.595 197.961 104.748 197.833 104.927C197.705 105.093 197.584 105.272 197.469 105.464C197.367 105.655 197.252 105.847 197.124 106.039C197.009 106.218 196.868 106.377 196.702 106.518C196.6 106.773 196.479 107.035 196.338 107.304C196.21 107.559 196.038 107.776 195.821 107.955C195.603 108.492 195.393 109.022 195.188 109.546C194.997 110.07 194.862 110.619 194.786 111.194C194.875 111.284 194.965 111.36 195.054 111.424C195.143 111.501 195.233 111.584 195.322 111.673C195.335 111.686 195.361 111.693 195.399 111.693C195.463 111.693 195.508 111.673 195.533 111.635C195.572 111.597 195.616 111.578 195.667 111.578C195.693 111.578 195.706 111.578 195.706 111.578L195.744 111.597C195.757 111.686 195.795 111.75 195.859 111.788C195.923 111.827 196 111.852 196.089 111.865C196.178 111.891 196.268 111.91 196.357 111.923C196.447 111.935 196.517 111.967 196.568 112.018C196.849 111.929 197.162 111.859 197.507 111.808C197.852 111.769 198.191 111.718 198.523 111.654C198.868 111.603 199.2 111.526 199.52 111.424C199.839 111.322 200.114 111.175 200.344 110.983H200.555C200.682 110.983 200.772 111.009 200.823 111.06C201.066 110.817 201.308 110.632 201.551 110.504C201.794 110.377 202.081 110.306 202.414 110.293C202.899 109.846 203.449 109.489 204.062 109.22C204.688 108.939 205.282 108.632 205.844 108.3C205.908 108.275 205.94 108.23 205.94 108.166C205.94 108.089 205.972 108.045 206.036 108.032C206.1 108.019 206.151 108.019 206.189 108.032C206.24 108.032 206.292 108.032 206.343 108.032C206.79 107.598 207.218 107.157 207.627 106.709C208.048 106.25 208.419 105.751 208.738 105.215C208.738 105.125 208.745 105.048 208.758 104.985C208.783 104.908 208.796 104.838 208.796 104.774C208.796 104.748 208.789 104.723 208.777 104.697C208.764 104.659 208.751 104.627 208.738 104.601C208.994 104.09 209.173 103.547 209.275 102.972C209.39 102.384 209.447 101.809 209.447 101.247ZM205.02 94.3476C204.854 94.2326 204.656 94.1304 204.426 94.041C204.196 93.9388 203.979 93.8876 203.774 93.8876C203.557 93.8876 203.398 93.9515 203.295 94.0793C203.206 94.1943 203.161 94.354 203.161 94.5584C203.161 94.6734 203.193 94.7693 203.257 94.8459C203.321 94.9098 203.334 95.0376 203.295 95.2292C203.334 95.2548 203.385 95.2676 203.449 95.2676C203.602 95.2676 203.749 95.2356 203.889 95.1717C204.03 95.1079 204.158 95.0312 204.273 94.9418C204.401 94.8395 204.522 94.7373 204.637 94.6351C204.765 94.5201 204.892 94.4243 205.02 94.3476Z"/>
</mask>
<path d="M211 101.266C211 102.071 210.923 102.857 210.77 103.624C210.629 104.378 210.457 105.138 210.252 105.905C210.112 106.045 210.003 106.192 209.927 106.345C209.85 106.486 209.818 106.658 209.831 106.863C209.677 106.901 209.575 106.997 209.524 107.15C209.473 107.291 209.416 107.425 209.352 107.553C209.134 107.693 208.943 107.859 208.777 108.051C208.623 108.23 208.457 108.409 208.278 108.588C208.227 108.639 208.176 108.696 208.125 108.76C208.087 108.824 208.042 108.875 207.991 108.914C207.876 109.003 207.748 109.086 207.608 109.163C207.467 109.227 207.339 109.297 207.224 109.374C206.969 109.54 206.72 109.712 206.477 109.891C206.234 110.083 205.998 110.287 205.768 110.504C205.218 110.722 204.688 110.964 204.177 111.233C203.679 111.514 203.18 111.82 202.682 112.153H202.203C202.037 112.255 201.883 112.338 201.743 112.402C201.602 112.466 201.436 112.498 201.245 112.498C200.989 112.664 200.708 112.798 200.401 112.9C200.095 113.015 199.782 113.117 199.462 113.207C199.143 113.296 198.823 113.379 198.504 113.456C198.184 113.532 197.884 113.622 197.603 113.724C197.539 113.711 197.475 113.692 197.411 113.667C197.36 113.654 197.303 113.647 197.239 113.647C197.06 113.647 196.894 113.686 196.741 113.762C196.6 113.839 196.447 113.897 196.281 113.935C196.23 113.961 196.172 113.967 196.108 113.954C196.044 113.954 195.987 113.954 195.936 113.954C195.603 113.954 195.303 113.897 195.035 113.782C194.767 113.679 194.479 113.596 194.172 113.532C194.096 113.366 193.987 113.207 193.847 113.053L193.425 112.593C193.284 112.44 193.163 112.28 193.061 112.114C192.946 111.961 192.876 111.788 192.85 111.597V111.405C192.85 111.265 192.837 111.124 192.812 110.983C192.786 110.843 192.754 110.702 192.716 110.562C192.805 110.332 192.895 110.089 192.984 109.834C193.074 109.578 193.169 109.329 193.272 109.086C193.374 108.831 193.489 108.588 193.617 108.358C193.744 108.128 193.904 107.93 194.096 107.764C194.16 107.483 194.262 107.227 194.402 106.997C194.53 106.754 194.677 106.524 194.843 106.307C194.997 106.077 195.15 105.847 195.303 105.617C195.457 105.387 195.584 105.138 195.687 104.87C195.75 104.882 195.789 104.87 195.801 104.831C195.827 104.793 195.846 104.755 195.859 104.716C195.885 104.665 195.91 104.627 195.936 104.601C195.961 104.576 196.012 104.576 196.089 104.601C196.089 104.473 196.115 104.371 196.166 104.295C196.217 104.205 196.268 104.122 196.319 104.045C196.383 103.969 196.434 103.892 196.472 103.815C196.523 103.726 196.555 103.624 196.568 103.509C196.658 103.47 196.728 103.413 196.779 103.336C196.843 103.26 196.9 103.183 196.951 103.106C197.003 103.017 197.054 102.934 197.105 102.857C197.156 102.781 197.233 102.723 197.335 102.685C197.36 102.519 197.405 102.378 197.469 102.263C197.546 102.135 197.622 102.02 197.699 101.918C197.788 101.816 197.871 101.714 197.948 101.611C198.037 101.496 198.108 101.369 198.159 101.228C198.236 101.164 198.325 101.145 198.427 101.171C198.606 100.813 198.817 100.474 199.06 100.155C199.302 99.8354 199.552 99.5224 199.807 99.2157C200.063 98.9091 200.318 98.6024 200.574 98.2958C200.829 97.9763 201.053 97.6441 201.245 97.2991C201.423 97.1969 201.59 97.0755 201.743 96.935C201.909 96.7817 202.043 96.6092 202.145 96.4175C201.89 95.932 201.666 95.4656 201.475 95.0184C201.283 94.5584 201.187 94.041 201.187 93.466C201.187 93.3766 201.193 93.2871 201.206 93.1977C201.219 93.1082 201.232 93.0124 201.245 92.9102C201.462 92.6163 201.673 92.3736 201.877 92.1819C202.081 91.9775 202.382 91.8752 202.778 91.8752C203.161 91.8752 203.532 91.9455 203.889 92.0861C204.26 92.2266 204.637 92.2969 205.02 92.2969C205.212 92.4374 205.404 92.5652 205.595 92.6802C205.8 92.7824 206.01 92.8846 206.228 92.9869L206.477 93.0827C206.579 93.1082 206.668 93.1402 206.745 93.1785C206.822 93.2296 206.898 93.2871 206.975 93.351C207.065 93.4149 207.148 93.4788 207.224 93.5427C207.735 93.9643 208.208 94.4243 208.643 94.9226C209.09 95.4081 209.531 95.9064 209.965 96.4175V96.4558C209.965 96.6603 210.01 96.82 210.099 96.935C210.189 97.0372 210.284 97.1586 210.387 97.2991C210.387 97.5291 210.419 97.7336 210.482 97.9124C210.546 98.0913 210.629 98.2766 210.732 98.4682C210.732 98.6471 210.732 98.8324 210.732 99.0241C210.744 99.2029 210.776 99.3818 210.827 99.5607C210.879 99.6885 210.91 99.7843 210.923 99.8482C210.974 100.027 211 100.257 211 100.538V101.266ZM209.447 101.247C209.447 100.877 209.422 100.538 209.371 100.231C209.332 99.9121 209.281 99.5735 209.217 99.2157C209.166 98.9091 209.102 98.6024 209.026 98.2958C208.962 97.9891 208.86 97.6952 208.719 97.4141C208.591 97.133 208.419 96.8775 208.202 96.6475C207.997 96.4175 207.742 96.2195 207.435 96.0534H207.378C207.339 96.0534 207.295 96.0853 207.243 96.1492C207.205 96.2003 207.116 96.2259 206.975 96.2259C206.898 96.2259 206.822 96.2131 206.745 96.1875C206.681 96.1492 206.617 96.1364 206.553 96.1492H206.477C206.323 96.2259 206.189 96.2834 206.074 96.3217C205.959 96.36 205.812 96.3664 205.634 96.3409C205.442 96.5197 205.237 96.6858 205.02 96.8392C204.816 96.9797 204.586 97.0883 204.33 97.165C204.215 97.395 204.068 97.5994 203.889 97.7783C203.711 97.9444 203.493 98.0594 203.238 98.1233C203.187 98.2766 203.11 98.4107 203.008 98.5257C202.918 98.628 202.816 98.7238 202.701 98.8132C202.586 98.8899 202.465 98.9666 202.337 99.0432C202.209 99.1199 202.094 99.2029 201.992 99.2924C201.89 99.3946 201.807 99.5032 201.743 99.6182C201.692 99.7204 201.615 99.8162 201.513 99.9057C201.372 100.033 201.245 100.155 201.13 100.27C201.027 100.385 200.925 100.519 200.823 100.672C200.733 100.813 200.644 100.953 200.555 101.094C200.478 101.234 200.433 101.394 200.42 101.573C200.05 101.79 199.756 102.071 199.539 102.416L198.887 103.451C198.798 103.579 198.708 103.694 198.619 103.796L198.351 104.103C198.312 104.154 198.287 104.212 198.274 104.275C198.274 104.339 198.28 104.403 198.293 104.467C198.114 104.595 197.961 104.748 197.833 104.927C197.705 105.093 197.584 105.272 197.469 105.464C197.367 105.655 197.252 105.847 197.124 106.039C197.009 106.218 196.868 106.377 196.702 106.518C196.6 106.773 196.479 107.035 196.338 107.304C196.21 107.559 196.038 107.776 195.821 107.955C195.603 108.492 195.393 109.022 195.188 109.546C194.997 110.07 194.862 110.619 194.786 111.194C194.875 111.284 194.965 111.36 195.054 111.424C195.143 111.501 195.233 111.584 195.322 111.673C195.335 111.686 195.361 111.693 195.399 111.693C195.463 111.693 195.508 111.673 195.533 111.635C195.572 111.597 195.616 111.578 195.667 111.578C195.693 111.578 195.706 111.578 195.706 111.578L195.744 111.597C195.757 111.686 195.795 111.75 195.859 111.788C195.923 111.827 196 111.852 196.089 111.865C196.178 111.891 196.268 111.91 196.357 111.923C196.447 111.935 196.517 111.967 196.568 112.018C196.849 111.929 197.162 111.859 197.507 111.808C197.852 111.769 198.191 111.718 198.523 111.654C198.868 111.603 199.2 111.526 199.52 111.424C199.839 111.322 200.114 111.175 200.344 110.983H200.555C200.682 110.983 200.772 111.009 200.823 111.06C201.066 110.817 201.308 110.632 201.551 110.504C201.794 110.377 202.081 110.306 202.414 110.293C202.899 109.846 203.449 109.489 204.062 109.22C204.688 108.939 205.282 108.632 205.844 108.3C205.908 108.275 205.94 108.23 205.94 108.166C205.94 108.089 205.972 108.045 206.036 108.032C206.1 108.019 206.151 108.019 206.189 108.032C206.24 108.032 206.292 108.032 206.343 108.032C206.79 107.598 207.218 107.157 207.627 106.709C208.048 106.25 208.419 105.751 208.738 105.215C208.738 105.125 208.745 105.048 208.758 104.985C208.783 104.908 208.796 104.838 208.796 104.774C208.796 104.748 208.789 104.723 208.777 104.697C208.764 104.659 208.751 104.627 208.738 104.601C208.994 104.09 209.173 103.547 209.275 102.972C209.39 102.384 209.447 101.809 209.447 101.247ZM205.02 94.3476C204.854 94.2326 204.656 94.1304 204.426 94.041C204.196 93.9388 203.979 93.8876 203.774 93.8876C203.557 93.8876 203.398 93.9515 203.295 94.0793C203.206 94.1943 203.161 94.354 203.161 94.5584C203.161 94.6734 203.193 94.7693 203.257 94.8459C203.321 94.9098 203.334 95.0376 203.295 95.2292C203.334 95.2548 203.385 95.2676 203.449 95.2676C203.602 95.2676 203.749 95.2356 203.889 95.1717C204.03 95.1079 204.158 95.0312 204.273 94.9418C204.401 94.8395 204.522 94.7373 204.637 94.6351C204.765 94.5201 204.892 94.4243 205.02 94.3476Z" fill="#292B2D"/>
<path d="M211 101.266C211 102.071 210.923 102.857 210.77 103.624C210.629 104.378 210.457 105.138 210.252 105.905C210.112 106.045 210.003 106.192 209.927 106.345C209.85 106.486 209.818 106.658 209.831 106.863C209.677 106.901 209.575 106.997 209.524 107.15C209.473 107.291 209.416 107.425 209.352 107.553C209.134 107.693 208.943 107.859 208.777 108.051C208.623 108.23 208.457 108.409 208.278 108.588C208.227 108.639 208.176 108.696 208.125 108.76C208.087 108.824 208.042 108.875 207.991 108.914C207.876 109.003 207.748 109.086 207.608 109.163C207.467 109.227 207.339 109.297 207.224 109.374C206.969 109.54 206.72 109.712 206.477 109.891C206.234 110.083 205.998 110.287 205.768 110.504C205.218 110.722 204.688 110.964 204.177 111.233C203.679 111.514 203.18 111.82 202.682 112.153H202.203C202.037 112.255 201.883 112.338 201.743 112.402C201.602 112.466 201.436 112.498 201.245 112.498C200.989 112.664 200.708 112.798 200.401 112.9C200.095 113.015 199.782 113.117 199.462 113.207C199.143 113.296 198.823 113.379 198.504 113.456C198.184 113.532 197.884 113.622 197.603 113.724C197.539 113.711 197.475 113.692 197.411 113.667C197.36 113.654 197.303 113.647 197.239 113.647C197.06 113.647 196.894 113.686 196.741 113.762C196.6 113.839 196.447 113.897 196.281 113.935C196.23 113.961 196.172 113.967 196.108 113.954C196.044 113.954 195.987 113.954 195.936 113.954C195.603 113.954 195.303 113.897 195.035 113.782C194.767 113.679 194.479 113.596 194.172 113.532C194.096 113.366 193.987 113.207 193.847 113.053L193.425 112.593C193.284 112.44 193.163 112.28 193.061 112.114C192.946 111.961 192.876 111.788 192.85 111.597V111.405C192.85 111.265 192.837 111.124 192.812 110.983C192.786 110.843 192.754 110.702 192.716 110.562C192.805 110.332 192.895 110.089 192.984 109.834C193.074 109.578 193.169 109.329 193.272 109.086C193.374 108.831 193.489 108.588 193.617 108.358C193.744 108.128 193.904 107.93 194.096 107.764C194.16 107.483 194.262 107.227 194.402 106.997C194.53 106.754 194.677 106.524 194.843 106.307C194.997 106.077 195.15 105.847 195.303 105.617C195.457 105.387 195.584 105.138 195.687 104.87C195.75 104.882 195.789 104.87 195.801 104.831C195.827 104.793 195.846 104.755 195.859 104.716C195.885 104.665 195.91 104.627 195.936 104.601C195.961 104.576 196.012 104.576 196.089 104.601C196.089 104.473 196.115 104.371 196.166 104.295C196.217 104.205 196.268 104.122 196.319 104.045C196.383 103.969 196.434 103.892 196.472 103.815C196.523 103.726 196.555 103.624 196.568 103.509C196.658 103.47 196.728 103.413 196.779 103.336C196.843 103.26 196.9 103.183 196.951 103.106C197.003 103.017 197.054 102.934 197.105 102.857C197.156 102.781 197.233 102.723 197.335 102.685C197.36 102.519 197.405 102.378 197.469 102.263C197.546 102.135 197.622 102.02 197.699 101.918C197.788 101.816 197.871 101.714 197.948 101.611C198.037 101.496 198.108 101.369 198.159 101.228C198.236 101.164 198.325 101.145 198.427 101.171C198.606 100.813 198.817 100.474 199.06 100.155C199.302 99.8354 199.552 99.5224 199.807 99.2157C200.063 98.9091 200.318 98.6024 200.574 98.2958C200.829 97.9763 201.053 97.6441 201.245 97.2991C201.423 97.1969 201.59 97.0755 201.743 96.935C201.909 96.7817 202.043 96.6092 202.145 96.4175C201.89 95.932 201.666 95.4656 201.475 95.0184C201.283 94.5584 201.187 94.041 201.187 93.466C201.187 93.3766 201.193 93.2871 201.206 93.1977C201.219 93.1082 201.232 93.0124 201.245 92.9102C201.462 92.6163 201.673 92.3736 201.877 92.1819C202.081 91.9775 202.382 91.8752 202.778 91.8752C203.161 91.8752 203.532 91.9455 203.889 92.0861C204.26 92.2266 204.637 92.2969 205.02 92.2969C205.212 92.4374 205.404 92.5652 205.595 92.6802C205.8 92.7824 206.01 92.8846 206.228 92.9869L206.477 93.0827C206.579 93.1082 206.668 93.1402 206.745 93.1785C206.822 93.2296 206.898 93.2871 206.975 93.351C207.065 93.4149 207.148 93.4788 207.224 93.5427C207.735 93.9643 208.208 94.4243 208.643 94.9226C209.09 95.4081 209.531 95.9064 209.965 96.4175V96.4558C209.965 96.6603 210.01 96.82 210.099 96.935C210.189 97.0372 210.284 97.1586 210.387 97.2991C210.387 97.5291 210.419 97.7336 210.482 97.9124C210.546 98.0913 210.629 98.2766 210.732 98.4682C210.732 98.6471 210.732 98.8324 210.732 99.0241C210.744 99.2029 210.776 99.3818 210.827 99.5607C210.879 99.6885 210.91 99.7843 210.923 99.8482C210.974 100.027 211 100.257 211 100.538V101.266ZM209.447 101.247C209.447 100.877 209.422 100.538 209.371 100.231C209.332 99.9121 209.281 99.5735 209.217 99.2157C209.166 98.9091 209.102 98.6024 209.026 98.2958C208.962 97.9891 208.86 97.6952 208.719 97.4141C208.591 97.133 208.419 96.8775 208.202 96.6475C207.997 96.4175 207.742 96.2195 207.435 96.0534H207.378C207.339 96.0534 207.295 96.0853 207.243 96.1492C207.205 96.2003 207.116 96.2259 206.975 96.2259C206.898 96.2259 206.822 96.2131 206.745 96.1875C206.681 96.1492 206.617 96.1364 206.553 96.1492H206.477C206.323 96.2259 206.189 96.2834 206.074 96.3217C205.959 96.36 205.812 96.3664 205.634 96.3409C205.442 96.5197 205.237 96.6858 205.02 96.8392C204.816 96.9797 204.586 97.0883 204.33 97.165C204.215 97.395 204.068 97.5994 203.889 97.7783C203.711 97.9444 203.493 98.0594 203.238 98.1233C203.187 98.2766 203.11 98.4107 203.008 98.5257C202.918 98.628 202.816 98.7238 202.701 98.8132C202.586 98.8899 202.465 98.9666 202.337 99.0432C202.209 99.1199 202.094 99.2029 201.992 99.2924C201.89 99.3946 201.807 99.5032 201.743 99.6182C201.692 99.7204 201.615 99.8162 201.513 99.9057C201.372 100.033 201.245 100.155 201.13 100.27C201.027 100.385 200.925 100.519 200.823 100.672C200.733 100.813 200.644 100.953 200.555 101.094C200.478 101.234 200.433 101.394 200.42 101.573C200.05 101.79 199.756 102.071 199.539 102.416L198.887 103.451C198.798 103.579 198.708 103.694 198.619 103.796L198.351 104.103C198.312 104.154 198.287 104.212 198.274 104.275C198.274 104.339 198.28 104.403 198.293 104.467C198.114 104.595 197.961 104.748 197.833 104.927C197.705 105.093 197.584 105.272 197.469 105.464C197.367 105.655 197.252 105.847 197.124 106.039C197.009 106.218 196.868 106.377 196.702 106.518C196.6 106.773 196.479 107.035 196.338 107.304C196.21 107.559 196.038 107.776 195.821 107.955C195.603 108.492 195.393 109.022 195.188 109.546C194.997 110.07 194.862 110.619 194.786 111.194C194.875 111.284 194.965 111.36 195.054 111.424C195.143 111.501 195.233 111.584 195.322 111.673C195.335 111.686 195.361 111.693 195.399 111.693C195.463 111.693 195.508 111.673 195.533 111.635C195.572 111.597 195.616 111.578 195.667 111.578C195.693 111.578 195.706 111.578 195.706 111.578L195.744 111.597C195.757 111.686 195.795 111.75 195.859 111.788C195.923 111.827 196 111.852 196.089 111.865C196.178 111.891 196.268 111.91 196.357 111.923C196.447 111.935 196.517 111.967 196.568 112.018C196.849 111.929 197.162 111.859 197.507 111.808C197.852 111.769 198.191 111.718 198.523 111.654C198.868 111.603 199.2 111.526 199.52 111.424C199.839 111.322 200.114 111.175 200.344 110.983H200.555C200.682 110.983 200.772 111.009 200.823 111.06C201.066 110.817 201.308 110.632 201.551 110.504C201.794 110.377 202.081 110.306 202.414 110.293C202.899 109.846 203.449 109.489 204.062 109.22C204.688 108.939 205.282 108.632 205.844 108.3C205.908 108.275 205.94 108.23 205.94 108.166C205.94 108.089 205.972 108.045 206.036 108.032C206.1 108.019 206.151 108.019 206.189 108.032C206.24 108.032 206.292 108.032 206.343 108.032C206.79 107.598 207.218 107.157 207.627 106.709C208.048 106.25 208.419 105.751 208.738 105.215C208.738 105.125 208.745 105.048 208.758 104.985C208.783 104.908 208.796 104.838 208.796 104.774C208.796 104.748 208.789 104.723 208.777 104.697C208.764 104.659 208.751 104.627 208.738 104.601C208.994 104.09 209.173 103.547 209.275 102.972C209.39 102.384 209.447 101.809 209.447 101.247ZM205.02 94.3476C204.854 94.2326 204.656 94.1304 204.426 94.041C204.196 93.9388 203.979 93.8876 203.774 93.8876C203.557 93.8876 203.398 93.9515 203.295 94.0793C203.206 94.1943 203.161 94.354 203.161 94.5584C203.161 94.6734 203.193 94.7693 203.257 94.8459C203.321 94.9098 203.334 95.0376 203.295 95.2292C203.334 95.2548 203.385 95.2676 203.449 95.2676C203.602 95.2676 203.749 95.2356 203.889 95.1717C204.03 95.1079 204.158 95.0312 204.273 94.9418C204.401 94.8395 204.522 94.7373 204.637 94.6351C204.765 94.5201 204.892 94.4243 205.02 94.3476Z" stroke="#292B2D" mask="url(#path-26-outside-1_509_2175)"/>
<mask id="path-27-outside-2_509_2175" maskUnits="userSpaceOnUse" x="174.792" y="90.8752" width="20" height="24" fill="black">
<rect fill="white" x="174.792" y="90.8752" width="20" height="24"/>
<path d="M194.077 101.266C194.077 102.071 194 102.857 193.847 103.624C193.706 104.378 193.534 105.138 193.329 105.905C193.189 106.045 193.08 106.192 193.003 106.345C192.927 106.486 192.895 106.658 192.907 106.863C192.754 106.901 192.652 106.997 192.601 107.15C192.55 107.291 192.492 107.425 192.428 107.553C192.211 107.693 192.019 107.859 191.853 108.051C191.7 108.23 191.534 108.409 191.355 108.588C191.304 108.639 191.253 108.696 191.202 108.76C191.163 108.824 191.119 108.875 191.068 108.914C190.953 109.003 190.825 109.086 190.684 109.163C190.544 109.227 190.416 109.297 190.301 109.374C190.045 109.54 189.796 109.712 189.553 109.891C189.311 110.083 189.074 110.287 188.844 110.504C188.295 110.722 187.765 110.964 187.254 111.233C186.755 111.514 186.257 111.82 185.759 112.153H185.28C185.113 112.255 184.96 112.338 184.82 112.402C184.679 112.466 184.513 112.498 184.321 112.498C184.066 112.664 183.785 112.798 183.478 112.9C183.171 113.015 182.858 113.117 182.539 113.207C182.219 113.296 181.9 113.379 181.581 113.456C181.261 113.532 180.961 113.622 180.68 113.724C180.616 113.711 180.552 113.692 180.488 113.667C180.437 113.654 180.379 113.647 180.316 113.647C180.137 113.647 179.971 113.686 179.817 113.762C179.677 113.839 179.523 113.897 179.357 113.935C179.306 113.961 179.249 113.967 179.185 113.954C179.121 113.954 179.063 113.954 179.012 113.954C178.68 113.954 178.38 113.897 178.112 113.782C177.843 113.679 177.556 113.596 177.249 113.532C177.172 113.366 177.064 113.207 176.923 113.053L176.502 112.593C176.361 112.44 176.24 112.28 176.137 112.114C176.022 111.961 175.952 111.788 175.927 111.597V111.405C175.927 111.265 175.914 111.124 175.888 110.983C175.863 110.843 175.831 110.702 175.792 110.562C175.882 110.332 175.971 110.089 176.061 109.834C176.15 109.578 176.246 109.329 176.348 109.086C176.451 108.831 176.565 108.588 176.693 108.358C176.821 108.128 176.981 107.93 177.172 107.764C177.236 107.483 177.339 107.227 177.479 106.997C177.607 106.754 177.754 106.524 177.92 106.307C178.073 106.077 178.227 105.847 178.38 105.617C178.533 105.387 178.661 105.138 178.763 104.87C178.827 104.882 178.865 104.87 178.878 104.831C178.904 104.793 178.923 104.755 178.936 104.716C178.961 104.665 178.987 104.627 179.012 104.601C179.038 104.576 179.089 104.576 179.166 104.601C179.166 104.473 179.191 104.371 179.242 104.295C179.293 104.205 179.345 104.122 179.396 104.045C179.46 103.969 179.511 103.892 179.549 103.815C179.6 103.726 179.632 103.624 179.645 103.509C179.734 103.47 179.805 103.413 179.856 103.336C179.919 103.26 179.977 103.183 180.028 103.106C180.079 103.017 180.13 102.934 180.181 102.857C180.233 102.781 180.309 102.723 180.411 102.685C180.437 102.519 180.482 102.378 180.546 102.263C180.622 102.135 180.699 102.02 180.776 101.918C180.865 101.816 180.948 101.714 181.025 101.611C181.114 101.496 181.184 101.369 181.236 101.228C181.312 101.164 181.402 101.145 181.504 101.171C181.683 100.813 181.894 100.474 182.136 100.155C182.379 99.8354 182.628 99.5224 182.884 99.2157C183.139 98.9091 183.395 98.6024 183.65 98.2958C183.906 97.9763 184.13 97.6441 184.321 97.2991C184.5 97.1969 184.666 97.0755 184.82 96.935C184.986 96.7817 185.12 96.6092 185.222 96.4175C184.966 95.932 184.743 95.4656 184.551 95.0184C184.36 94.5584 184.264 94.041 184.264 93.466C184.264 93.3766 184.27 93.2871 184.283 93.1977C184.296 93.1082 184.308 93.0124 184.321 92.9102C184.538 92.6163 184.749 92.3736 184.954 92.1819C185.158 91.9775 185.458 91.8752 185.854 91.8752C186.238 91.8752 186.608 91.9455 186.966 92.0861C187.337 92.2266 187.714 92.2969 188.097 92.2969C188.289 92.4374 188.48 92.5652 188.672 92.6802C188.876 92.7824 189.087 92.8846 189.304 92.9869L189.553 93.0827C189.656 93.1082 189.745 93.1402 189.822 93.1785C189.898 93.2296 189.975 93.2871 190.052 93.351C190.141 93.4149 190.224 93.4788 190.301 93.5427C190.812 93.9643 191.285 94.4243 191.719 94.9226C192.166 95.4081 192.607 95.9064 193.042 96.4175V96.4558C193.042 96.6603 193.086 96.82 193.176 96.935C193.265 97.0372 193.361 97.1586 193.463 97.2991C193.463 97.5291 193.495 97.7336 193.559 97.9124C193.623 98.0913 193.706 98.2766 193.808 98.4682C193.808 98.6471 193.808 98.8324 193.808 99.0241C193.821 99.2029 193.853 99.3818 193.904 99.5607C193.955 99.6885 193.987 99.7843 194 99.8482C194.051 100.027 194.077 100.257 194.077 100.538V101.266ZM192.524 101.247C192.524 100.877 192.499 100.538 192.447 100.231C192.409 99.9121 192.358 99.5735 192.294 99.2157C192.243 98.9091 192.179 98.6024 192.102 98.2958C192.039 97.9891 191.936 97.6952 191.796 97.4141C191.668 97.133 191.496 96.8775 191.278 96.6475C191.074 96.4175 190.818 96.2195 190.512 96.0534H190.454C190.416 96.0534 190.371 96.0853 190.32 96.1492C190.282 96.2003 190.192 96.2259 190.052 96.2259C189.975 96.2259 189.898 96.2131 189.822 96.1875C189.758 96.1492 189.694 96.1364 189.63 96.1492H189.553C189.4 96.2259 189.266 96.2834 189.151 96.3217C189.036 96.36 188.889 96.3664 188.71 96.3409C188.519 96.5197 188.314 96.6858 188.097 96.8392C187.892 96.9797 187.662 97.0883 187.407 97.165C187.292 97.395 187.145 97.5994 186.966 97.7783C186.787 97.9444 186.57 98.0594 186.314 98.1233C186.263 98.2766 186.187 98.4107 186.084 98.5257C185.995 98.628 185.893 98.7238 185.778 98.8132C185.663 98.8899 185.541 98.9666 185.414 99.0432C185.286 99.1199 185.171 99.2029 185.069 99.2924C184.966 99.3946 184.883 99.5032 184.82 99.6182C184.768 99.7204 184.692 99.8162 184.59 99.9057C184.449 100.033 184.321 100.155 184.206 100.27C184.104 100.385 184.002 100.519 183.9 100.672C183.81 100.813 183.721 100.953 183.631 101.094C183.555 101.234 183.51 101.394 183.497 101.573C183.127 101.79 182.833 102.071 182.615 102.416L181.964 103.451C181.874 103.579 181.785 103.694 181.696 103.796L181.427 104.103C181.389 104.154 181.363 104.212 181.351 104.275C181.351 104.339 181.357 104.403 181.37 104.467C181.191 104.595 181.037 104.748 180.91 104.927C180.782 105.093 180.661 105.272 180.546 105.464C180.443 105.655 180.328 105.847 180.201 106.039C180.086 106.218 179.945 106.377 179.779 106.518C179.677 106.773 179.555 107.035 179.415 107.304C179.287 107.559 179.115 107.776 178.897 107.955C178.68 108.492 178.469 109.022 178.265 109.546C178.073 110.07 177.939 110.619 177.862 111.194C177.952 111.284 178.041 111.36 178.131 111.424C178.22 111.501 178.31 111.584 178.399 111.673C178.412 111.686 178.437 111.693 178.476 111.693C178.54 111.693 178.584 111.673 178.61 111.635C178.648 111.597 178.693 111.578 178.744 111.578C178.77 111.578 178.782 111.578 178.782 111.578L178.821 111.597C178.833 111.686 178.872 111.75 178.936 111.788C179 111.827 179.076 111.852 179.166 111.865C179.255 111.891 179.345 111.91 179.434 111.923C179.523 111.935 179.594 111.967 179.645 112.018C179.926 111.929 180.239 111.859 180.584 111.808C180.929 111.769 181.267 111.718 181.6 111.654C181.945 111.603 182.277 111.526 182.596 111.424C182.916 111.322 183.19 111.175 183.42 110.983H183.631C183.759 110.983 183.848 111.009 183.9 111.06C184.142 110.817 184.385 110.632 184.628 110.504C184.871 110.377 185.158 110.306 185.49 110.293C185.976 109.846 186.525 109.489 187.139 109.22C187.765 108.939 188.359 108.632 188.921 108.3C188.985 108.275 189.017 108.23 189.017 108.166C189.017 108.089 189.049 108.045 189.113 108.032C189.177 108.019 189.228 108.019 189.266 108.032C189.317 108.032 189.368 108.032 189.419 108.032C189.866 107.598 190.295 107.157 190.703 106.709C191.125 106.25 191.496 105.751 191.815 105.215C191.815 105.125 191.821 105.048 191.834 104.985C191.86 104.908 191.873 104.838 191.873 104.774C191.873 104.748 191.866 104.723 191.853 104.697C191.841 104.659 191.828 104.627 191.815 104.601C192.071 104.09 192.249 103.547 192.352 102.972C192.467 102.384 192.524 101.809 192.524 101.247ZM188.097 94.3476C187.931 94.2326 187.733 94.1304 187.503 94.041C187.273 93.9388 187.056 93.8876 186.851 93.8876C186.634 93.8876 186.474 93.9515 186.372 94.0793C186.283 94.1943 186.238 94.354 186.238 94.5584C186.238 94.6734 186.27 94.7693 186.334 94.8459C186.398 94.9098 186.41 95.0376 186.372 95.2292C186.41 95.2548 186.461 95.2676 186.525 95.2676C186.679 95.2676 186.826 95.2356 186.966 95.1717C187.107 95.1079 187.234 95.0312 187.349 94.9418C187.477 94.8395 187.599 94.7373 187.714 94.6351C187.841 94.5201 187.969 94.4243 188.097 94.3476Z"/>
</mask>
<path d="M194.077 101.266C194.077 102.071 194 102.857 193.847 103.624C193.706 104.378 193.534 105.138 193.329 105.905C193.189 106.045 193.08 106.192 193.003 106.345C192.927 106.486 192.895 106.658 192.907 106.863C192.754 106.901 192.652 106.997 192.601 107.15C192.55 107.291 192.492 107.425 192.428 107.553C192.211 107.693 192.019 107.859 191.853 108.051C191.7 108.23 191.534 108.409 191.355 108.588C191.304 108.639 191.253 108.696 191.202 108.76C191.163 108.824 191.119 108.875 191.068 108.914C190.953 109.003 190.825 109.086 190.684 109.163C190.544 109.227 190.416 109.297 190.301 109.374C190.045 109.54 189.796 109.712 189.553 109.891C189.311 110.083 189.074 110.287 188.844 110.504C188.295 110.722 187.765 110.964 187.254 111.233C186.755 111.514 186.257 111.82 185.759 112.153H185.28C185.113 112.255 184.96 112.338 184.82 112.402C184.679 112.466 184.513 112.498 184.321 112.498C184.066 112.664 183.785 112.798 183.478 112.9C183.171 113.015 182.858 113.117 182.539 113.207C182.219 113.296 181.9 113.379 181.581 113.456C181.261 113.532 180.961 113.622 180.68 113.724C180.616 113.711 180.552 113.692 180.488 113.667C180.437 113.654 180.379 113.647 180.316 113.647C180.137 113.647 179.971 113.686 179.817 113.762C179.677 113.839 179.523 113.897 179.357 113.935C179.306 113.961 179.249 113.967 179.185 113.954C179.121 113.954 179.063 113.954 179.012 113.954C178.68 113.954 178.38 113.897 178.112 113.782C177.843 113.679 177.556 113.596 177.249 113.532C177.172 113.366 177.064 113.207 176.923 113.053L176.502 112.593C176.361 112.44 176.24 112.28 176.137 112.114C176.022 111.961 175.952 111.788 175.927 111.597V111.405C175.927 111.265 175.914 111.124 175.888 110.983C175.863 110.843 175.831 110.702 175.792 110.562C175.882 110.332 175.971 110.089 176.061 109.834C176.15 109.578 176.246 109.329 176.348 109.086C176.451 108.831 176.565 108.588 176.693 108.358C176.821 108.128 176.981 107.93 177.172 107.764C177.236 107.483 177.339 107.227 177.479 106.997C177.607 106.754 177.754 106.524 177.92 106.307C178.073 106.077 178.227 105.847 178.38 105.617C178.533 105.387 178.661 105.138 178.763 104.87C178.827 104.882 178.865 104.87 178.878 104.831C178.904 104.793 178.923 104.755 178.936 104.716C178.961 104.665 178.987 104.627 179.012 104.601C179.038 104.576 179.089 104.576 179.166 104.601C179.166 104.473 179.191 104.371 179.242 104.295C179.293 104.205 179.345 104.122 179.396 104.045C179.46 103.969 179.511 103.892 179.549 103.815C179.6 103.726 179.632 103.624 179.645 103.509C179.734 103.47 179.805 103.413 179.856 103.336C179.919 103.26 179.977 103.183 180.028 103.106C180.079 103.017 180.13 102.934 180.181 102.857C180.233 102.781 180.309 102.723 180.411 102.685C180.437 102.519 180.482 102.378 180.546 102.263C180.622 102.135 180.699 102.02 180.776 101.918C180.865 101.816 180.948 101.714 181.025 101.611C181.114 101.496 181.184 101.369 181.236 101.228C181.312 101.164 181.402 101.145 181.504 101.171C181.683 100.813 181.894 100.474 182.136 100.155C182.379 99.8354 182.628 99.5224 182.884 99.2157C183.139 98.9091 183.395 98.6024 183.65 98.2958C183.906 97.9763 184.13 97.6441 184.321 97.2991C184.5 97.1969 184.666 97.0755 184.82 96.935C184.986 96.7817 185.12 96.6092 185.222 96.4175C184.966 95.932 184.743 95.4656 184.551 95.0184C184.36 94.5584 184.264 94.041 184.264 93.466C184.264 93.3766 184.27 93.2871 184.283 93.1977C184.296 93.1082 184.308 93.0124 184.321 92.9102C184.538 92.6163 184.749 92.3736 184.954 92.1819C185.158 91.9775 185.458 91.8752 185.854 91.8752C186.238 91.8752 186.608 91.9455 186.966 92.0861C187.337 92.2266 187.714 92.2969 188.097 92.2969C188.289 92.4374 188.48 92.5652 188.672 92.6802C188.876 92.7824 189.087 92.8846 189.304 92.9869L189.553 93.0827C189.656 93.1082 189.745 93.1402 189.822 93.1785C189.898 93.2296 189.975 93.2871 190.052 93.351C190.141 93.4149 190.224 93.4788 190.301 93.5427C190.812 93.9643 191.285 94.4243 191.719 94.9226C192.166 95.4081 192.607 95.9064 193.042 96.4175V96.4558C193.042 96.6603 193.086 96.82 193.176 96.935C193.265 97.0372 193.361 97.1586 193.463 97.2991C193.463 97.5291 193.495 97.7336 193.559 97.9124C193.623 98.0913 193.706 98.2766 193.808 98.4682C193.808 98.6471 193.808 98.8324 193.808 99.0241C193.821 99.2029 193.853 99.3818 193.904 99.5607C193.955 99.6885 193.987 99.7843 194 99.8482C194.051 100.027 194.077 100.257 194.077 100.538V101.266ZM192.524 101.247C192.524 100.877 192.499 100.538 192.447 100.231C192.409 99.9121 192.358 99.5735 192.294 99.2157C192.243 98.9091 192.179 98.6024 192.102 98.2958C192.039 97.9891 191.936 97.6952 191.796 97.4141C191.668 97.133 191.496 96.8775 191.278 96.6475C191.074 96.4175 190.818 96.2195 190.512 96.0534H190.454C190.416 96.0534 190.371 96.0853 190.32 96.1492C190.282 96.2003 190.192 96.2259 190.052 96.2259C189.975 96.2259 189.898 96.2131 189.822 96.1875C189.758 96.1492 189.694 96.1364 189.63 96.1492H189.553C189.4 96.2259 189.266 96.2834 189.151 96.3217C189.036 96.36 188.889 96.3664 188.71 96.3409C188.519 96.5197 188.314 96.6858 188.097 96.8392C187.892 96.9797 187.662 97.0883 187.407 97.165C187.292 97.395 187.145 97.5994 186.966 97.7783C186.787 97.9444 186.57 98.0594 186.314 98.1233C186.263 98.2766 186.187 98.4107 186.084 98.5257C185.995 98.628 185.893 98.7238 185.778 98.8132C185.663 98.8899 185.541 98.9666 185.414 99.0432C185.286 99.1199 185.171 99.2029 185.069 99.2924C184.966 99.3946 184.883 99.5032 184.82 99.6182C184.768 99.7204 184.692 99.8162 184.59 99.9057C184.449 100.033 184.321 100.155 184.206 100.27C184.104 100.385 184.002 100.519 183.9 100.672C183.81 100.813 183.721 100.953 183.631 101.094C183.555 101.234 183.51 101.394 183.497 101.573C183.127 101.79 182.833 102.071 182.615 102.416L181.964 103.451C181.874 103.579 181.785 103.694 181.696 103.796L181.427 104.103C181.389 104.154 181.363 104.212 181.351 104.275C181.351 104.339 181.357 104.403 181.37 104.467C181.191 104.595 181.037 104.748 180.91 104.927C180.782 105.093 180.661 105.272 180.546 105.464C180.443 105.655 180.328 105.847 180.201 106.039C180.086 106.218 179.945 106.377 179.779 106.518C179.677 106.773 179.555 107.035 179.415 107.304C179.287 107.559 179.115 107.776 178.897 107.955C178.68 108.492 178.469 109.022 178.265 109.546C178.073 110.07 177.939 110.619 177.862 111.194C177.952 111.284 178.041 111.36 178.131 111.424C178.22 111.501 178.31 111.584 178.399 111.673C178.412 111.686 178.437 111.693 178.476 111.693C178.54 111.693 178.584 111.673 178.61 111.635C178.648 111.597 178.693 111.578 178.744 111.578C178.77 111.578 178.782 111.578 178.782 111.578L178.821 111.597C178.833 111.686 178.872 111.75 178.936 111.788C179 111.827 179.076 111.852 179.166 111.865C179.255 111.891 179.345 111.91 179.434 111.923C179.523 111.935 179.594 111.967 179.645 112.018C179.926 111.929 180.239 111.859 180.584 111.808C180.929 111.769 181.267 111.718 181.6 111.654C181.945 111.603 182.277 111.526 182.596 111.424C182.916 111.322 183.19 111.175 183.42 110.983H183.631C183.759 110.983 183.848 111.009 183.9 111.06C184.142 110.817 184.385 110.632 184.628 110.504C184.871 110.377 185.158 110.306 185.49 110.293C185.976 109.846 186.525 109.489 187.139 109.22C187.765 108.939 188.359 108.632 188.921 108.3C188.985 108.275 189.017 108.23 189.017 108.166C189.017 108.089 189.049 108.045 189.113 108.032C189.177 108.019 189.228 108.019 189.266 108.032C189.317 108.032 189.368 108.032 189.419 108.032C189.866 107.598 190.295 107.157 190.703 106.709C191.125 106.25 191.496 105.751 191.815 105.215C191.815 105.125 191.821 105.048 191.834 104.985C191.86 104.908 191.873 104.838 191.873 104.774C191.873 104.748 191.866 104.723 191.853 104.697C191.841 104.659 191.828 104.627 191.815 104.601C192.071 104.09 192.249 103.547 192.352 102.972C192.467 102.384 192.524 101.809 192.524 101.247ZM188.097 94.3476C187.931 94.2326 187.733 94.1304 187.503 94.041C187.273 93.9388 187.056 93.8876 186.851 93.8876C186.634 93.8876 186.474 93.9515 186.372 94.0793C186.283 94.1943 186.238 94.354 186.238 94.5584C186.238 94.6734 186.27 94.7693 186.334 94.8459C186.398 94.9098 186.41 95.0376 186.372 95.2292C186.41 95.2548 186.461 95.2676 186.525 95.2676C186.679 95.2676 186.826 95.2356 186.966 95.1717C187.107 95.1079 187.234 95.0312 187.349 94.9418C187.477 94.8395 187.599 94.7373 187.714 94.6351C187.841 94.5201 187.969 94.4243 188.097 94.3476Z" fill="#292B2D"/>
<path d="M194.077 101.266C194.077 102.071 194 102.857 193.847 103.624C193.706 104.378 193.534 105.138 193.329 105.905C193.189 106.045 193.08 106.192 193.003 106.345C192.927 106.486 192.895 106.658 192.907 106.863C192.754 106.901 192.652 106.997 192.601 107.15C192.55 107.291 192.492 107.425 192.428 107.553C192.211 107.693 192.019 107.859 191.853 108.051C191.7 108.23 191.534 108.409 191.355 108.588C191.304 108.639 191.253 108.696 191.202 108.76C191.163 108.824 191.119 108.875 191.068 108.914C190.953 109.003 190.825 109.086 190.684 109.163C190.544 109.227 190.416 109.297 190.301 109.374C190.045 109.54 189.796 109.712 189.553 109.891C189.311 110.083 189.074 110.287 188.844 110.504C188.295 110.722 187.765 110.964 187.254 111.233C186.755 111.514 186.257 111.82 185.759 112.153H185.28C185.113 112.255 184.96 112.338 184.82 112.402C184.679 112.466 184.513 112.498 184.321 112.498C184.066 112.664 183.785 112.798 183.478 112.9C183.171 113.015 182.858 113.117 182.539 113.207C182.219 113.296 181.9 113.379 181.581 113.456C181.261 113.532 180.961 113.622 180.68 113.724C180.616 113.711 180.552 113.692 180.488 113.667C180.437 113.654 180.379 113.647 180.316 113.647C180.137 113.647 179.971 113.686 179.817 113.762C179.677 113.839 179.523 113.897 179.357 113.935C179.306 113.961 179.249 113.967 179.185 113.954C179.121 113.954 179.063 113.954 179.012 113.954C178.68 113.954 178.38 113.897 178.112 113.782C177.843 113.679 177.556 113.596 177.249 113.532C177.172 113.366 177.064 113.207 176.923 113.053L176.502 112.593C176.361 112.44 176.24 112.28 176.137 112.114C176.022 111.961 175.952 111.788 175.927 111.597V111.405C175.927 111.265 175.914 111.124 175.888 110.983C175.863 110.843 175.831 110.702 175.792 110.562C175.882 110.332 175.971 110.089 176.061 109.834C176.15 109.578 176.246 109.329 176.348 109.086C176.451 108.831 176.565 108.588 176.693 108.358C176.821 108.128 176.981 107.93 177.172 107.764C177.236 107.483 177.339 107.227 177.479 106.997C177.607 106.754 177.754 106.524 177.92 106.307C178.073 106.077 178.227 105.847 178.38 105.617C178.533 105.387 178.661 105.138 178.763 104.87C178.827 104.882 178.865 104.87 178.878 104.831C178.904 104.793 178.923 104.755 178.936 104.716C178.961 104.665 178.987 104.627 179.012 104.601C179.038 104.576 179.089 104.576 179.166 104.601C179.166 104.473 179.191 104.371 179.242 104.295C179.293 104.205 179.345 104.122 179.396 104.045C179.46 103.969 179.511 103.892 179.549 103.815C179.6 103.726 179.632 103.624 179.645 103.509C179.734 103.47 179.805 103.413 179.856 103.336C179.919 103.26 179.977 103.183 180.028 103.106C180.079 103.017 180.13 102.934 180.181 102.857C180.233 102.781 180.309 102.723 180.411 102.685C180.437 102.519 180.482 102.378 180.546 102.263C180.622 102.135 180.699 102.02 180.776 101.918C180.865 101.816 180.948 101.714 181.025 101.611C181.114 101.496 181.184 101.369 181.236 101.228C181.312 101.164 181.402 101.145 181.504 101.171C181.683 100.813 181.894 100.474 182.136 100.155C182.379 99.8354 182.628 99.5224 182.884 99.2157C183.139 98.9091 183.395 98.6024 183.65 98.2958C183.906 97.9763 184.13 97.6441 184.321 97.2991C184.5 97.1969 184.666 97.0755 184.82 96.935C184.986 96.7817 185.12 96.6092 185.222 96.4175C184.966 95.932 184.743 95.4656 184.551 95.0184C184.36 94.5584 184.264 94.041 184.264 93.466C184.264 93.3766 184.27 93.2871 184.283 93.1977C184.296 93.1082 184.308 93.0124 184.321 92.9102C184.538 92.6163 184.749 92.3736 184.954 92.1819C185.158 91.9775 185.458 91.8752 185.854 91.8752C186.238 91.8752 186.608 91.9455 186.966 92.0861C187.337 92.2266 187.714 92.2969 188.097 92.2969C188.289 92.4374 188.48 92.5652 188.672 92.6802C188.876 92.7824 189.087 92.8846 189.304 92.9869L189.553 93.0827C189.656 93.1082 189.745 93.1402 189.822 93.1785C189.898 93.2296 189.975 93.2871 190.052 93.351C190.141 93.4149 190.224 93.4788 190.301 93.5427C190.812 93.9643 191.285 94.4243 191.719 94.9226C192.166 95.4081 192.607 95.9064 193.042 96.4175V96.4558C193.042 96.6603 193.086 96.82 193.176 96.935C193.265 97.0372 193.361 97.1586 193.463 97.2991C193.463 97.5291 193.495 97.7336 193.559 97.9124C193.623 98.0913 193.706 98.2766 193.808 98.4682C193.808 98.6471 193.808 98.8324 193.808 99.0241C193.821 99.2029 193.853 99.3818 193.904 99.5607C193.955 99.6885 193.987 99.7843 194 99.8482C194.051 100.027 194.077 100.257 194.077 100.538V101.266ZM192.524 101.247C192.524 100.877 192.499 100.538 192.447 100.231C192.409 99.9121 192.358 99.5735 192.294 99.2157C192.243 98.9091 192.179 98.6024 192.102 98.2958C192.039 97.9891 191.936 97.6952 191.796 97.4141C191.668 97.133 191.496 96.8775 191.278 96.6475C191.074 96.4175 190.818 96.2195 190.512 96.0534H190.454C190.416 96.0534 190.371 96.0853 190.32 96.1492C190.282 96.2003 190.192 96.2259 190.052 96.2259C189.975 96.2259 189.898 96.2131 189.822 96.1875C189.758 96.1492 189.694 96.1364 189.63 96.1492H189.553C189.4 96.2259 189.266 96.2834 189.151 96.3217C189.036 96.36 188.889 96.3664 188.71 96.3409C188.519 96.5197 188.314 96.6858 188.097 96.8392C187.892 96.9797 187.662 97.0883 187.407 97.165C187.292 97.395 187.145 97.5994 186.966 97.7783C186.787 97.9444 186.57 98.0594 186.314 98.1233C186.263 98.2766 186.187 98.4107 186.084 98.5257C185.995 98.628 185.893 98.7238 185.778 98.8132C185.663 98.8899 185.541 98.9666 185.414 99.0432C185.286 99.1199 185.171 99.2029 185.069 99.2924C184.966 99.3946 184.883 99.5032 184.82 99.6182C184.768 99.7204 184.692 99.8162 184.59 99.9057C184.449 100.033 184.321 100.155 184.206 100.27C184.104 100.385 184.002 100.519 183.9 100.672C183.81 100.813 183.721 100.953 183.631 101.094C183.555 101.234 183.51 101.394 183.497 101.573C183.127 101.79 182.833 102.071 182.615 102.416L181.964 103.451C181.874 103.579 181.785 103.694 181.696 103.796L181.427 104.103C181.389 104.154 181.363 104.212 181.351 104.275C181.351 104.339 181.357 104.403 181.37 104.467C181.191 104.595 181.037 104.748 180.91 104.927C180.782 105.093 180.661 105.272 180.546 105.464C180.443 105.655 180.328 105.847 180.201 106.039C180.086 106.218 179.945 106.377 179.779 106.518C179.677 106.773 179.555 107.035 179.415 107.304C179.287 107.559 179.115 107.776 178.897 107.955C178.68 108.492 178.469 109.022 178.265 109.546C178.073 110.07 177.939 110.619 177.862 111.194C177.952 111.284 178.041 111.36 178.131 111.424C178.22 111.501 178.31 111.584 178.399 111.673C178.412 111.686 178.437 111.693 178.476 111.693C178.54 111.693 178.584 111.673 178.61 111.635C178.648 111.597 178.693 111.578 178.744 111.578C178.77 111.578 178.782 111.578 178.782 111.578L178.821 111.597C178.833 111.686 178.872 111.75 178.936 111.788C179 111.827 179.076 111.852 179.166 111.865C179.255 111.891 179.345 111.91 179.434 111.923C179.523 111.935 179.594 111.967 179.645 112.018C179.926 111.929 180.239 111.859 180.584 111.808C180.929 111.769 181.267 111.718 181.6 111.654C181.945 111.603 182.277 111.526 182.596 111.424C182.916 111.322 183.19 111.175 183.42 110.983H183.631C183.759 110.983 183.848 111.009 183.9 111.06C184.142 110.817 184.385 110.632 184.628 110.504C184.871 110.377 185.158 110.306 185.49 110.293C185.976 109.846 186.525 109.489 187.139 109.22C187.765 108.939 188.359 108.632 188.921 108.3C188.985 108.275 189.017 108.23 189.017 108.166C189.017 108.089 189.049 108.045 189.113 108.032C189.177 108.019 189.228 108.019 189.266 108.032C189.317 108.032 189.368 108.032 189.419 108.032C189.866 107.598 190.295 107.157 190.703 106.709C191.125 106.25 191.496 105.751 191.815 105.215C191.815 105.125 191.821 105.048 191.834 104.985C191.86 104.908 191.873 104.838 191.873 104.774C191.873 104.748 191.866 104.723 191.853 104.697C191.841 104.659 191.828 104.627 191.815 104.601C192.071 104.09 192.249 103.547 192.352 102.972C192.467 102.384 192.524 101.809 192.524 101.247ZM188.097 94.3476C187.931 94.2326 187.733 94.1304 187.503 94.041C187.273 93.9388 187.056 93.8876 186.851 93.8876C186.634 93.8876 186.474 93.9515 186.372 94.0793C186.283 94.1943 186.238 94.354 186.238 94.5584C186.238 94.6734 186.27 94.7693 186.334 94.8459C186.398 94.9098 186.41 95.0376 186.372 95.2292C186.41 95.2548 186.461 95.2676 186.525 95.2676C186.679 95.2676 186.826 95.2356 186.966 95.1717C187.107 95.1079 187.234 95.0312 187.349 94.9418C187.477 94.8395 187.599 94.7373 187.714 94.6351C187.841 94.5201 187.969 94.4243 188.097 94.3476Z" stroke="#292B2D" mask="url(#path-27-outside-2_509_2175)"/>
<mask id="path-28-outside-3_509_2175" maskUnits="userSpaceOnUse" x="160.438" y="88.4028" width="17" height="29" fill="black">
<rect fill="white" x="160.438" y="88.4028" width="17" height="29"/>
<path d="M176.578 90.3803C176.553 90.4953 176.508 90.6039 176.444 90.7061C176.38 90.8083 176.336 90.9233 176.31 91.0511C176.144 91.0511 175.984 91.0766 175.831 91.1277C175.678 91.1789 175.582 91.2938 175.543 91.4727H175.486C175.422 91.4727 175.377 91.4472 175.352 91.3961C175.339 91.345 175.301 91.3194 175.237 91.3194H175.218L175.198 91.3386C174.943 91.4152 174.687 91.4983 174.432 91.5877C174.176 91.6772 173.921 91.7602 173.665 91.8369C173.129 92.0158 172.592 92.1882 172.055 92.3543C171.531 92.5205 171.02 92.7313 170.522 92.9868H170.1C169.334 93.4851 168.535 93.9195 167.705 94.2901C166.887 94.6606 166.082 95.0695 165.29 95.5167C165.2 95.6572 165.098 95.7914 164.983 95.9192C164.868 96.0342 164.74 96.1555 164.6 96.2833C164.677 96.3472 164.715 96.4494 164.715 96.59C164.715 96.7688 164.696 96.9413 164.657 97.1074C164.619 97.2608 164.6 97.4205 164.6 97.5866C164.6 97.6888 164.619 97.7655 164.657 97.8166C164.696 97.8677 164.753 97.9252 164.83 97.9891C164.804 98.0657 164.772 98.136 164.734 98.1999L164.619 98.3724C164.581 98.4235 164.542 98.4938 164.504 98.5832C164.478 98.6726 164.466 98.794 164.466 98.9474C164.466 99.484 164.421 100.008 164.332 100.519C164.242 101.03 164.197 101.554 164.197 102.091C164.197 102.41 164.223 102.697 164.274 102.953C164.363 102.915 164.447 102.87 164.523 102.819C164.6 102.768 164.689 102.717 164.791 102.665C164.868 102.627 164.938 102.602 165.002 102.589C165.079 102.576 165.156 102.557 165.232 102.531C165.296 102.506 165.322 102.461 165.309 102.397C165.296 102.333 165.315 102.289 165.366 102.263C165.405 102.237 165.456 102.225 165.52 102.225C165.596 102.212 165.66 102.193 165.711 102.167C165.814 102.142 165.903 102.116 165.98 102.091C166.069 102.052 166.165 102.02 166.267 101.995C166.676 101.841 167.072 101.669 167.456 101.477C167.852 101.286 168.273 101.183 168.72 101.171C168.784 101.081 168.867 101.017 168.97 100.979C169.072 100.928 169.18 100.889 169.295 100.864C169.41 100.826 169.519 100.794 169.621 100.768C169.736 100.73 169.832 100.672 169.909 100.596C170.369 100.493 170.835 100.417 171.308 100.366C171.793 100.315 172.279 100.289 172.764 100.289C173.02 100.289 173.276 100.308 173.531 100.346C173.748 100.461 173.959 100.564 174.164 100.653C174.368 100.743 174.579 100.838 174.796 100.941C175.013 101.068 175.224 101.215 175.428 101.381C175.646 101.535 175.844 101.714 176.023 101.918C176.24 102.135 176.38 102.391 176.444 102.685C176.521 102.979 176.559 103.272 176.559 103.566C176.559 103.643 176.553 103.752 176.54 103.892C176.54 104.033 176.527 104.18 176.502 104.333C176.489 104.486 176.47 104.633 176.444 104.774C176.419 104.914 176.393 105.016 176.368 105.08C176.342 105.131 176.24 105.31 176.061 105.617C175.895 105.924 175.71 106.256 175.505 106.614C175.313 106.971 175.128 107.304 174.949 107.61C174.783 107.904 174.687 108.064 174.662 108.089C174.636 108.115 174.585 108.134 174.509 108.147C174.445 108.16 174.4 108.166 174.374 108.166C174.349 108.307 174.298 108.422 174.221 108.511C174.157 108.6 174.087 108.69 174.01 108.779C173.934 108.856 173.857 108.945 173.78 109.048C173.716 109.137 173.684 109.258 173.684 109.412C173.582 109.437 173.499 109.482 173.435 109.546C173.371 109.61 173.295 109.655 173.205 109.68C173.026 109.987 172.822 110.268 172.592 110.523C172.362 110.792 172.119 111.047 171.864 111.29L171.116 112.038C170.873 112.293 170.65 112.561 170.445 112.842H170.388C170.286 112.83 170.209 112.855 170.158 112.919C170.12 112.983 170.056 113.021 169.966 113.034C169.928 113.098 169.902 113.168 169.89 113.245C169.89 113.334 169.896 113.411 169.909 113.475H169.545C169.404 113.654 169.238 113.801 169.046 113.916C168.867 114.044 168.676 114.165 168.471 114.28C168.28 114.395 168.088 114.516 167.896 114.644C167.717 114.772 167.564 114.932 167.436 115.123C167.424 115.11 167.398 115.104 167.36 115.104C167.296 115.104 167.245 115.123 167.206 115.162C167.181 115.2 167.117 115.206 167.015 115.181C166.823 115.296 166.67 115.449 166.555 115.641C166.44 115.832 166.274 115.979 166.056 116.081C165.814 115.966 165.565 115.845 165.309 115.717C165.053 115.59 164.843 115.411 164.677 115.181C164.766 114.989 164.817 114.804 164.83 114.625C165.456 114.267 166.076 113.89 166.689 113.494C167.302 113.111 167.845 112.638 168.318 112.076C168.331 112.089 168.356 112.095 168.395 112.095C168.433 112.095 168.465 112.082 168.49 112.057C168.516 112.044 168.542 112.038 168.567 112.038C168.593 112.038 168.612 112.044 168.625 112.057C168.637 112.069 168.65 112.076 168.663 112.076C168.676 111.961 168.714 111.865 168.778 111.788C168.855 111.724 168.931 111.654 169.008 111.578C169.085 111.514 169.155 111.443 169.219 111.367C169.283 111.303 169.315 111.22 169.315 111.118C169.315 111.066 169.302 111.003 169.276 110.926C169.57 110.773 169.826 110.581 170.043 110.351C170.273 110.134 170.49 109.897 170.695 109.642C170.899 109.399 171.103 109.163 171.308 108.933C171.512 108.69 171.749 108.479 172.017 108.3V107.955C172.158 107.917 172.266 107.853 172.343 107.764C172.432 107.661 172.509 107.553 172.573 107.438C172.637 107.323 172.701 107.214 172.764 107.112C172.841 106.997 172.943 106.914 173.071 106.863C173.071 106.837 173.077 106.812 173.09 106.786C173.103 106.748 173.109 106.709 173.109 106.671C173.109 106.646 173.103 106.62 173.09 106.594C173.077 106.569 173.071 106.543 173.071 106.518H173.263C173.454 106.083 173.672 105.668 173.914 105.272C174.17 104.863 174.368 104.429 174.509 103.969C174.483 103.649 174.413 103.381 174.298 103.164C174.183 102.947 174.049 102.71 173.895 102.455C173.691 102.455 173.537 102.41 173.435 102.321C173.346 102.218 173.224 102.129 173.071 102.052C172.994 102.078 172.924 102.091 172.86 102.091C172.796 102.091 172.726 102.084 172.649 102.071C172.586 102.059 172.522 102.052 172.458 102.052C172.317 102.052 172.202 102.097 172.113 102.186H172.055C171.991 102.199 171.94 102.18 171.902 102.129C171.876 102.065 171.832 102.033 171.768 102.033C171.755 102.033 171.742 102.039 171.729 102.052C171.717 102.052 171.704 102.052 171.691 102.052C171.448 102.027 171.212 102.046 170.982 102.11C170.765 102.174 170.535 102.206 170.292 102.206C170.215 102.206 170.152 102.199 170.1 102.186C169.985 102.327 169.826 102.423 169.621 102.474C169.43 102.525 169.251 102.563 169.085 102.589C168.778 102.806 168.465 102.991 168.145 103.145C167.839 103.285 167.507 103.407 167.149 103.509C166.932 103.675 166.702 103.828 166.459 103.969C166.216 104.097 165.967 104.231 165.711 104.371C165.469 104.512 165.239 104.665 165.021 104.831C164.804 104.997 164.619 105.195 164.466 105.425V105.483C164.453 105.585 164.485 105.662 164.562 105.713C164.638 105.764 164.677 105.853 164.677 105.981C164.574 106.096 164.504 106.211 164.466 106.326C164.44 106.428 164.44 106.563 164.466 106.729L164.159 106.882C164.057 106.933 163.955 106.997 163.852 107.074C163.712 107.022 163.571 106.971 163.431 106.92C163.303 106.856 163.156 106.824 162.99 106.824C162.913 106.824 162.811 106.837 162.683 106.863C162.53 106.62 162.338 106.409 162.108 106.23C161.878 106.051 161.655 105.873 161.438 105.694C161.463 105.515 161.501 105.33 161.552 105.138C161.616 104.933 161.744 104.799 161.936 104.735C161.949 104.672 161.955 104.614 161.955 104.563V104.39C161.955 104.237 161.942 104.09 161.917 103.95C161.904 103.796 161.897 103.649 161.897 103.509C161.897 103.381 161.904 103.292 161.917 103.24C161.942 103.177 161.968 103.132 161.993 103.106C162.019 103.081 162.044 103.062 162.07 103.049C162.096 103.023 162.115 102.991 162.127 102.953C162.166 102.761 162.172 102.557 162.147 102.34C162.134 102.122 162.127 101.918 162.127 101.726C162.127 101.471 162.147 101.222 162.185 100.979C162.236 100.723 162.338 100.487 162.492 100.27C162.479 100.206 162.472 100.148 162.472 100.097V99.9248C162.472 99.3882 162.511 98.8579 162.587 98.334C162.677 97.8102 162.754 97.2799 162.817 96.7433C162.702 96.6027 162.562 96.4814 162.396 96.3791C162.242 96.2769 162.108 96.1492 161.993 95.9958C162.032 95.6253 162.14 95.325 162.319 95.095C162.511 94.8651 162.747 94.6351 163.028 94.4051V94.3476C163.028 94.2709 163.009 94.1943 162.971 94.1176C162.945 94.0409 162.932 93.9579 162.932 93.8684C162.932 93.8429 162.932 93.8237 162.932 93.8109C162.945 93.7854 162.952 93.7598 162.952 93.7343C163.105 93.6321 163.29 93.5362 163.507 93.4468C163.725 93.3574 163.923 93.3126 164.102 93.3126C164.217 93.3126 164.319 93.3382 164.408 93.3893C165.175 93.1082 165.929 92.7888 166.67 92.431C166.913 92.4182 167.155 92.3799 167.398 92.316C167.654 92.2521 167.871 92.1244 168.05 91.9327C168.177 91.8944 168.318 91.8624 168.471 91.8369C168.625 91.7985 168.778 91.7538 168.931 91.7027C169.085 91.6516 169.225 91.5941 169.353 91.5302C169.493 91.4536 169.608 91.3641 169.698 91.2619C169.787 91.3002 169.89 91.3194 170.005 91.3194C170.158 91.3194 170.311 91.2811 170.465 91.2044C170.631 91.115 170.765 91.0191 170.867 90.9169C170.893 90.9169 170.918 90.9233 170.944 90.9361C170.982 90.9361 171.02 90.9361 171.059 90.9361C171.186 90.9361 171.295 90.9105 171.384 90.8594C171.487 90.8083 171.589 90.7508 171.691 90.6869C171.806 90.6103 171.921 90.5464 172.036 90.4953C172.151 90.4442 172.292 90.4186 172.458 90.4186H172.573C172.624 90.4186 172.669 90.425 172.707 90.4378C172.886 90.3994 173.065 90.3356 173.244 90.2461C173.422 90.1567 173.601 90.112 173.78 90.112C173.908 90.112 174.01 90.1503 174.087 90.227C174.125 90.1631 174.176 90.0992 174.24 90.0353C174.304 89.9586 174.368 89.9075 174.432 89.882C174.483 89.8564 174.547 89.8436 174.624 89.8436C174.7 89.8309 174.77 89.8181 174.834 89.8053C174.898 89.7925 174.949 89.767 174.988 89.7286C175.039 89.6903 175.064 89.6328 175.064 89.5562C175.115 89.5817 175.167 89.5945 175.218 89.5945C175.282 89.5945 175.339 89.5753 175.39 89.537C175.454 89.4859 175.505 89.4412 175.543 89.4028C175.633 89.4284 175.697 89.4731 175.735 89.537C175.786 89.6009 175.831 89.6712 175.869 89.7478C175.92 89.8117 175.978 89.8692 176.042 89.9203C176.118 89.9714 176.227 89.9842 176.368 89.9586C176.393 90.1247 176.463 90.2653 176.578 90.3803Z"/>
</mask>
<path d="M176.578 90.3803C176.553 90.4953 176.508 90.6039 176.444 90.7061C176.38 90.8083 176.336 90.9233 176.31 91.0511C176.144 91.0511 175.984 91.0766 175.831 91.1277C175.678 91.1789 175.582 91.2938 175.543 91.4727H175.486C175.422 91.4727 175.377 91.4472 175.352 91.3961C175.339 91.345 175.301 91.3194 175.237 91.3194H175.218L175.198 91.3386C174.943 91.4152 174.687 91.4983 174.432 91.5877C174.176 91.6772 173.921 91.7602 173.665 91.8369C173.129 92.0158 172.592 92.1882 172.055 92.3543C171.531 92.5205 171.02 92.7313 170.522 92.9868H170.1C169.334 93.4851 168.535 93.9195 167.705 94.2901C166.887 94.6606 166.082 95.0695 165.29 95.5167C165.2 95.6572 165.098 95.7914 164.983 95.9192C164.868 96.0342 164.74 96.1555 164.6 96.2833C164.677 96.3472 164.715 96.4494 164.715 96.59C164.715 96.7688 164.696 96.9413 164.657 97.1074C164.619 97.2608 164.6 97.4205 164.6 97.5866C164.6 97.6888 164.619 97.7655 164.657 97.8166C164.696 97.8677 164.753 97.9252 164.83 97.9891C164.804 98.0657 164.772 98.136 164.734 98.1999L164.619 98.3724C164.581 98.4235 164.542 98.4938 164.504 98.5832C164.478 98.6726 164.466 98.794 164.466 98.9474C164.466 99.484 164.421 100.008 164.332 100.519C164.242 101.03 164.197 101.554 164.197 102.091C164.197 102.41 164.223 102.697 164.274 102.953C164.363 102.915 164.447 102.87 164.523 102.819C164.6 102.768 164.689 102.717 164.791 102.665C164.868 102.627 164.938 102.602 165.002 102.589C165.079 102.576 165.156 102.557 165.232 102.531C165.296 102.506 165.322 102.461 165.309 102.397C165.296 102.333 165.315 102.289 165.366 102.263C165.405 102.237 165.456 102.225 165.52 102.225C165.596 102.212 165.66 102.193 165.711 102.167C165.814 102.142 165.903 102.116 165.98 102.091C166.069 102.052 166.165 102.02 166.267 101.995C166.676 101.841 167.072 101.669 167.456 101.477C167.852 101.286 168.273 101.183 168.72 101.171C168.784 101.081 168.867 101.017 168.97 100.979C169.072 100.928 169.18 100.889 169.295 100.864C169.41 100.826 169.519 100.794 169.621 100.768C169.736 100.73 169.832 100.672 169.909 100.596C170.369 100.493 170.835 100.417 171.308 100.366C171.793 100.315 172.279 100.289 172.764 100.289C173.02 100.289 173.276 100.308 173.531 100.346C173.748 100.461 173.959 100.564 174.164 100.653C174.368 100.743 174.579 100.838 174.796 100.941C175.013 101.068 175.224 101.215 175.428 101.381C175.646 101.535 175.844 101.714 176.023 101.918C176.24 102.135 176.38 102.391 176.444 102.685C176.521 102.979 176.559 103.272 176.559 103.566C176.559 103.643 176.553 103.752 176.54 103.892C176.54 104.033 176.527 104.18 176.502 104.333C176.489 104.486 176.47 104.633 176.444 104.774C176.419 104.914 176.393 105.016 176.368 105.08C176.342 105.131 176.24 105.31 176.061 105.617C175.895 105.924 175.71 106.256 175.505 106.614C175.313 106.971 175.128 107.304 174.949 107.61C174.783 107.904 174.687 108.064 174.662 108.089C174.636 108.115 174.585 108.134 174.509 108.147C174.445 108.16 174.4 108.166 174.374 108.166C174.349 108.307 174.298 108.422 174.221 108.511C174.157 108.6 174.087 108.69 174.01 108.779C173.934 108.856 173.857 108.945 173.78 109.048C173.716 109.137 173.684 109.258 173.684 109.412C173.582 109.437 173.499 109.482 173.435 109.546C173.371 109.61 173.295 109.655 173.205 109.68C173.026 109.987 172.822 110.268 172.592 110.523C172.362 110.792 172.119 111.047 171.864 111.29L171.116 112.038C170.873 112.293 170.65 112.561 170.445 112.842H170.388C170.286 112.83 170.209 112.855 170.158 112.919C170.12 112.983 170.056 113.021 169.966 113.034C169.928 113.098 169.902 113.168 169.89 113.245C169.89 113.334 169.896 113.411 169.909 113.475H169.545C169.404 113.654 169.238 113.801 169.046 113.916C168.867 114.044 168.676 114.165 168.471 114.28C168.28 114.395 168.088 114.516 167.896 114.644C167.717 114.772 167.564 114.932 167.436 115.123C167.424 115.11 167.398 115.104 167.36 115.104C167.296 115.104 167.245 115.123 167.206 115.162C167.181 115.2 167.117 115.206 167.015 115.181C166.823 115.296 166.67 115.449 166.555 115.641C166.44 115.832 166.274 115.979 166.056 116.081C165.814 115.966 165.565 115.845 165.309 115.717C165.053 115.59 164.843 115.411 164.677 115.181C164.766 114.989 164.817 114.804 164.83 114.625C165.456 114.267 166.076 113.89 166.689 113.494C167.302 113.111 167.845 112.638 168.318 112.076C168.331 112.089 168.356 112.095 168.395 112.095C168.433 112.095 168.465 112.082 168.49 112.057C168.516 112.044 168.542 112.038 168.567 112.038C168.593 112.038 168.612 112.044 168.625 112.057C168.637 112.069 168.65 112.076 168.663 112.076C168.676 111.961 168.714 111.865 168.778 111.788C168.855 111.724 168.931 111.654 169.008 111.578C169.085 111.514 169.155 111.443 169.219 111.367C169.283 111.303 169.315 111.22 169.315 111.118C169.315 111.066 169.302 111.003 169.276 110.926C169.57 110.773 169.826 110.581 170.043 110.351C170.273 110.134 170.49 109.897 170.695 109.642C170.899 109.399 171.103 109.163 171.308 108.933C171.512 108.69 171.749 108.479 172.017 108.3V107.955C172.158 107.917 172.266 107.853 172.343 107.764C172.432 107.661 172.509 107.553 172.573 107.438C172.637 107.323 172.701 107.214 172.764 107.112C172.841 106.997 172.943 106.914 173.071 106.863C173.071 106.837 173.077 106.812 173.09 106.786C173.103 106.748 173.109 106.709 173.109 106.671C173.109 106.646 173.103 106.62 173.09 106.594C173.077 106.569 173.071 106.543 173.071 106.518H173.263C173.454 106.083 173.672 105.668 173.914 105.272C174.17 104.863 174.368 104.429 174.509 103.969C174.483 103.649 174.413 103.381 174.298 103.164C174.183 102.947 174.049 102.71 173.895 102.455C173.691 102.455 173.537 102.41 173.435 102.321C173.346 102.218 173.224 102.129 173.071 102.052C172.994 102.078 172.924 102.091 172.86 102.091C172.796 102.091 172.726 102.084 172.649 102.071C172.586 102.059 172.522 102.052 172.458 102.052C172.317 102.052 172.202 102.097 172.113 102.186H172.055C171.991 102.199 171.94 102.18 171.902 102.129C171.876 102.065 171.832 102.033 171.768 102.033C171.755 102.033 171.742 102.039 171.729 102.052C171.717 102.052 171.704 102.052 171.691 102.052C171.448 102.027 171.212 102.046 170.982 102.11C170.765 102.174 170.535 102.206 170.292 102.206C170.215 102.206 170.152 102.199 170.1 102.186C169.985 102.327 169.826 102.423 169.621 102.474C169.43 102.525 169.251 102.563 169.085 102.589C168.778 102.806 168.465 102.991 168.145 103.145C167.839 103.285 167.507 103.407 167.149 103.509C166.932 103.675 166.702 103.828 166.459 103.969C166.216 104.097 165.967 104.231 165.711 104.371C165.469 104.512 165.239 104.665 165.021 104.831C164.804 104.997 164.619 105.195 164.466 105.425V105.483C164.453 105.585 164.485 105.662 164.562 105.713C164.638 105.764 164.677 105.853 164.677 105.981C164.574 106.096 164.504 106.211 164.466 106.326C164.44 106.428 164.44 106.563 164.466 106.729L164.159 106.882C164.057 106.933 163.955 106.997 163.852 107.074C163.712 107.022 163.571 106.971 163.431 106.92C163.303 106.856 163.156 106.824 162.99 106.824C162.913 106.824 162.811 106.837 162.683 106.863C162.53 106.62 162.338 106.409 162.108 106.23C161.878 106.051 161.655 105.873 161.438 105.694C161.463 105.515 161.501 105.33 161.552 105.138C161.616 104.933 161.744 104.799 161.936 104.735C161.949 104.672 161.955 104.614 161.955 104.563V104.39C161.955 104.237 161.942 104.09 161.917 103.95C161.904 103.796 161.897 103.649 161.897 103.509C161.897 103.381 161.904 103.292 161.917 103.24C161.942 103.177 161.968 103.132 161.993 103.106C162.019 103.081 162.044 103.062 162.07 103.049C162.096 103.023 162.115 102.991 162.127 102.953C162.166 102.761 162.172 102.557 162.147 102.34C162.134 102.122 162.127 101.918 162.127 101.726C162.127 101.471 162.147 101.222 162.185 100.979C162.236 100.723 162.338 100.487 162.492 100.27C162.479 100.206 162.472 100.148 162.472 100.097V99.9248C162.472 99.3882 162.511 98.8579 162.587 98.334C162.677 97.8102 162.754 97.2799 162.817 96.7433C162.702 96.6027 162.562 96.4814 162.396 96.3791C162.242 96.2769 162.108 96.1492 161.993 95.9958C162.032 95.6253 162.14 95.325 162.319 95.095C162.511 94.8651 162.747 94.6351 163.028 94.4051V94.3476C163.028 94.2709 163.009 94.1943 162.971 94.1176C162.945 94.0409 162.932 93.9579 162.932 93.8684C162.932 93.8429 162.932 93.8237 162.932 93.8109C162.945 93.7854 162.952 93.7598 162.952 93.7343C163.105 93.6321 163.29 93.5362 163.507 93.4468C163.725 93.3574 163.923 93.3126 164.102 93.3126C164.217 93.3126 164.319 93.3382 164.408 93.3893C165.175 93.1082 165.929 92.7888 166.67 92.431C166.913 92.4182 167.155 92.3799 167.398 92.316C167.654 92.2521 167.871 92.1244 168.05 91.9327C168.177 91.8944 168.318 91.8624 168.471 91.8369C168.625 91.7985 168.778 91.7538 168.931 91.7027C169.085 91.6516 169.225 91.5941 169.353 91.5302C169.493 91.4536 169.608 91.3641 169.698 91.2619C169.787 91.3002 169.89 91.3194 170.005 91.3194C170.158 91.3194 170.311 91.2811 170.465 91.2044C170.631 91.115 170.765 91.0191 170.867 90.9169C170.893 90.9169 170.918 90.9233 170.944 90.9361C170.982 90.9361 171.02 90.9361 171.059 90.9361C171.186 90.9361 171.295 90.9105 171.384 90.8594C171.487 90.8083 171.589 90.7508 171.691 90.6869C171.806 90.6103 171.921 90.5464 172.036 90.4953C172.151 90.4442 172.292 90.4186 172.458 90.4186H172.573C172.624 90.4186 172.669 90.425 172.707 90.4378C172.886 90.3994 173.065 90.3356 173.244 90.2461C173.422 90.1567 173.601 90.112 173.78 90.112C173.908 90.112 174.01 90.1503 174.087 90.227C174.125 90.1631 174.176 90.0992 174.24 90.0353C174.304 89.9586 174.368 89.9075 174.432 89.882C174.483 89.8564 174.547 89.8436 174.624 89.8436C174.7 89.8309 174.77 89.8181 174.834 89.8053C174.898 89.7925 174.949 89.767 174.988 89.7286C175.039 89.6903 175.064 89.6328 175.064 89.5562C175.115 89.5817 175.167 89.5945 175.218 89.5945C175.282 89.5945 175.339 89.5753 175.39 89.537C175.454 89.4859 175.505 89.4412 175.543 89.4028C175.633 89.4284 175.697 89.4731 175.735 89.537C175.786 89.6009 175.831 89.6712 175.869 89.7478C175.92 89.8117 175.978 89.8692 176.042 89.9203C176.118 89.9714 176.227 89.9842 176.368 89.9586C176.393 90.1247 176.463 90.2653 176.578 90.3803Z" fill="#292B2D"/>
<path d="M176.578 90.3803C176.553 90.4953 176.508 90.6039 176.444 90.7061C176.38 90.8083 176.336 90.9233 176.31 91.0511C176.144 91.0511 175.984 91.0766 175.831 91.1277C175.678 91.1789 175.582 91.2938 175.543 91.4727H175.486C175.422 91.4727 175.377 91.4472 175.352 91.3961C175.339 91.345 175.301 91.3194 175.237 91.3194H175.218L175.198 91.3386C174.943 91.4152 174.687 91.4983 174.432 91.5877C174.176 91.6772 173.921 91.7602 173.665 91.8369C173.129 92.0158 172.592 92.1882 172.055 92.3543C171.531 92.5205 171.02 92.7313 170.522 92.9868H170.1C169.334 93.4851 168.535 93.9195 167.705 94.2901C166.887 94.6606 166.082 95.0695 165.29 95.5167C165.2 95.6572 165.098 95.7914 164.983 95.9192C164.868 96.0342 164.74 96.1555 164.6 96.2833C164.677 96.3472 164.715 96.4494 164.715 96.59C164.715 96.7688 164.696 96.9413 164.657 97.1074C164.619 97.2608 164.6 97.4205 164.6 97.5866C164.6 97.6888 164.619 97.7655 164.657 97.8166C164.696 97.8677 164.753 97.9252 164.83 97.9891C164.804 98.0657 164.772 98.136 164.734 98.1999L164.619 98.3724C164.581 98.4235 164.542 98.4938 164.504 98.5832C164.478 98.6726 164.466 98.794 164.466 98.9474C164.466 99.484 164.421 100.008 164.332 100.519C164.242 101.03 164.197 101.554 164.197 102.091C164.197 102.41 164.223 102.697 164.274 102.953C164.363 102.915 164.447 102.87 164.523 102.819C164.6 102.768 164.689 102.717 164.791 102.665C164.868 102.627 164.938 102.602 165.002 102.589C165.079 102.576 165.156 102.557 165.232 102.531C165.296 102.506 165.322 102.461 165.309 102.397C165.296 102.333 165.315 102.289 165.366 102.263C165.405 102.237 165.456 102.225 165.52 102.225C165.596 102.212 165.66 102.193 165.711 102.167C165.814 102.142 165.903 102.116 165.98 102.091C166.069 102.052 166.165 102.02 166.267 101.995C166.676 101.841 167.072 101.669 167.456 101.477C167.852 101.286 168.273 101.183 168.72 101.171C168.784 101.081 168.867 101.017 168.97 100.979C169.072 100.928 169.18 100.889 169.295 100.864C169.41 100.826 169.519 100.794 169.621 100.768C169.736 100.73 169.832 100.672 169.909 100.596C170.369 100.493 170.835 100.417 171.308 100.366C171.793 100.315 172.279 100.289 172.764 100.289C173.02 100.289 173.276 100.308 173.531 100.346C173.748 100.461 173.959 100.564 174.164 100.653C174.368 100.743 174.579 100.838 174.796 100.941C175.013 101.068 175.224 101.215 175.428 101.381C175.646 101.535 175.844 101.714 176.023 101.918C176.24 102.135 176.38 102.391 176.444 102.685C176.521 102.979 176.559 103.272 176.559 103.566C176.559 103.643 176.553 103.752 176.54 103.892C176.54 104.033 176.527 104.18 176.502 104.333C176.489 104.486 176.47 104.633 176.444 104.774C176.419 104.914 176.393 105.016 176.368 105.08C176.342 105.131 176.24 105.31 176.061 105.617C175.895 105.924 175.71 106.256 175.505 106.614C175.313 106.971 175.128 107.304 174.949 107.61C174.783 107.904 174.687 108.064 174.662 108.089C174.636 108.115 174.585 108.134 174.509 108.147C174.445 108.16 174.4 108.166 174.374 108.166C174.349 108.307 174.298 108.422 174.221 108.511C174.157 108.6 174.087 108.69 174.01 108.779C173.934 108.856 173.857 108.945 173.78 109.048C173.716 109.137 173.684 109.258 173.684 109.412C173.582 109.437 173.499 109.482 173.435 109.546C173.371 109.61 173.295 109.655 173.205 109.68C173.026 109.987 172.822 110.268 172.592 110.523C172.362 110.792 172.119 111.047 171.864 111.29L171.116 112.038C170.873 112.293 170.65 112.561 170.445 112.842H170.388C170.286 112.83 170.209 112.855 170.158 112.919C170.12 112.983 170.056 113.021 169.966 113.034C169.928 113.098 169.902 113.168 169.89 113.245C169.89 113.334 169.896 113.411 169.909 113.475H169.545C169.404 113.654 169.238 113.801 169.046 113.916C168.867 114.044 168.676 114.165 168.471 114.28C168.28 114.395 168.088 114.516 167.896 114.644C167.717 114.772 167.564 114.932 167.436 115.123C167.424 115.11 167.398 115.104 167.36 115.104C167.296 115.104 167.245 115.123 167.206 115.162C167.181 115.2 167.117 115.206 167.015 115.181C166.823 115.296 166.67 115.449 166.555 115.641C166.44 115.832 166.274 115.979 166.056 116.081C165.814 115.966 165.565 115.845 165.309 115.717C165.053 115.59 164.843 115.411 164.677 115.181C164.766 114.989 164.817 114.804 164.83 114.625C165.456 114.267 166.076 113.89 166.689 113.494C167.302 113.111 167.845 112.638 168.318 112.076C168.331 112.089 168.356 112.095 168.395 112.095C168.433 112.095 168.465 112.082 168.49 112.057C168.516 112.044 168.542 112.038 168.567 112.038C168.593 112.038 168.612 112.044 168.625 112.057C168.637 112.069 168.65 112.076 168.663 112.076C168.676 111.961 168.714 111.865 168.778 111.788C168.855 111.724 168.931 111.654 169.008 111.578C169.085 111.514 169.155 111.443 169.219 111.367C169.283 111.303 169.315 111.22 169.315 111.118C169.315 111.066 169.302 111.003 169.276 110.926C169.57 110.773 169.826 110.581 170.043 110.351C170.273 110.134 170.49 109.897 170.695 109.642C170.899 109.399 171.103 109.163 171.308 108.933C171.512 108.69 171.749 108.479 172.017 108.3V107.955C172.158 107.917 172.266 107.853 172.343 107.764C172.432 107.661 172.509 107.553 172.573 107.438C172.637 107.323 172.701 107.214 172.764 107.112C172.841 106.997 172.943 106.914 173.071 106.863C173.071 106.837 173.077 106.812 173.09 106.786C173.103 106.748 173.109 106.709 173.109 106.671C173.109 106.646 173.103 106.62 173.09 106.594C173.077 106.569 173.071 106.543 173.071 106.518H173.263C173.454 106.083 173.672 105.668 173.914 105.272C174.17 104.863 174.368 104.429 174.509 103.969C174.483 103.649 174.413 103.381 174.298 103.164C174.183 102.947 174.049 102.71 173.895 102.455C173.691 102.455 173.537 102.41 173.435 102.321C173.346 102.218 173.224 102.129 173.071 102.052C172.994 102.078 172.924 102.091 172.86 102.091C172.796 102.091 172.726 102.084 172.649 102.071C172.586 102.059 172.522 102.052 172.458 102.052C172.317 102.052 172.202 102.097 172.113 102.186H172.055C171.991 102.199 171.94 102.18 171.902 102.129C171.876 102.065 171.832 102.033 171.768 102.033C171.755 102.033 171.742 102.039 171.729 102.052C171.717 102.052 171.704 102.052 171.691 102.052C171.448 102.027 171.212 102.046 170.982 102.11C170.765 102.174 170.535 102.206 170.292 102.206C170.215 102.206 170.152 102.199 170.1 102.186C169.985 102.327 169.826 102.423 169.621 102.474C169.43 102.525 169.251 102.563 169.085 102.589C168.778 102.806 168.465 102.991 168.145 103.145C167.839 103.285 167.507 103.407 167.149 103.509C166.932 103.675 166.702 103.828 166.459 103.969C166.216 104.097 165.967 104.231 165.711 104.371C165.469 104.512 165.239 104.665 165.021 104.831C164.804 104.997 164.619 105.195 164.466 105.425V105.483C164.453 105.585 164.485 105.662 164.562 105.713C164.638 105.764 164.677 105.853 164.677 105.981C164.574 106.096 164.504 106.211 164.466 106.326C164.44 106.428 164.44 106.563 164.466 106.729L164.159 106.882C164.057 106.933 163.955 106.997 163.852 107.074C163.712 107.022 163.571 106.971 163.431 106.92C163.303 106.856 163.156 106.824 162.99 106.824C162.913 106.824 162.811 106.837 162.683 106.863C162.53 106.62 162.338 106.409 162.108 106.23C161.878 106.051 161.655 105.873 161.438 105.694C161.463 105.515 161.501 105.33 161.552 105.138C161.616 104.933 161.744 104.799 161.936 104.735C161.949 104.672 161.955 104.614 161.955 104.563V104.39C161.955 104.237 161.942 104.09 161.917 103.95C161.904 103.796 161.897 103.649 161.897 103.509C161.897 103.381 161.904 103.292 161.917 103.24C161.942 103.177 161.968 103.132 161.993 103.106C162.019 103.081 162.044 103.062 162.07 103.049C162.096 103.023 162.115 102.991 162.127 102.953C162.166 102.761 162.172 102.557 162.147 102.34C162.134 102.122 162.127 101.918 162.127 101.726C162.127 101.471 162.147 101.222 162.185 100.979C162.236 100.723 162.338 100.487 162.492 100.27C162.479 100.206 162.472 100.148 162.472 100.097V99.9248C162.472 99.3882 162.511 98.8579 162.587 98.334C162.677 97.8102 162.754 97.2799 162.817 96.7433C162.702 96.6027 162.562 96.4814 162.396 96.3791C162.242 96.2769 162.108 96.1492 161.993 95.9958C162.032 95.6253 162.14 95.325 162.319 95.095C162.511 94.8651 162.747 94.6351 163.028 94.4051V94.3476C163.028 94.2709 163.009 94.1943 162.971 94.1176C162.945 94.0409 162.932 93.9579 162.932 93.8684C162.932 93.8429 162.932 93.8237 162.932 93.8109C162.945 93.7854 162.952 93.7598 162.952 93.7343C163.105 93.6321 163.29 93.5362 163.507 93.4468C163.725 93.3574 163.923 93.3126 164.102 93.3126C164.217 93.3126 164.319 93.3382 164.408 93.3893C165.175 93.1082 165.929 92.7888 166.67 92.431C166.913 92.4182 167.155 92.3799 167.398 92.316C167.654 92.2521 167.871 92.1244 168.05 91.9327C168.177 91.8944 168.318 91.8624 168.471 91.8369C168.625 91.7985 168.778 91.7538 168.931 91.7027C169.085 91.6516 169.225 91.5941 169.353 91.5302C169.493 91.4536 169.608 91.3641 169.698 91.2619C169.787 91.3002 169.89 91.3194 170.005 91.3194C170.158 91.3194 170.311 91.2811 170.465 91.2044C170.631 91.115 170.765 91.0191 170.867 90.9169C170.893 90.9169 170.918 90.9233 170.944 90.9361C170.982 90.9361 171.02 90.9361 171.059 90.9361C171.186 90.9361 171.295 90.9105 171.384 90.8594C171.487 90.8083 171.589 90.7508 171.691 90.6869C171.806 90.6103 171.921 90.5464 172.036 90.4953C172.151 90.4442 172.292 90.4186 172.458 90.4186H172.573C172.624 90.4186 172.669 90.425 172.707 90.4378C172.886 90.3994 173.065 90.3356 173.244 90.2461C173.422 90.1567 173.601 90.112 173.78 90.112C173.908 90.112 174.01 90.1503 174.087 90.227C174.125 90.1631 174.176 90.0992 174.24 90.0353C174.304 89.9586 174.368 89.9075 174.432 89.882C174.483 89.8564 174.547 89.8436 174.624 89.8436C174.7 89.8309 174.77 89.8181 174.834 89.8053C174.898 89.7925 174.949 89.767 174.988 89.7286C175.039 89.6903 175.064 89.6328 175.064 89.5562C175.115 89.5817 175.167 89.5945 175.218 89.5945C175.282 89.5945 175.339 89.5753 175.39 89.537C175.454 89.4859 175.505 89.4412 175.543 89.4028C175.633 89.4284 175.697 89.4731 175.735 89.537C175.786 89.6009 175.831 89.6712 175.869 89.7478C175.92 89.8117 175.978 89.8692 176.042 89.9203C176.118 89.9714 176.227 89.9842 176.368 89.9586C176.393 90.1247 176.463 90.2653 176.578 90.3803Z" stroke="#292B2D" mask="url(#path-28-outside-3_509_2175)"/>
<defs>
<clipPath id="clip0_509_2175">
<rect width="335" height="94" fill="white"/>
</clipPath>
</defs>
</svg>
