<svg width="209" height="244" viewBox="0 0 209 244" fill="none" xmlns="http://www.w3.org/2000/svg">
<g clip-path="url(#clip0_507_1645)">
<path d="M159.332 182.41C159.242 186.6 159.194 190.777 159.153 194.961C159.112 199.034 159.077 203.107 159.029 207.188L159.008 209.059C158.981 211.708 158.96 214.351 158.933 217C158.898 220.647 158.864 224.286 158.823 227.933C158.795 230.651 158.795 233.383 158.678 236.108C158.637 237.03 158.582 237.959 158.513 238.881C158.513 238.908 158.506 238.943 158.506 238.977C158.41 240.216 156.546 240.037 156.332 238.963C156.319 238.922 156.312 238.867 156.312 238.819C156.257 237.945 156.215 237.078 156.195 236.204C156.098 232.901 156.195 229.592 156.222 226.289C156.263 220.571 156.332 214.846 156.387 209.128C156.401 207.903 156.415 206.665 156.422 205.44C156.49 197.816 156.546 190.199 156.525 182.575C156.518 180.759 159.373 180.614 159.332 182.41Z" fill="#292B2D"/>
<path d="M140.042 169.323C139.017 170.169 139.389 171.304 140.4 171.999C141.727 172.908 143.571 173.128 145.078 173.63C146.742 174.187 148.366 174.841 149.955 175.612C151.51 176.362 153.016 177.222 154.447 178.199C155.176 178.701 155.899 179.217 156.594 179.761C157.288 180.298 157.846 180.924 158.479 181.522C159.559 182.561 158.1 184.082 156.938 183.215C153.567 180.683 149.797 178.474 145.848 176.967C142.691 175.756 137.875 175.495 136.651 171.71C136.403 170.933 136.375 170.224 136.527 169.584C137.07 167.155 140.076 165.731 142.47 165.359C144.232 165.091 146.006 165.112 147.774 165.263C150.278 165.49 152.776 166.006 155.225 166.412C156.965 166.694 158.706 166.914 160.474 166.914H160.811C161.76 166.901 162.675 166.791 163.576 166.625V166.701C163.638 167.671 163.824 168.655 164.216 169.55C163.184 169.763 162.118 169.859 161.031 169.866C159.215 169.88 157.399 169.674 155.727 169.433C151.84 168.882 147.967 167.85 144.018 168.125C142.67 168.222 141.129 168.421 140.049 169.309L140.042 169.323Z" fill="#292B2D"/>
<path d="M38.3107 239.479C38.1663 239.878 38.008 240.278 37.8498 240.677C37.726 240.216 37.8773 239.706 38.3107 239.479Z" fill="#292B2D"/>
<path d="M66.4539 238.667C66.2819 239.555 66.1031 240.449 65.9105 241.337C64.8854 241.358 63.8604 241.372 62.8423 241.378C62.9661 240.498 63.1106 239.624 63.255 238.736C64.3213 238.716 65.3945 238.688 66.4539 238.667Z" fill="#292B2D"/>
<path d="M158.678 236.115C158.637 237.037 158.582 237.966 158.513 238.888C157.791 238.922 157.055 238.943 156.332 238.963C138.088 239.617 119.838 240.167 101.587 240.622C92.0245 240.849 82.4692 241.069 72.907 241.227C72.2466 241.241 71.5861 241.255 70.9257 241.261C70.8294 241.138 70.7606 240.986 70.7125 240.807C70.5198 240.064 70.5336 239.321 70.568 238.571C71.5517 238.55 72.5424 238.53 73.5192 238.509C73.6362 238.509 73.7394 238.502 73.8563 238.502C86.2597 238.22 98.6699 237.938 111.073 237.601C111.754 237.587 112.442 237.573 113.13 237.546C114.96 237.505 116.79 237.45 118.62 237.394C119.439 237.381 120.257 237.36 121.083 237.333C126.215 237.188 131.36 237.037 136.492 236.872C143.055 236.665 149.625 236.438 156.181 236.211C157.006 236.183 157.839 236.156 158.664 236.115H158.678Z" fill="#292B2D"/>
<path d="M191.361 224.004C190.997 220.296 190.646 216.58 190.316 212.864C189.655 205.433 189.071 198.002 188.562 190.557C188.273 186.305 188.011 182.052 187.77 177.793C187.667 175.997 184.867 176.148 184.971 177.958C185.837 192.965 186.986 207.965 188.527 222.924C188.961 227.135 189.229 231.429 190.027 235.585C190.295 236.982 192.455 236.472 192.407 235.138C192.283 231.429 191.712 227.699 191.355 224.004H191.361Z" fill="#292B2D"/>
<path d="M34.0527 177.518C34.1146 177.697 34.1284 177.869 34.1009 178.02C34.1009 177.965 34.094 177.896 34.0871 177.841C34.0803 177.745 34.0665 177.642 34.0527 177.518Z" fill="#292B2D"/>
<path d="M79.0155 178.502C78.4927 179.788 76.7247 180.387 75.5759 180.986C74.2757 181.653 72.9617 182.279 71.634 182.899C69.0268 184.137 66.392 185.328 63.7366 186.456C60.4483 187.846 57.1256 189.153 53.7685 190.364C52.7916 190.722 51.8148 191.066 50.8379 191.403C50.0949 190.894 48.9667 191.107 48.1756 191.355C47.3983 191.582 46.6415 191.871 45.8848 192.181C45.135 191.424 45.1281 189.889 46.4489 189.47C47.7422 189.057 49.0287 188.63 50.322 188.19C54.4633 186.779 58.5634 185.224 62.6084 183.552C65.2638 182.458 67.8848 181.302 70.4852 180.077C71.7647 179.479 73.0168 178.86 74.2963 178.254C74.7297 178.054 75.1837 177.786 75.6653 177.545C73.8492 172.213 72.0399 166.88 70.2238 161.541C69.4189 159.187 68.6209 156.834 67.8229 154.481C67.0799 152.265 66.4814 149.933 65.5527 147.779C65.2294 147.036 64.8098 146.313 63.9017 146.362C62.8836 146.403 61.8517 147.043 60.9367 147.449C58.6459 148.467 56.362 149.485 54.0712 150.497C45.2726 154.385 36.4808 158.265 27.6891 162.146C29.2094 165.648 30.7091 169.158 32.14 172.694C32.4977 173.568 32.8485 174.442 33.1925 175.323C33.165 175.309 33.1444 175.295 33.1168 175.282C32.6422 175.054 31.7754 176.362 31.452 176.754C31.4039 176.809 31.3489 176.878 31.3076 176.933C30.8742 176.038 30.4477 175.137 30.0212 174.243C28.1018 170.142 26.2582 166.006 24.4489 161.864C24.1118 161.093 24.7172 160.343 25.3639 160.054C30.8123 157.646 36.2676 155.238 41.7228 152.829C46.6347 150.662 51.5327 148.481 56.4445 146.334C57.7035 145.79 58.9624 145.24 60.2144 144.69C61.2463 144.228 62.2851 143.726 63.427 143.595C65.8485 143.3 67.417 144.965 68.2701 147.036C69.24 149.382 69.9692 151.852 70.7879 154.261C71.6272 156.731 72.4664 159.194 73.3057 161.658C75.0255 166.701 76.7385 171.752 78.4514 176.788C78.4789 176.878 78.4996 176.96 78.5133 177.05C79.0499 177.298 79.2425 177.931 79.0086 178.502H79.0155Z" fill="#292B2D"/>
<path d="M53.7548 194.561C53.5484 194.974 53.287 195.36 52.998 195.711C51.7942 197.121 49.978 198.043 48.4233 198.972L42.9543 202.275L42.6241 202.474C42.5828 202.495 41.4408 203.183 41.4408 203.183L41.0693 203.403C40.8423 203.541 40.6084 203.603 40.3952 203.61C39.6109 203.651 38.9643 202.984 38.8748 202.268C38.8129 201.793 38.9849 201.305 39.5215 200.981C42.1838 199.385 44.8392 197.789 47.5015 196.199C48.5678 195.552 49.7785 194.967 50.6453 194.045C51.1957 193.461 51.7667 192.353 51.12 191.63C51.0374 191.534 50.948 191.458 50.8448 191.403C50.1019 190.894 48.9737 191.107 48.1825 191.355C47.4052 191.582 46.6485 191.871 45.8917 192.181C45.2588 192.421 44.6397 192.69 44.0137 192.931C43.0712 193.295 42.1425 193.66 41.2 194.032C40.3401 194.369 39.4871 194.706 38.6272 195.043C37.7466 195.387 36.8661 195.731 35.9787 196.075C35.4283 197.142 34.8917 198.222 34.3895 199.302C33.963 200.204 33.5571 201.112 33.1719 202.027C32.0575 204.635 31.0875 207.305 30.2757 210.029C29.7323 211.86 29.065 214.296 30.943 215.596C32.367 216.58 34.3895 216.724 36.0543 217.027C36.2194 217.055 36.357 217.117 36.4671 217.186C37.3408 217.729 37.045 219.312 35.8824 219.387C35.2426 219.429 34.5822 219.442 33.9286 219.408C32.4221 219.332 30.9224 219.002 29.6291 218.218C27.7441 217.075 26.8154 215.3 26.726 213.257C26.6985 212.802 26.7191 212.341 26.7742 211.867C26.953 210.387 27.3933 208.908 27.9092 207.449C28.2601 206.424 28.6453 205.419 29.0099 204.442C29.6703 202.639 30.3927 200.864 31.1838 199.117C31.4727 198.47 31.7617 197.83 32.0712 197.204C32.3601 196.598 32.6491 196 32.9586 195.401C33.055 195.222 33.1375 195.016 33.2407 194.809C33.454 194.355 33.7085 193.894 34.1006 193.639C34.5822 193.33 35.2495 193.165 35.7792 192.958C36.2951 192.759 36.8111 192.559 37.327 192.353C37.4783 192.298 37.6297 192.236 37.781 192.181C38.4758 191.905 39.1707 191.637 39.8723 191.369C41.7229 190.639 43.5734 189.917 45.4308 189.201C46.9924 188.589 48.6916 188.004 50.3358 188.19C50.9755 188.252 51.5878 188.438 52.1932 188.775C52.9017 189.167 53.4314 189.724 53.7754 190.357C54.4565 191.596 54.4496 193.172 53.7617 194.555L53.7548 194.561Z" fill="#292B2D"/>
<path d="M41.5511 202.268C41.5717 202.488 41.5442 202.715 41.4961 202.942C41.4754 203.018 41.4548 203.107 41.4342 203.183C41.3722 203.41 41.2897 203.644 41.2278 203.864C41.0902 204.332 40.987 204.807 40.8976 205.282C40.8838 205.378 40.8701 205.461 40.8632 205.557C40.8357 205.736 40.7737 205.922 40.8081 206.032C40.8013 206.19 40.8013 206.321 40.8013 206.452C40.8013 206.954 40.8357 207.456 40.9182 207.958C40.9457 208.124 40.932 208.289 40.8907 208.44C40.7256 209.025 40.1064 209.458 39.5286 209.52C38.6893 209.596 38.0702 208.887 37.967 208.124C37.8088 206.988 37.85 205.818 38.0564 204.697C38.1734 204.085 38.3522 203.507 38.5792 202.935C38.6687 202.722 38.7581 202.488 38.8819 202.275C39.0952 201.876 39.3772 201.504 39.7625 201.298C40.2303 201.036 40.7325 201.091 41.0833 201.36C41.331 201.546 41.5167 201.841 41.5649 202.213C41.5649 202.261 41.5717 202.261 41.5717 202.261L41.5511 202.268Z" fill="#292B2D"/>
<path d="M71.5587 210.662C70.5749 216.029 69.5774 221.397 68.5868 226.764C67.8576 230.713 67.2316 234.711 66.4474 238.66C66.2754 239.548 66.0965 240.443 65.9039 241.33C65.7938 241.839 65.6838 242.355 65.5599 242.865C65.1403 244.716 62.4436 244.124 62.6981 242.273C62.7394 241.97 62.7876 241.667 62.8357 241.371C62.9596 240.491 63.104 239.617 63.2485 238.729C63.9915 234.291 64.9408 229.874 65.7663 225.449C66.6744 220.55 67.5824 215.651 68.4905 210.745C69.144 207.25 70.4511 201.422 66.3992 199.35C64.5074 198.373 62.2028 199.227 60.3661 199.942C58.1509 200.802 55.9495 201.745 53.7619 202.681C49.4555 204.545 45.2454 206.713 40.877 208.433C40.6913 208.509 40.4986 208.584 40.3129 208.653C38.999 209.156 38.1253 207.195 39.281 206.472C39.7969 206.149 40.3129 205.839 40.8426 205.557C42.9133 204.387 45.0803 203.403 47.2197 202.406C49.9164 201.146 52.6337 199.928 55.3786 198.779C58.7563 197.362 62.9183 195.215 66.5781 196.254C67.4036 196.488 68.2016 196.88 68.9514 197.472C72.9758 200.651 72.3704 206.211 71.5518 210.656L71.5587 210.662Z" fill="#292B2D"/>
<path d="M52.0625 217.777C50.7279 218.383 49.1457 218.637 47.7217 218.933C47.1163 219.057 46.5178 219.167 45.9124 219.277C45.025 219.429 44.1376 219.559 43.2364 219.663C43.0644 219.683 42.8924 219.704 42.7135 219.711C41.3996 219.862 40.0788 219.945 38.7579 219.952C37.2995 219.965 35.676 220.034 34.2864 219.573C34.1557 219.532 34.0387 219.47 33.9287 219.408C33.626 219.215 33.4127 218.926 33.3852 218.534C33.3646 218.08 33.6879 217.495 34.1695 217.399C34.9193 217.247 35.6967 217.199 36.474 217.186C37.1826 217.172 37.898 217.179 38.6066 217.151C40.0581 217.096 41.4959 217 42.9337 216.835C44.3508 216.669 45.768 216.449 47.1644 216.147C48.6435 215.83 50.0813 215.321 51.5672 215.08C52.2551 214.963 52.8743 215.589 52.9912 216.208C53.1426 216.931 52.6954 217.502 52.0763 217.777H52.0625Z" fill="#292B2D"/>
<path d="M45.9122 219.277C45.9122 220.172 45.527 221.004 45.1899 221.878L44.0479 224.858C43.2774 226.846 42.4863 228.814 41.709 230.796C40.9041 232.826 40.1061 234.862 39.3012 236.892C38.9641 237.745 38.6408 238.612 38.3175 239.472C38.1661 239.871 38.0079 240.271 37.8497 240.67C37.5607 241.392 37.2649 242.115 36.9347 242.816C36.1918 244.399 33.44 243.484 33.9973 241.784C34.6714 239.699 35.5795 237.663 36.3913 235.605C37.1755 233.631 37.9529 231.656 38.744 229.674C39.5489 227.644 40.3331 225.608 41.1517 223.578C41.5507 222.594 41.9566 221.61 42.3487 220.633C42.4726 220.33 42.5895 220.014 42.7133 219.718C43.0091 219.043 43.3531 218.403 43.9722 217.984C44.6602 217.612 45.6302 217.688 45.8365 218.651C45.8847 218.864 45.9053 219.071 45.9053 219.284L45.9122 219.277Z" fill="#292B2D"/>
<path d="M36.8041 179.61C36.7284 181.034 36.4395 182.424 36.0611 183.793C35.724 185.004 35.3113 186.194 34.8985 187.378C34.871 187.447 34.8504 187.529 34.8229 187.598C34.0386 189.841 33.2544 192.367 33.2337 194.809C33.22 196.378 33.5295 197.912 34.3895 199.309C33.9629 200.211 33.5571 201.119 33.1718 202.034C33.0274 201.979 32.8967 201.883 32.7866 201.745C32.078 200.933 31.5483 200.052 31.1768 199.117C29.8629 195.814 30.5027 191.912 31.6171 188.541C32.133 186.965 32.7315 185.417 33.2131 183.834C33.4332 183.119 33.6396 182.382 33.7978 181.646C33.9217 181.075 34.0111 180.497 34.0661 179.919C34.1349 179.293 34.1556 178.653 34.1074 178.02C34.1074 177.965 34.1005 177.896 34.0937 177.841C34.0868 177.745 34.073 177.642 34.0593 177.518C33.9836 176.802 33.7841 175.687 33.1993 175.33C33.1718 175.316 33.1512 175.302 33.1237 175.288C32.649 175.061 31.7822 176.369 31.4589 176.761C31.4107 176.816 31.3557 176.885 31.3144 176.94C30.7572 177.628 30.2412 178.343 29.7803 179.114C28.6659 180.958 27.8129 182.967 27.2281 185.038C25.983 189.463 25.8454 194.059 26.3407 198.621C26.6159 201.119 27.0699 203.589 27.5927 206.052C27.6959 206.52 27.7991 206.981 27.9092 207.449C28.3907 209.541 28.9067 211.626 29.1818 213.759C29.3469 215.059 27.4895 215.238 27.063 214.158C26.9392 213.855 26.8291 213.552 26.7259 213.257C25.7353 210.552 25.1024 207.69 24.5452 204.883C23.9398 201.855 23.4789 198.793 23.3413 195.711C23.128 190.853 23.7403 185.947 25.5633 181.426C26.4164 179.286 27.579 177.277 28.9961 175.474C29.3057 175.082 29.6565 174.655 30.028 174.256C30.6609 173.589 31.3694 172.997 32.1468 172.715C32.9586 172.412 33.8391 172.474 34.7541 173.169C36.6528 174.593 36.9417 177.421 36.811 179.616L36.8041 179.61Z" fill="#292B2D"/>
<path d="M30.0764 215.507C29.8975 216.284 28.6455 216.663 28.164 215.837C27.4967 214.688 26.8225 213.566 26.1827 212.417C25.7356 211.619 25.3091 210.807 24.9032 209.974C23.947 207.986 23.032 205.984 22.2202 203.94C22.0964 203.637 21.9864 203.334 21.8694 203.032C21.0439 200.878 20.3284 198.649 19.7781 196.392C18.5605 191.431 18.1202 186.277 19.0489 181.24C19.6199 178.13 20.6518 174.125 23.9126 172.797C26.4648 171.758 30.5236 173.809 29.7049 176.926C29.3059 178.474 26.8569 178.426 26.8225 176.72C26.8087 175.928 26.1208 175.433 25.2678 175.57C24.1465 175.742 23.4723 177.091 23.087 178.013C21.9107 180.779 21.5805 184.054 21.5874 187.027C21.5942 190.227 22.062 193.405 22.8669 196.495C23.259 198.002 23.7199 199.488 24.2359 200.947C24.628 202.082 25.0614 203.197 25.5154 204.312C25.7149 204.821 25.9282 205.33 26.1483 205.839C26.7881 207.339 27.4623 208.818 28.1296 210.298C28.8244 211.832 29.3954 213.387 30.0351 214.935C30.1177 215.135 30.1314 215.321 30.0833 215.493L30.0764 215.507Z" fill="#292B2D"/>
<path d="M28.9068 217.75C26.4096 216.298 24.1051 214.447 21.8555 212.644C19.6954 210.91 17.611 209.059 15.7398 207.016C12.4515 203.424 9.7067 199.213 8.35148 194.493C7.40902 191.21 6.02628 184.151 10.4565 182.63C12.8093 181.825 15.1207 183.449 16.132 185.499C17.1776 187.619 17.5216 190.048 18.1958 192.291C18.6085 193.688 19.0901 195.091 19.7642 196.378C20.1701 197.169 20.6448 197.905 21.2158 198.58C21.8555 199.357 22.6398 200.087 23.5203 200.596C23.7542 200.733 23.995 200.857 24.2289 200.954C24.621 202.089 25.0544 203.204 25.5085 204.318C24.2495 204.277 22.9838 203.747 21.8762 203.025C21.1745 202.571 20.5278 202.048 19.9844 201.518C18.2783 199.86 17.102 197.809 16.242 195.607C15.389 193.419 14.8731 191.128 14.2539 188.871C13.9925 187.928 13.7517 186.882 13.112 186.119C12.7198 185.637 11.9769 185.121 11.3302 185.424C10.0025 186.043 10.3465 188.761 10.4428 189.869C10.6217 192.029 11.1926 194.121 12.0113 196.123C13.6623 200.162 16.3934 203.665 19.4822 206.692C21.1539 208.344 22.9425 209.871 24.7793 211.33C25.2402 211.695 25.7011 212.052 26.1757 212.403C27.4966 213.408 28.838 214.392 30.0694 215.493C30.1451 215.555 30.2277 215.63 30.3033 215.699C31.3283 216.642 30.1313 218.452 28.9 217.736L28.9068 217.75Z" fill="#292B2D"/>
<path d="M113.66 233.156C112.828 233.362 111.981 233.569 111.128 233.775C106.526 234.849 101.704 235.688 97.0808 234.621C88.8119 232.716 83.8588 225.092 82.5173 217.124C81.74 212.52 82.3385 207.745 83.5217 203.259C84.8219 198.325 86.7619 193.454 89.1421 188.947C89.72 187.839 91.5292 188.224 91.6668 189.284C91.6874 189.449 91.6668 189.621 91.6049 189.807C90.7794 192.174 89.8438 194.506 88.9426 196.846C87.9451 199.461 86.9958 202.096 86.3422 204.834C84.5467 212.252 84.9113 220.564 89.9607 226.688C92.3341 229.564 95.5742 231.312 99.2547 231.842C103.589 232.468 108.005 231.47 112.208 230.452L112.745 230.321C114.596 229.867 115.531 232.695 113.66 233.156Z" fill="#292B2D"/>
<path d="M184.709 143.465C183.32 144.07 181.903 144.614 180.541 145.226C178.346 146.217 176.186 147.29 174.067 148.433C170.827 150.167 167.05 152.052 165.379 155.534C164.856 156.6 164.553 157.763 164.34 158.933C163.212 159.366 162.09 159.793 160.969 160.226C158.286 161.252 155.61 162.27 152.941 163.295C145.828 166.013 138.728 168.738 131.615 171.463C130.04 172.054 128.464 172.66 126.896 173.265C123.043 174.738 119.218 176.197 115.373 177.662C114.561 177.979 113.749 178.288 112.945 178.598C112.346 178.825 111.754 179.052 111.156 179.279C106.54 181.041 101.91 182.802 97.2873 184.55C96.9433 184.681 96.5993 184.811 96.2554 184.942C92.1691 186.49 88.0896 188.045 84.0102 189.607C82.9921 189.993 81.9739 190.385 80.9627 190.77C77.1515 192.229 73.3542 193.681 69.543 195.133C68.5593 195.504 67.5756 195.883 66.5987 196.268C58.3435 199.454 50.1228 202.729 41.7575 205.585C41.4136 205.702 41.104 205.688 40.8632 205.571C40.1753 205.261 39.9208 204.27 40.3954 203.617C40.533 203.431 40.7188 203.273 40.9664 203.163C41.1453 203.087 41.3242 203.011 41.503 202.942C41.8607 202.784 42.2185 202.64 42.5762 202.495C42.927 202.337 43.2435 202.206 43.553 202.082C43.3467 202.144 43.154 202.22 42.9477 202.275C42.817 202.316 42.6863 202.364 42.5693 202.399C42.1634 202.529 41.8126 202.454 41.558 202.268C41.2622 202.062 41.0903 201.724 41.0696 201.367C41.0283 200.885 41.2554 200.376 41.8263 200.135C45.4999 198.545 49.2422 197.128 52.9846 195.718C54.5186 195.153 56.0321 194.582 57.5524 194.004C62.6981 192.05 67.8576 190.11 72.9964 188.142C91.543 181.055 110.014 173.768 128.416 166.309C140.475 161.424 152.494 156.435 164.477 151.364C170.779 148.708 177.073 146.024 183.361 143.32C183.87 143.107 184.338 143.203 184.709 143.472V143.465Z" fill="#292B2D"/>
<path d="M111.149 179.279C111.066 179.341 110.963 179.403 110.853 179.444C105.996 181.522 101.456 184.027 97.4454 187.502C94.2603 190.254 91.3985 193.419 88.9426 196.846C88.3303 197.699 87.7456 198.566 87.1815 199.454C86.4454 200.63 84.5673 199.736 85.2277 198.456C86.9544 195.119 89.1352 192.05 91.6668 189.291C92.905 187.935 94.2327 186.655 95.6292 185.458C95.8287 185.286 96.0351 185.114 96.2484 184.942C100.321 181.557 105.006 178.598 110.007 176.85C111.575 176.307 112.332 178.426 111.149 179.272V179.279Z" fill="#292B2D"/>
<path d="M134.917 194.259C134.49 194.548 133.913 194.63 133.438 194.458C132.915 194.266 132.53 193.88 132.131 193.495C132.041 193.406 131.959 193.323 131.863 193.233C131.381 192.793 130.899 192.36 130.411 191.926C129.517 191.142 128.609 190.378 127.694 189.614C125.85 188.107 123.958 186.676 122.005 185.314C120.085 183.979 118.09 182.761 116.143 181.454C114.912 180.621 113.77 179.733 112.917 178.584C112.546 178.082 112.222 177.538 111.968 176.926C111.479 175.749 113.378 174.862 113.976 175.97C114.334 176.637 114.809 177.181 115.345 177.648C116.267 178.447 117.389 179.025 118.455 179.63C120.546 180.814 122.562 182.121 124.529 183.497C126.483 184.86 128.382 186.298 130.218 187.798C131.133 188.548 132.041 189.332 132.929 190.123C133.809 190.922 134.889 191.678 135.357 192.793C135.632 193.433 135.364 193.956 134.896 194.252L134.917 194.259Z" fill="#292B2D"/>
<path d="M135.04 192.924C135.02 193.371 134.979 193.811 134.917 194.259C134.49 197.417 133.176 200.548 131.8 203.362C128.952 209.156 125.031 214.337 121.488 219.711C119.727 222.387 118.042 225.119 116.631 227.995C115.386 230.562 114.499 233.176 113.832 235.929C113.797 236.218 113.715 236.493 113.618 236.789C113.508 237.112 113.343 237.36 113.137 237.539C112.538 238.076 111.637 238.062 111.08 237.594C110.729 237.291 110.516 236.81 110.612 236.17C110.743 235.365 110.915 234.566 111.121 233.775C111.41 232.654 111.775 231.546 112.194 230.452C112.793 228.89 113.494 227.369 114.231 225.91C117.12 220.22 121 215.121 124.494 209.809C126.242 207.133 127.913 204.401 129.296 201.511C129.95 200.142 130.555 198.738 131.05 197.293C131.484 196.048 131.773 194.768 132.124 193.502C132.192 193.24 132.268 192.993 132.344 192.731C132.543 192.071 133.059 191.61 133.768 191.665C134.38 191.706 135.061 192.249 135.02 192.931L135.04 192.924Z" fill="#292B2D"/>
<path d="M159.008 209.066C158.616 209.527 157.928 209.761 157.22 209.479C156.938 209.362 156.662 209.252 156.387 209.128C155.981 208.956 155.575 208.777 155.176 208.605C154.365 208.247 153.546 207.917 152.672 207.69C152.459 207.635 152.239 207.573 152.019 207.532C150.21 207.16 148.387 207.119 146.557 207.318C139.891 208.041 134.408 212.424 130.507 217.653C128.354 220.543 126.669 223.777 125.238 227.08C123.759 230.452 122.679 234.016 121.096 237.332C120.993 237.539 120.897 237.745 120.794 237.952C120.237 239.066 118.606 238.523 118.634 237.401C118.634 237.339 118.641 237.277 118.654 237.209C119.514 232.585 121.337 227.981 123.298 223.722C126.414 216.965 131.037 210.497 137.655 206.809C140.916 204.993 144.596 203.899 148.338 203.864C149.446 203.857 150.554 203.919 151.647 204.084C152.363 204.188 153.078 204.332 153.78 204.532C154.275 204.669 154.777 204.821 155.273 205C155.665 205.137 156.057 205.289 156.429 205.461C157.337 205.867 158.19 206.383 158.905 207.078C158.946 207.119 158.994 207.167 159.036 207.215C159.572 207.841 159.462 208.591 159.015 209.087L159.008 209.066Z" fill="#292B2D"/>
<path d="M111.087 237.594C98.6834 237.931 86.2732 238.22 73.8698 238.495C73.7529 238.495 73.6497 238.502 73.5327 238.502C73.5327 238.378 73.5327 238.261 73.5396 238.138C73.5809 237.305 73.6359 236.472 73.6909 235.64C73.801 233.933 73.9592 232.227 74.1312 230.527C74.4821 227.149 74.943 223.784 75.5208 220.433C76.6697 213.793 78.2863 207.25 80.3088 200.816C80.866 199.02 81.4645 197.245 82.1043 195.47C82.751 193.66 83.6178 191.823 83.9824 189.931C84.003 189.807 84.0099 189.704 84.003 189.594C88.0824 188.038 92.1619 186.483 96.2482 184.928C96.0418 185.1 95.8354 185.272 95.629 185.444C94.2325 186.642 92.9048 187.921 91.6665 189.27C91.529 188.21 89.7266 187.825 89.1418 188.933C86.7616 193.44 84.8148 198.305 83.5215 203.245C82.3382 207.724 81.7397 212.507 82.5171 217.11C83.8585 225.078 88.8116 232.702 97.0806 234.608C101.703 235.674 106.526 234.835 111.128 233.761C110.922 234.56 110.75 235.351 110.619 236.156C110.516 236.803 110.736 237.284 111.087 237.58V237.594Z" fill="#292B2D"/>
<path d="M83.9964 189.607C84.0033 189.717 83.9964 189.821 83.9758 189.944C83.6112 191.837 82.7444 193.674 82.0977 195.483C81.4579 197.252 80.8663 199.034 80.3022 200.83C78.2797 207.263 76.6562 213.807 75.5142 220.447C74.9364 223.798 74.4754 227.163 74.1246 230.541C73.9526 232.241 73.7944 233.947 73.6843 235.654C73.6293 236.486 73.5743 237.319 73.533 238.151C73.5261 238.275 73.5261 238.392 73.5261 238.516C73.5055 239.245 73.5055 239.982 73.2647 240.677C73.1959 240.89 73.0721 241.076 72.907 241.234C72.2466 241.248 71.5861 241.261 70.9257 241.268C70.8294 241.144 70.7606 240.993 70.7125 240.814C70.5198 240.071 70.5336 239.328 70.568 238.578C70.5818 238.33 70.5955 238.076 70.6093 237.821C70.6643 236.823 70.7262 235.819 70.795 234.821C70.9326 232.922 71.0977 231.009 71.311 229.117C72.0677 222.25 73.3197 215.445 75.0327 208.763C75.8926 205.412 76.8626 202.103 77.9632 198.828C78.5136 197.176 79.1052 195.538 79.7106 193.908C80.0958 192.876 80.4604 191.788 80.9351 190.77C81.1828 190.22 81.4648 189.683 81.795 189.188C82.4279 188.231 83.9276 188.52 83.9826 189.614L83.9964 189.607Z" fill="#292B2D"/>
<path d="M151.647 204.071C150.561 203.906 149.446 203.844 148.339 203.851C144.596 203.885 140.916 204.986 137.655 206.796C131.037 210.484 126.421 216.952 123.298 223.709C121.33 227.968 119.514 232.564 118.654 237.195C118.641 237.264 118.634 237.326 118.634 237.388C116.797 237.443 114.967 237.498 113.144 237.539C113.35 237.36 113.516 237.105 113.626 236.789C113.729 236.493 113.804 236.218 113.839 235.929C114.506 233.177 115.387 230.562 116.639 227.995C118.042 225.119 119.728 222.387 121.496 219.711C125.038 214.337 128.96 209.163 131.808 203.362C133.183 200.548 134.504 197.417 134.924 194.259C135.392 193.963 135.653 193.44 135.385 192.8C134.91 191.685 133.837 190.928 132.956 190.13C132.069 189.339 131.161 188.561 130.246 187.805C128.409 186.298 126.511 184.866 124.557 183.504C122.589 182.128 120.574 180.821 118.482 179.637C117.416 179.032 116.295 178.454 115.373 177.655C119.218 176.19 123.043 174.731 126.889 173.259C128.072 173.658 129.29 173.94 130.459 174.339C131.739 174.772 132.963 175.35 134.14 176.011C136.609 177.387 138.811 179.204 140.751 181.254C145.112 185.864 147.781 191.713 149.763 197.672C150.375 199.502 150.918 201.353 151.427 203.211C151.503 203.5 151.586 203.775 151.654 204.064L151.647 204.071Z" fill="#292B2D"/>
<path d="M155.582 207.958C155.493 208.199 155.355 208.426 155.183 208.605C154.371 208.247 153.553 207.917 152.679 207.69C152.411 207.126 152.294 206.5 152.129 205.86C151.971 205.261 151.819 204.669 151.654 204.071C151.585 203.782 151.503 203.506 151.427 203.217C150.918 201.36 150.375 199.509 149.762 197.678C147.774 191.72 145.105 185.871 140.75 181.261C138.811 179.21 136.602 177.394 134.139 176.018C132.963 175.357 131.739 174.779 130.459 174.346C129.29 173.947 128.072 173.664 126.896 173.265C126.675 173.203 126.462 173.121 126.256 173.045C125.059 172.584 125.65 170.885 126.737 170.774C128.32 170.609 129.991 170.919 131.608 171.469C133.362 172.061 135.048 172.949 136.485 173.809C141.975 177.112 146.151 182.142 149.109 187.777C150.767 190.928 152.088 194.211 153.174 197.596C153.697 199.227 154.179 200.871 154.633 202.529C154.853 203.341 155.073 204.167 155.286 204.993C155.314 205.103 155.341 205.213 155.369 205.33C155.582 206.19 155.892 207.084 155.589 207.972L155.582 207.958Z" fill="#292B2D"/>
<path d="M194.554 138.249C193.618 135.586 191.417 133.536 188.809 132.531C185.893 131.409 182.783 131.561 179.784 132.283C174.012 133.687 168.605 136.873 164.257 140.871C162.014 142.935 159.256 145.591 158.822 148.763C158.417 151.79 160.618 155.375 164.003 154.618C165.358 154.316 165.172 152.148 163.851 151.949C161.712 151.612 161.533 149.423 162.379 147.793C163.473 145.694 165.447 143.919 167.208 142.384C171.006 139.068 175.684 136.501 180.575 135.263C184.874 134.176 191.141 134.898 192.098 140.196C192.572 142.818 191.788 145.57 191.252 148.116C190.626 151.089 189.999 154.061 189.373 157.027C187.936 163.846 186.484 170.658 185.184 177.497C184.874 179.142 187.351 179.651 187.729 178.02C189.325 171.181 190.763 164.3 192.215 157.426C192.937 153.999 193.673 150.573 194.388 147.146C194.994 144.256 195.551 141.111 194.547 138.242L194.554 138.249Z" fill="#292B2D"/>
<path d="M187.468 142.137C186.58 142.632 185.645 143.059 184.709 143.465C183.319 144.07 181.902 144.614 180.54 145.226C178.346 146.217 176.186 147.29 174.067 148.433C170.827 150.167 167.05 152.052 165.378 155.534C164.855 156.6 164.553 157.763 164.339 158.933C164.195 159.669 164.092 160.412 163.982 161.141C163.72 162.958 163.466 164.795 163.583 166.625V166.701C163.645 167.671 163.83 168.655 164.223 169.55C164.498 170.19 164.869 170.781 165.378 171.284C166.555 172.453 168.089 173.086 169.705 173.348C173.812 174.029 177.52 172.006 181.228 170.589C182.769 170.004 183.932 172.433 182.466 173.21C178.084 175.536 172.636 177.587 167.669 176.073C165.736 175.488 163.975 174.476 162.668 172.894C161.925 171.992 161.388 170.96 161.037 169.859C160.735 168.951 160.556 167.988 160.487 167.018C160.487 166.983 160.48 166.942 160.48 166.901C160.329 164.768 160.632 162.614 160.934 160.501C160.948 160.398 160.962 160.309 160.976 160.206C161.299 158.066 161.698 155.919 162.675 153.965C163.163 152.988 163.782 152.121 164.491 151.329C166.713 148.859 169.843 147.222 172.746 145.708C174.961 144.559 177.211 143.492 179.501 142.501C181.73 141.538 184.083 140.458 186.477 139.997C187.681 139.763 188.754 141.407 187.481 142.116L187.468 142.137Z" fill="#292B2D"/>
<path d="M185.108 159.91C184.104 159.401 183.113 159.958 182.143 160.316C181.173 160.667 180.203 161.038 179.247 161.424C177.321 162.201 175.422 163.047 173.544 163.949C169.822 165.738 166.149 167.726 162.895 170.279C161.725 171.194 162.826 172.956 164.147 172.233C167.683 170.3 171.136 168.229 174.769 166.467C176.523 165.614 178.305 164.83 180.114 164.1C181.07 163.715 182.04 163.343 183.01 162.985C183.966 162.635 185.143 162.469 185.617 161.472C185.885 160.901 185.679 160.199 185.108 159.903V159.91Z" fill="#292B2D"/>
<path d="M187.571 148.976C182.886 150.607 178.325 152.568 173.915 154.832C171.714 155.96 169.547 157.157 167.442 158.458C165.358 159.752 163.225 161.052 161.485 162.793C160.804 163.474 161.615 164.878 162.544 164.444C164.725 163.426 166.706 162.05 168.77 160.832C170.854 159.6 172.959 158.41 175.112 157.302C179.412 155.093 183.863 153.208 188.431 151.625C190.123 151.04 189.263 148.391 187.571 148.983V148.976Z" fill="#292B2D"/>
<path d="M168.329 173.258C165.818 174.614 164.181 176.933 163.301 179.609C162.888 180.869 162.702 182.21 162.723 183.532C162.736 184.226 162.826 184.908 162.957 185.589C163.108 186.353 163.301 187.199 163.961 187.688C164.663 188.21 165.715 187.997 165.915 187.054C166.059 186.36 165.832 185.733 165.681 185.066C165.578 184.605 165.523 184.054 165.502 183.545C165.461 182.451 165.626 181.398 165.956 180.325C166.548 178.392 167.903 176.479 169.602 175.233C170.833 174.332 169.664 172.536 168.329 173.252V173.258Z" fill="#292B2D"/>
<path d="M105.246 188.465C105.074 186.071 103.547 183.69 101.016 183.346C99.7293 183.174 98.4153 183.463 97.2733 184.061C96.042 184.715 95.2027 185.672 94.2602 186.662C93.6342 187.323 94.5354 188.424 95.299 187.894C96.1314 187.316 97.0532 186.731 97.9544 186.277C98.7455 185.878 99.633 185.596 100.527 185.713C102.33 185.954 102.935 187.866 102.804 189.463C102.66 191.259 101.979 193.103 101.133 194.678C100.362 196.11 99.2271 197.506 97.7205 198.215C97.1564 198.484 96.7643 199.027 96.9775 199.674C97.1564 200.231 97.8581 200.658 98.4359 200.417C100.624 199.516 102.199 197.851 103.32 195.793C104.49 193.653 105.412 190.922 105.233 188.458L105.246 188.465Z" fill="#292B2D"/>
<path d="M115.242 203.224C114.272 202.144 112.759 201.8 111.369 201.683C108.535 201.449 105.659 202.254 103.244 203.734C100.458 205.44 98.3808 208.096 97.5965 211.275C97.514 211.605 97.6172 211.894 97.8098 212.108C97.6997 212.486 97.7685 212.913 98.1469 213.264C99.2545 214.289 100.878 214.454 102.261 213.924C103.822 213.325 104.847 212.025 106.037 210.924C107.207 209.844 108.652 209.059 110.172 208.605C111.678 208.158 113.46 208.323 114.754 207.325C116.067 206.314 116.377 204.49 115.235 203.224H115.242ZM113.102 205.385C112.655 205.681 112.036 205.688 111.52 205.763C110.846 205.86 110.179 205.99 109.525 206.183C108.246 206.555 107.001 207.14 105.9 207.89C104.696 208.702 103.76 209.761 102.708 210.738C101.999 211.392 100.685 212.293 99.7773 211.481C101.428 207.835 104.937 204.972 108.947 204.449C109.966 204.318 111.032 204.291 112.043 204.463C112.428 204.532 112.882 204.614 113.199 204.862C113.488 205.089 113.398 205.192 113.096 205.392L113.102 205.385Z" fill="#292B2D"/>
<path d="M104.242 209.768C104.125 209.369 103.995 208.977 103.864 208.585C103.589 207.766 103.279 206.961 102.915 206.176C102.715 205.756 102.357 205.474 101.869 205.564C101.449 205.646 101.064 206.059 101.119 206.513C101.236 207.435 101.422 208.351 101.642 209.259C101.745 209.679 101.848 210.098 101.965 210.511C102.123 211.068 102.289 211.605 102.715 212.025C103.3 212.61 104.284 212.211 104.455 211.461C104.586 210.896 104.4 210.318 104.242 209.775V209.768Z" fill="#292B2D"/>
<path d="M109.525 206.149C109.346 205.743 109.195 205.316 109.106 204.876C109.078 204.717 109.051 204.559 109.023 204.401C109.044 204.504 109.064 204.607 109.078 204.711C109.051 204.566 109.03 204.422 109.016 204.277C109.002 204.133 108.995 204.009 108.947 203.864C108.92 203.754 108.879 203.644 108.81 203.548C108.885 203.72 108.906 203.754 108.872 203.644C108.755 203.245 108.356 202.963 107.957 202.935C107.537 202.908 107.152 203.121 106.952 203.493C106.932 203.527 106.918 203.562 106.897 203.596C106.952 203.513 107.007 203.438 107.062 203.355C106.842 203.637 106.732 203.94 106.684 204.291C106.65 204.545 106.622 204.807 106.629 205.068C106.643 205.529 106.725 205.99 106.835 206.438C106.939 206.885 107.131 207.298 107.338 207.711C107.42 207.869 107.503 208.02 107.599 208.172C107.702 208.33 107.812 208.488 107.943 208.619C108.232 208.915 108.603 208.997 108.995 209.011C109.264 209.018 109.546 208.867 109.738 208.701C109.965 208.509 110.103 208.275 110.179 207.986C110.351 207.291 109.835 206.727 109.511 206.149H109.525Z" fill="#292B2D"/>
<path d="M121.991 177.566C120.801 177.298 119.638 178.227 118.634 178.756C117.684 179.252 116.701 179.665 115.696 180.016C113.591 180.752 111.404 181.247 109.188 181.529C107.881 181.694 108.033 183.442 109.305 183.532C111.754 183.697 114.21 183.366 116.542 182.616C117.719 182.238 118.854 181.749 119.954 181.206C121.021 180.683 122.52 179.988 122.741 178.694C122.83 178.178 122.514 177.683 121.998 177.566H121.991Z" fill="#292B2D"/>
<path d="M117.574 185.981C117.526 185.809 117.444 185.665 117.32 185.548C117.217 185.403 117.086 185.293 116.921 185.217C116.611 185.08 116.24 185.011 115.916 185.135C115.669 185.231 115.469 185.334 115.29 185.541C115.277 185.561 115.263 185.575 115.249 185.596C115.18 185.699 115.112 185.802 115.036 185.899C114.995 185.974 114.96 186.057 114.919 186.133C114.836 186.298 114.774 186.463 114.699 186.635C114.63 186.8 114.561 186.958 114.499 187.123C114.389 187.392 114.3 187.674 114.203 187.949C114.162 188.128 114.162 188.307 114.21 188.479C114.231 188.658 114.293 188.816 114.396 188.967C114.472 189.057 114.547 189.146 114.623 189.243C114.761 189.373 114.919 189.47 115.098 189.511C115.208 189.566 115.325 189.594 115.449 189.587C115.628 189.614 115.799 189.6 115.971 189.532C116.315 189.401 116.597 189.181 116.769 188.85C116.935 188.541 117.065 188.217 117.21 187.894C117.279 187.729 117.347 187.571 117.409 187.405C117.478 187.22 117.567 187.027 117.609 186.841C117.671 186.573 117.691 186.243 117.581 185.981H117.574Z" fill="#292B2D"/>
<path d="M100.183 191.961C100.135 191.789 100.053 191.644 99.9287 191.527C99.8255 191.383 99.6948 191.272 99.5297 191.197C99.2201 191.059 98.8486 190.99 98.5253 191.114C98.2777 191.211 98.0782 191.314 97.8993 191.52C97.8855 191.541 97.8718 191.555 97.858 191.575C97.7892 191.678 97.7204 191.782 97.6448 191.878C97.6035 191.954 97.5691 192.036 97.5278 192.112C97.4453 192.277 97.3834 192.442 97.3077 192.614C97.2389 192.779 97.1701 192.938 97.1082 193.103C96.9981 193.371 96.9087 193.653 96.8124 193.928C96.7711 194.107 96.7711 194.279 96.8193 194.458C96.8399 194.637 96.9018 194.795 97.005 194.947C97.0807 195.036 97.1563 195.126 97.232 195.222C97.3696 195.353 97.5278 195.449 97.7067 195.49C97.8167 195.545 97.9337 195.573 98.0575 195.566C98.2364 195.594 98.4084 195.58 98.5804 195.511C98.9243 195.38 99.2064 195.16 99.3784 194.83C99.5435 194.52 99.6742 194.197 99.8186 193.873C99.8874 193.708 99.9562 193.55 100.018 193.385C100.087 193.199 100.176 193.006 100.218 192.821C100.28 192.552 100.3 192.222 100.19 191.961H100.183Z" fill="#292B2D"/>
<path d="M75.1839 224.025C74.6955 223.805 74.1176 223.963 73.8562 224.459C73.7049 224.741 73.5467 225.023 73.3816 225.298C73.299 225.436 73.2096 225.573 73.1201 225.704C73.1133 225.718 73.072 225.773 73.0445 225.814C73.0169 225.855 72.9688 225.917 72.9619 225.931C72.5904 226.454 72.1983 226.963 71.7787 227.445C71.3659 227.913 70.9188 228.367 70.4578 228.787C70.3959 228.842 70.3409 228.897 70.279 228.945C70.279 228.945 70.2377 228.979 70.1964 229.014C70.1552 229.048 70.1001 229.096 70.0864 229.11C70.0245 229.158 69.9625 229.213 69.9006 229.261C69.5704 229.516 69.2402 229.75 68.9238 230.025C68.456 230.431 68.5385 231.236 68.8962 231.663C69.309 232.158 69.9625 232.213 70.5129 231.917C71.1595 231.566 71.7374 231.002 72.2671 230.507C72.7487 230.053 73.1889 229.564 73.5948 229.041C74.4616 227.913 75.1358 226.695 75.6242 225.353C75.7962 224.871 75.7205 224.266 75.1908 224.025H75.1839Z" fill="#292B2D"/>
<path d="M152.473 189.194C152.218 189.146 151.984 189.167 151.744 189.208C151.764 189.208 151.792 189.201 151.812 189.194C151.606 189.236 151.4 189.243 151.186 189.243C150.952 189.215 150.719 189.174 150.491 189.105C150.292 189.022 150.093 188.926 149.907 188.809C149.7 188.651 149.494 188.479 149.329 188.286C149.061 187.983 148.476 187.963 148.159 188.19C147.809 188.438 147.623 188.878 147.76 189.298C148.07 190.233 148.813 190.997 149.714 191.389C150.258 191.623 150.76 191.733 151.345 191.754C151.984 191.775 152.645 191.637 153.113 191.176C153.759 190.536 153.34 189.346 152.466 189.194H152.473Z" fill="#292B2D"/>
<path d="M41.1934 194.032C40.3335 194.369 39.4805 194.706 38.6206 195.043C38.5655 194.919 38.5036 194.802 38.4486 194.678C38.1184 193.997 37.7813 193.316 37.4511 192.635L37.3135 192.353L35.4561 188.527C35.2703 188.142 35.0846 187.756 34.8989 187.371C34.3967 186.339 33.9014 185.3 33.4129 184.261C33.351 184.123 33.2753 183.979 33.2065 183.841C33.4267 183.126 33.6331 182.389 33.7913 181.653C33.9151 181.082 34.0045 180.504 34.0596 179.926C34.7406 180.979 35.2566 182.231 35.8138 183.305C35.8963 183.47 35.9789 183.628 36.0546 183.793C36.6668 184.977 37.2585 186.174 37.8638 187.371C38.5311 188.706 39.1984 190.041 39.8588 191.376C39.8932 191.444 39.9276 191.52 39.9689 191.589C40.3129 192.27 40.6499 192.951 40.987 193.626C41.0558 193.763 41.1246 193.901 41.1934 194.032Z" fill="#292B2D"/>
<path d="M111.775 151.763C105.473 148.357 99.1787 144.944 92.8429 141.579C91.4533 140.843 89.9398 139.763 88.3094 139.687C86.9267 139.625 85.7297 140.306 84.9248 141.407C84.0649 142.591 83.6797 143.981 83.2394 145.357C82.6959 147.063 82.1593 148.77 81.609 150.476C80.3845 154.316 79.1324 158.148 78.0318 162.029C77.7222 162.456 77.4608 162.896 77.22 163.405C76.8623 164.162 77.103 165.215 77.9217 165.58C83.8929 168.263 89.8504 170.967 95.8079 173.671C97.1356 174.277 98.594 175.185 100.107 174.979C101.614 174.772 102.453 173.534 103.1 172.281C104.572 169.392 106.024 166.502 107.489 163.605C109.147 160.35 110.798 157.089 112.442 153.827C112.82 153.077 112.504 152.162 111.768 151.763H111.775ZM101.71 168.201C101.387 168.827 101.064 169.453 100.747 170.086C100.513 170.554 100.252 171.435 99.8391 171.772C99.5089 172.048 99.22 171.827 98.8348 171.655C98.1331 171.339 97.4314 171.009 96.7297 170.685C94.033 169.447 91.3294 168.201 88.6259 166.963C85.9773 165.752 83.3357 164.527 80.694 163.295C80.7697 162.992 80.8385 162.69 80.8867 162.366C80.9073 162.201 80.8935 162.036 80.866 161.885C81.8222 159.139 82.7234 156.373 83.6109 153.607C84.5808 150.607 85.4201 147.531 86.5208 144.586C86.7685 143.912 87.195 142.68 88.048 142.584C88.5846 142.529 89.1693 142.928 89.6096 143.169C90.4007 143.602 91.1781 144.036 91.9692 144.469C94.8448 146.052 97.7203 147.641 100.61 149.203C103.416 150.724 106.223 152.245 109.03 153.765C106.588 158.575 104.146 163.385 101.71 168.194V168.201Z" fill="#292B2D"/>
<path d="M109.03 153.772C106.588 158.582 104.146 163.391 101.711 168.201C101.387 168.827 101.064 169.453 100.747 170.086C100.514 170.554 100.252 171.435 99.8394 171.772C99.5092 172.047 99.2203 171.827 98.835 171.655C98.1334 171.339 97.4317 171.008 96.73 170.685C94.0333 169.447 91.3297 168.201 88.6262 166.963C85.9776 165.752 83.336 164.527 80.6943 163.295C80.77 162.992 80.8388 162.69 80.887 162.366C80.9076 162.201 80.8938 162.036 80.8663 161.885C81.8225 159.139 82.7237 156.373 83.6112 153.607C84.5811 150.607 85.4204 147.531 86.5211 144.586C86.7688 143.912 87.1953 142.68 88.0483 142.584C88.5849 142.529 89.1696 142.928 89.6099 143.169C90.401 143.602 91.1784 144.036 91.9695 144.469C94.8451 146.052 97.7206 147.641 100.61 149.203C103.417 150.724 106.223 152.245 109.03 153.765V153.772Z" fill="#292B2D"/>
<path d="M150.87 136.921C150.629 134.754 149.143 133.137 147.719 131.616C146.013 129.799 144.314 127.976 142.608 126.159C139.196 122.52 135.79 118.886 132.378 115.247C129.571 112.253 126.276 108.517 121.729 110.347C119.665 111.18 118.028 112.756 116.521 114.352C114.602 116.389 112.703 118.439 110.791 120.483C106.932 124.611 103.065 128.74 99.2062 132.875C99.0824 133.006 98.9998 133.143 98.9379 133.274C98.3669 133.653 98.0986 134.533 98.704 135.235C101.937 139.006 105.556 142.439 109.064 145.949C110.818 147.703 112.58 149.451 114.341 151.199C115.971 152.816 117.54 154.563 119.301 156.036C120.959 157.419 122.947 158.313 125.141 157.949C127.411 157.577 129.303 156.229 131.14 154.921C135.219 152.011 139.292 149.093 143.358 146.169C146.364 144.015 151.365 141.332 150.877 136.921H150.87ZM147.292 139.02C146.281 140.506 144.568 141.504 143.131 142.515C139.436 145.137 135.735 147.751 132.048 150.394C130.314 151.632 128.608 153.008 126.751 154.054C125.127 154.969 123.497 155.21 121.908 154.102C120.071 152.823 118.53 150.951 116.948 149.382C115.146 147.593 113.343 145.804 111.527 144.022C108.307 140.864 105.143 137.623 101.752 134.637C104.827 131.348 107.908 128.059 110.984 124.77C113.955 121.591 116.824 118.247 119.961 115.226C121.062 114.166 122.458 112.997 124.061 112.935C125.822 112.859 127.205 114.263 128.34 115.432C131.477 118.673 134.518 122.01 137.606 125.299C139.147 126.944 140.695 128.588 142.236 130.233C143.708 131.802 145.284 133.316 146.653 134.967C147.678 136.205 148.269 137.561 147.286 139.006L147.292 139.02Z" fill="#292B2D"/>
<path d="M131.064 145.488C131.009 144.442 130.418 143.451 130.005 142.494C129.571 141.476 129.138 140.451 128.712 139.426C127.879 137.43 127.054 135.428 126.249 133.426C125.464 131.471 124.694 129.517 123.937 127.549C123.146 125.485 122.41 123.366 121.44 121.384C121.158 120.806 120.326 120.675 119.803 120.923C119.191 121.212 118.97 121.845 119.122 122.485C119.61 124.577 120.422 126.627 121.151 128.643C121.887 130.673 122.644 132.696 123.414 134.719C124.164 136.68 124.935 138.641 125.726 140.588C126.146 141.614 126.572 142.639 126.999 143.664C127.432 144.703 127.776 145.859 128.56 146.692C129.234 147.407 130.486 147.084 130.906 146.265C131.023 146.031 131.064 145.763 131.044 145.488C131.05 145.488 131.057 145.488 131.071 145.494L131.064 145.488Z" fill="#292B2D"/>
<path d="M137.689 129.971C137.428 129.4 136.953 128.967 136.279 129.008C134.463 129.125 132.55 129.944 130.823 130.487C129.028 131.052 127.246 131.643 125.478 132.27C123.758 132.875 122.052 133.508 120.36 134.189C118.578 134.912 116.735 135.593 115.056 136.549C113.77 137.279 114.781 139.233 116.136 138.827C117.87 138.311 119.541 137.547 121.241 136.907C123.002 136.247 124.763 135.6 126.538 134.987C128.258 134.389 129.991 133.825 131.732 133.288C133.493 132.744 135.474 132.421 137.111 131.575C137.524 131.361 137.813 130.77 137.751 130.315C137.737 130.205 137.73 130.061 137.682 129.965L137.689 129.971Z" fill="#292B2D"/>
<path d="M94.0949 149.21C93.3107 149.224 92.5196 149.403 91.756 149.582C90.8341 149.802 89.9536 150.173 89.2381 150.806C88.5158 151.453 88.1168 152.389 88.103 153.352C88.0824 154.378 88.6947 155.224 89.5615 155.712C90.6759 156.339 91.8798 154.66 90.8548 153.841C90.8341 153.827 90.8204 153.813 90.7997 153.793C90.7791 153.648 90.7791 153.531 90.786 153.414C90.7997 153.339 90.8135 153.263 90.8341 153.187C90.786 153.407 90.8548 153.167 90.8892 153.07C91.0749 152.857 90.9717 152.926 91.1231 152.809C91.2262 152.733 91.4464 152.602 91.4945 152.575C91.6872 152.478 92.093 152.355 92.3751 152.286C92.5264 152.245 92.6847 152.21 92.8429 152.176C92.9186 152.162 93.0011 152.141 93.0768 152.128C93.0905 152.128 93.2144 152.1 93.2694 152.093C93.3313 152.086 93.4895 152.059 93.5308 152.059C93.6615 152.045 93.7922 152.031 93.9229 152.017C94.0743 152.004 94.2325 152.011 94.3838 152.004C94.3838 152.004 94.4251 152.004 94.4526 152.004C94.5008 152.004 94.5765 152.017 94.5902 152.017C94.7003 152.038 94.8035 152.059 94.9135 152.086C94.9411 152.1 94.9686 152.107 94.9961 152.121C95.058 152.238 95.058 152.3 95.058 152.3C95.0511 152.361 95.0305 152.423 95.0167 152.485C94.8241 152.884 94.776 152.926 94.487 153.222C93.9848 153.738 93.4139 154.178 92.9805 154.756C92.5058 155.389 92.1756 156.056 91.9486 156.813C91.4601 158.423 91.6321 160.481 92.836 161.719C93.2281 162.125 93.9436 162.146 94.4045 161.85C94.9204 161.52 95.058 160.935 94.9342 160.371C94.9823 160.605 94.8654 160.04 94.8791 160.082C94.8516 159.979 94.831 159.896 94.7966 159.8C94.7416 159.634 94.6934 159.469 94.6521 159.304C94.5971 159.084 94.5627 158.733 94.5627 158.341C94.5696 158.19 94.5833 158.114 94.5902 158.045C94.6177 157.845 94.6728 157.66 94.714 157.467C94.714 157.453 94.7416 157.384 94.7553 157.35C94.7828 157.274 94.8172 157.206 94.8448 157.13C94.9204 156.965 95.0099 156.806 95.1062 156.648C95.113 156.648 95.3469 156.339 95.3745 156.311C95.5052 156.167 95.6496 156.029 95.7872 155.891C96.1105 155.582 96.4545 155.286 96.7503 154.949C97.4245 154.185 97.9404 153.173 97.8785 152.128C97.7685 150.098 95.9248 149.189 94.1018 149.217L94.0949 149.21Z" fill="#FC142C"/>
<path d="M96.9979 163.584C96.9497 163.474 96.8947 163.364 96.8465 163.261C96.7502 163.096 96.6195 162.965 96.4544 162.875C96.3581 162.786 96.248 162.731 96.1173 162.703C95.9454 162.628 95.7665 162.593 95.5739 162.614C95.4569 162.635 95.34 162.655 95.2162 162.683C95.1061 162.731 94.996 162.786 94.8928 162.834C94.7277 162.93 94.597 163.061 94.5076 163.226C94.3838 163.378 94.3081 163.543 94.2737 163.742C94.2393 163.901 94.2462 164.073 94.2462 164.238V164.375C94.2462 164.561 94.3012 164.733 94.3906 164.891C94.4526 165.063 94.5626 165.215 94.7071 165.332C94.8447 165.469 95.0098 165.566 95.1955 165.607C95.3675 165.683 95.5464 165.717 95.739 165.697C95.8559 165.676 95.9729 165.655 96.0967 165.628C96.3306 165.552 96.537 165.421 96.7021 165.236C96.7709 165.132 96.8465 165.029 96.9153 164.926C97.0323 164.699 97.0804 164.458 97.0667 164.203V163.969C97.0667 163.839 97.0254 163.715 96.9979 163.584Z" fill="#FC142C"/>
<path d="M99.2066 111.483C97.8926 109.831 96.0352 108.579 94.4048 107.272C90.8001 104.389 87.2022 101.485 83.5562 98.65C81.9671 97.4183 80.2679 96.228 78.2729 95.7669C76.2985 95.299 74.3035 95.7807 72.6112 96.861C70.7538 98.0514 69.1853 99.7716 67.6856 101.375C66.1309 103.033 64.6587 104.767 63.2691 106.57C60.4624 110.196 58.0065 114.077 55.9427 118.185C55.1447 118.405 54.5462 119.23 55.0965 120.152C57.1741 123.641 59.8226 126.792 62.6087 129.737C65.4292 132.717 68.4836 135.462 71.7444 137.926C73.3473 139.143 75.1497 140.306 77.2616 139.949C79.2704 139.611 80.7081 138.111 82.0565 136.701C85.2622 133.336 88.4749 129.965 91.6737 126.593C93.2147 124.969 94.7557 123.352 96.2966 121.728C97.7 120.249 99.2754 118.735 100.005 116.781C100.686 114.957 100.438 113.024 99.2135 111.49L99.2066 111.483ZM95.2303 118.453C93.8751 119.891 92.4855 121.308 91.1165 122.733C88.2203 125.747 85.3242 128.76 82.4349 131.774C81.1003 133.157 79.8345 134.699 78.3761 135.958C77.8876 136.364 77.3167 136.79 76.67 136.859C75.872 136.955 75.1015 136.467 74.4686 136.04C71.1528 133.811 68.119 130.969 65.326 128.127C62.8357 125.588 60.5931 122.864 58.3711 120.104C58.5155 119.974 58.6531 119.815 58.7563 119.609C62.079 113.155 66.3304 107.23 71.4486 102.077C72.5631 100.962 73.7463 99.6821 75.2253 99.0697C76.8351 98.416 78.3761 98.994 79.7794 99.8473C81.3754 100.817 82.7995 102.097 84.2579 103.26C85.902 104.561 87.5324 105.854 89.1766 107.155C90.8138 108.455 92.4511 109.756 94.1021 111.042C95.1615 111.868 97.0396 112.921 97.3354 114.373C97.645 115.928 96.1866 117.421 95.2303 118.446V118.453Z" fill="#FC142C"/>
<path d="M95.2304 118.453C93.8752 119.891 92.4855 121.309 91.1166 122.733C88.2204 125.747 85.3242 128.76 82.4349 131.774C81.1003 133.157 79.8345 134.699 78.3761 135.958C77.8877 136.364 77.3167 136.79 76.67 136.859C75.872 136.955 75.1016 136.467 74.4687 136.04C71.1528 133.811 68.1191 130.969 65.3261 128.127C62.8358 125.588 60.5931 122.864 58.3711 120.104C58.5156 119.974 58.6531 119.815 58.7563 119.609C62.079 113.155 66.3304 107.23 71.4486 102.077C72.5631 100.962 73.7463 99.6822 75.2254 99.0698C76.8351 98.4161 78.3761 98.9941 79.7795 99.8473C81.3755 100.818 82.7995 102.097 84.2579 103.26C85.9021 104.561 87.5324 105.854 89.1766 107.155C90.8139 108.455 92.4511 109.756 94.1022 111.042C95.1616 111.868 97.0396 112.921 97.3355 114.373C97.645 115.928 96.1866 117.421 95.2304 118.446V118.453Z" fill="#FC142C"/>
<path d="M207.507 0.0275781C198.819 1.88539 190.412 5.0024 182.377 8.76619C174.301 12.5506 166.576 17.0507 159.318 22.2319C144.851 32.5531 132.262 45.4271 122.293 60.1451C118.586 65.6222 115.27 71.3539 112.374 77.2921C112.656 74.0237 112.69 70.7484 112.229 67.4869C111.507 62.3745 109.512 57.4203 106.003 53.5808C102.509 49.762 97.528 47.684 92.3617 47.9317C87.4017 48.1725 82.5724 50.4982 79.5524 54.4753C78.8026 53.3813 77.9151 52.3767 76.8901 51.5166C70.3961 46.0739 61.0884 46.2872 53.8032 49.8996C49.3936 52.0877 45.8301 55.4455 42.8651 59.3332C42.074 60.3722 43.4705 61.7139 44.3854 60.7231C49.3454 55.3698 55.9426 50.4363 63.4892 50.0647C69.2335 49.7826 75.1084 52.1909 77.8945 57.1451C75.6931 61.4869 75.2597 66.6681 76.9933 71.2782C77.3441 72.214 78.665 72.6544 79.3667 71.7943C82.7513 67.6589 83.0608 61.9548 81.0452 57.207C83.2947 53.6428 87.1403 51.3239 91.3229 50.8216C95.8632 50.2712 100.238 51.7574 103.492 54.9708C106.643 58.0809 108.542 62.4571 109.278 66.7851C110.406 73.4595 109.257 80.2233 108.163 86.8151C107.916 88.3289 110.213 89.3197 110.839 87.7509C117.334 71.5053 126.937 56.6221 138.879 43.8445C150.815 31.0669 165.028 20.4429 180.685 12.6538C189.504 8.26389 198.778 4.98863 208.223 2.22255C209.667 1.79594 208.931 -0.268296 207.514 0.0344589L207.507 0.0275781ZM78.8438 67.136C78.5824 65.1199 78.7544 63.0626 79.3116 61.1015C79.6693 63.1176 79.5455 65.23 78.8438 67.136Z" fill="#FC142C"/>
<path d="M40.5397 63.152C39.0606 60.6405 37.616 58.1083 36.0887 55.6312C35.0087 53.8766 33.4953 52.0395 31.2732 51.9294C29.8836 51.8675 28.7073 52.5624 27.6685 53.4088C26.3958 54.4409 25.1575 55.5074 23.9193 56.5739C21.3946 58.7276 18.8767 60.8951 16.3589 63.0419C16.0975 63.2621 15.9943 63.5923 16.0012 63.9226C15.2857 64.0327 14.7216 64.9754 15.1069 65.7667C16.3383 68.2782 18.2714 70.5626 19.9774 72.7713C21.6353 74.9181 23.2589 77.2645 25.1988 79.1567C26.0381 79.9824 27.0769 80.6292 28.2601 80.753C29.636 80.9044 30.8949 80.3952 32.1125 79.8173C34.5959 78.6406 37.0518 77.3264 39.322 75.7713C41.2551 74.4434 43.0437 72.6956 43.2088 70.2254C43.3946 67.6176 41.8192 65.2988 40.5534 63.1451L40.5397 63.152ZM38.2626 73.1498C36.3708 74.464 34.3139 75.5787 32.2501 76.6108C31.3076 77.0856 30.2757 77.6773 29.237 77.8906C28.1776 78.0971 27.4896 77.4915 26.8155 76.7553C25.0543 74.87 23.4996 72.7438 21.9311 70.7002C20.5622 68.9112 19.262 66.9983 17.7967 65.285C18.0168 65.2162 18.237 65.0923 18.4227 64.9272L24.0775 60.0625C25.9074 58.4937 27.6685 56.801 29.5672 55.3147C30.2138 54.8056 30.9155 54.3308 31.741 54.7161C32.4565 55.0533 32.9862 55.7757 33.4196 56.4225C34.7266 58.356 35.8205 60.4547 37.0106 62.4639C38.1663 64.4111 39.6935 66.4272 40.347 68.6222C40.9593 70.652 39.8586 72.0282 38.2626 73.1429V73.1498Z" fill="#292B2D"/>
<path d="M38.2628 73.1498C36.371 74.464 34.3141 75.5787 32.2503 76.6108C31.3078 77.0856 30.2759 77.6773 29.2371 77.8906C28.1777 78.0971 27.4898 77.4916 26.8156 76.7553C25.0545 74.87 23.4998 72.7438 21.9313 70.7002C20.5624 68.9112 19.2622 66.9983 17.7969 65.285C18.017 65.2162 18.2372 65.0924 18.4229 64.9272L24.0777 60.0625C25.9076 58.4937 27.6687 56.801 29.5674 55.3148C30.214 54.8056 30.9157 54.3308 31.7412 54.7161C32.4567 55.0533 32.9864 55.7758 33.4198 56.4226C34.7268 58.3561 35.8206 60.4547 37.0108 62.4639C38.1665 64.4112 39.6937 66.4272 40.3472 68.6222C40.9595 70.6521 39.8588 72.0282 38.2628 73.1429V73.1498Z" fill="#292B2D"/>
<path d="M33.9633 68.0304C33.578 67.597 33.0208 67.5901 32.4911 67.5144C32.0784 67.4525 31.6725 67.3837 31.2666 67.2942C30.8951 67.2185 30.5236 67.1291 30.159 67.0259C30.2003 65.2781 30.3723 63.5373 30.5718 61.7964C30.7507 60.2551 28.5424 59.7528 28.1778 61.3079C27.8063 62.8767 27.6206 64.4731 27.5243 66.0832C27.3523 66.0075 27.1872 65.9318 27.029 65.863C26.341 65.5396 25.5637 65.2231 24.9376 64.7965C24.4561 64.4593 23.8301 64.3905 23.3967 64.8653C23.039 65.2575 22.977 66.0694 23.4655 66.4066C24.2084 66.9226 24.9101 67.4937 25.7081 67.9341C26.2722 68.2506 26.857 68.5259 27.4555 68.7805C27.4555 69.2208 27.4692 69.6612 27.4899 70.1016C27.538 71.0993 27.5243 72.2209 27.8338 73.1773C27.9714 73.6039 28.3635 73.9892 28.8245 74.058C29.0515 74.0924 29.2785 74.12 29.4986 74.0167C30.0971 73.7415 30.3585 73.3355 30.4067 72.6887C30.4686 71.7942 30.2553 70.8378 30.2003 69.9364C30.2003 69.8539 30.2003 69.7782 30.1934 69.6956C30.3723 69.7438 30.5512 69.7988 30.7369 69.8401C31.1428 69.9295 31.5487 70.0121 31.9614 70.074C32.5806 70.1704 33.2616 70.3149 33.7982 69.9158C34.4724 69.4204 34.493 68.6222 33.9564 68.0236L33.9633 68.0304Z" fill="#FC142C"/>
<path d="M43.6698 124.976C43.2364 123.242 42.1908 121.749 41.0213 120.428C39.666 118.9 38.0838 117.579 36.5772 116.21C34.94 114.724 33.2958 113.237 31.6585 111.751C30.1451 110.382 28.5904 108.565 26.5885 107.925C24.6485 107.306 22.8186 108.207 21.3052 109.37C13.6967 115.205 6.77611 122.052 0.564105 129.345C0.178864 129.799 0.12383 130.302 0.268295 130.735C-0.0206355 131.1 -0.116946 131.616 0.192623 132.146C4.1551 139.006 9.69293 144.985 16.0288 149.705C17.7142 150.958 19.551 152.224 21.6973 152.43C23.6717 152.616 25.4328 151.832 26.9325 150.593C28.5629 149.238 29.9938 147.614 31.404 146.038C32.8143 144.469 34.1832 142.866 35.5178 141.235C36.9212 139.515 38.2833 137.76 39.5973 135.971C40.7943 134.341 42.0807 132.696 42.9543 130.859C43.8349 128.994 44.1789 126.978 43.6767 124.962L43.6698 124.976ZM41.1245 127.818C40.8149 129.572 39.7761 131.114 38.7442 132.524C37.5679 134.134 36.3502 135.717 35.0982 137.272C32.6629 140.299 30.0832 143.196 27.4071 146.01C26.2858 147.194 25.0957 148.673 23.5272 149.286C21.8762 149.933 20.232 149.059 18.8699 148.144C12.4378 143.816 7.09256 137.747 2.72421 131.382C7.78737 125.458 13.2839 119.974 19.1726 114.93C20.5691 113.733 21.9725 112.48 23.4859 111.421C24.0569 111.022 24.738 110.561 25.4672 110.657C26.2239 110.753 26.8637 111.366 27.4071 111.84C30.4478 114.517 33.4334 117.263 36.4465 119.98C38.6204 121.941 41.7023 124.522 41.1176 127.811L41.1245 127.818Z" fill="#292B2D"/>
<path d="M58.0063 94.7004C57.4697 92.5605 55.5366 91.8242 53.5348 91.6729C51.1132 91.494 48.6848 91.3013 46.2633 91.1706C44.1583 91.0536 42.3697 91.6453 41.1864 93.4756C39.9344 95.4091 39.4735 98.0376 39.0882 100.267C38.6617 102.73 38.5172 105.242 38.6067 107.746C38.0151 108.373 38.1664 109.652 39.2533 110.038C41.5717 110.85 43.9932 111.414 46.3665 112.068C47.4947 112.377 48.6298 112.687 49.758 112.996C50.8381 113.292 51.925 113.616 53.0188 113.21C54.9794 112.48 55.516 109.618 56.087 107.863C56.8162 105.627 57.3665 103.336 57.7243 101.01C58.0338 99.0216 58.5016 96.689 57.9994 94.7073L58.0063 94.7004ZM55.3647 97.1018C55.3027 98.1064 55.172 99.111 55.0276 100.102C54.7593 101.932 54.374 103.742 53.8718 105.517C53.6173 106.418 53.3421 107.32 53.0257 108.201C52.8743 108.62 52.7092 109.04 52.5373 109.453C52.4341 109.701 52.2896 110.313 52.0557 110.471C51.6017 110.788 50.1639 110.12 49.6548 109.99C48.5817 109.701 47.5016 109.412 46.4284 109.123C44.8049 108.682 43.1745 108.201 41.5373 107.801C41.379 104.113 41.8193 100.446 42.8787 96.9023C43.2571 95.6293 43.7386 94.1775 45.2521 94.0399C47.0889 93.8747 49.0563 94.1981 50.9 94.3013C51.7737 94.3495 52.6542 94.377 53.5279 94.4596C54.147 94.5146 54.9381 94.5697 55.2339 95.2027C55.4954 95.7532 55.399 96.5101 55.3647 97.1018Z" fill="#292B2D"/>
<path d="M26.3135 120.985C25.9971 120.4 24.9583 120.269 24.5524 120.834C23.8301 121.825 23.9127 123.228 23.8301 124.419C23.7407 125.657 23.6581 126.896 23.5756 128.134L23.3486 131.712C23.3073 132.311 23.2729 132.903 23.2316 133.501C23.2247 133.639 23.2247 133.825 23.2179 134.017C22.9771 133.893 22.7363 133.763 22.4955 133.639C21.7663 133.26 21.0371 132.875 20.3148 132.497C18.8977 131.754 17.4874 130.997 16.0359 130.343C14.5637 129.682 13.5456 131.733 14.9077 132.559C16.8545 133.749 18.9045 134.767 20.9202 135.841C21.8214 136.316 22.867 137.086 23.9333 137.017C25.1097 136.942 25.7563 135.999 25.8389 134.898C26.0108 132.593 26.1622 130.281 26.3204 127.976C26.403 126.827 26.4718 125.685 26.5474 124.536C26.6162 123.4 26.8845 122.01 26.3273 120.985H26.3135Z" fill="#292B2D"/>
<path d="M52.0624 97.6729C51.4983 97.384 50.8448 97.6661 50.4527 98.0996C50.2188 98.3542 50.0331 98.7395 49.8748 99.056C49.5653 99.6684 49.2557 100.281 48.953 100.886C48.6778 101.43 48.4095 101.98 48.1412 102.531C48.0725 102.4 47.9968 102.269 47.9349 102.139C47.9142 102.097 47.873 102.001 47.8592 101.973C47.8179 101.87 47.7766 101.774 47.7354 101.671C47.6597 101.471 47.584 101.265 47.5152 101.065C47.3776 100.659 47.2676 100.246 47.185 99.8198C47.0887 99.3175 46.4696 99.0491 46.0155 99.1317C45.5134 99.228 45.1487 99.6753 45.1763 100.198C45.2795 102.201 45.9949 104.141 47.2538 105.71C47.5496 106.074 47.9005 106.315 48.3889 106.288C48.8361 106.26 49.2351 105.992 49.4414 105.6C50.0606 104.43 50.6866 103.26 51.292 102.077C51.6084 101.471 51.918 100.859 52.2344 100.253C52.3995 99.9367 52.599 99.5721 52.6678 99.228C52.7848 98.65 52.6265 97.9619 52.0624 97.6729Z" fill="#292B2D"/>
<path d="M78.4999 112.824C78.4036 111.166 78.3073 109.508 78.211 107.843C78.1147 106.26 78.2522 104.21 77.6125 102.737C77.1034 101.554 75.5556 101.636 75.1772 102.875C74.7232 104.361 75.0671 106.308 75.1497 107.843C75.2391 109.563 75.3354 111.283 75.4249 113.003C75.5693 115.687 75.7344 118.37 75.8995 121.047C75.074 120.82 74.2554 120.593 73.4299 120.373C71.9852 119.98 70.4924 119.437 68.9996 119.286C67.5962 119.141 66.6675 121.088 68.1259 121.783C69.5431 122.458 71.1597 122.795 72.6663 123.228C74.1866 123.669 75.7069 124.102 77.2272 124.536C78.1766 124.804 79.0778 123.882 79.0296 122.974C78.8507 119.595 78.6925 116.21 78.493 112.831L78.4999 112.824Z" fill="#292B2D"/>
<path d="M61.398 155.761C61.1434 155.004 60.3454 154.825 59.6919 155.148C58.7357 155.623 58.3848 156.813 58.0134 157.749C57.635 158.706 57.2773 159.676 56.9333 160.646C56.2385 162.648 55.6125 164.678 55.069 166.729C54.1885 170.066 53.5349 173.451 53.074 176.871C51.6294 176.031 50.1847 175.192 48.7401 174.353C47.715 173.761 46.7038 173.155 45.6719 172.577C44.5918 171.972 43.5324 171.284 42.3423 170.926C41.0146 170.534 40.2923 172.364 41.1728 173.217C42.019 174.029 43.1403 174.586 44.1378 175.192C45.1972 175.839 46.2704 176.458 47.3436 177.084C49.4349 178.309 51.5262 179.534 53.6106 180.759C54.4292 181.24 55.7294 180.662 55.8395 179.685C56.3004 175.577 57.0434 171.504 58.0821 167.506C58.5843 165.559 59.1622 163.632 59.8089 161.733C60.1391 160.756 60.483 159.779 60.8476 158.809C61.2122 157.832 61.7419 156.793 61.3911 155.747L61.398 155.761Z" fill="#292B2D"/>
</g>
<defs>
<clipPath id="clip0_507_1645">
<rect width="209" height="244" fill="white"/>
</clipPath>
</defs>
</svg>
