<svg width="193" height="247" viewBox="0 0 193 247" fill="none" xmlns="http://www.w3.org/2000/svg">
<g clip-path="url(#clip0_507_1707)">
<path d="M167.026 137.835C167.103 150.686 164.823 163.475 160.452 175.564C159.116 179.245 157.578 182.863 155.843 186.383C155.025 188.052 154.151 189.701 153.235 191.321C152.955 191.845 152.661 192.355 152.354 192.872C150.731 195.644 148.983 198.333 147.109 200.938C145.402 203.32 143.633 205.772 141.563 207.86C141.381 208.048 141.192 208.237 141.01 208.412C139.947 209.431 138.583 208.509 138.66 207.357C138.667 207.092 138.765 206.812 138.954 206.54L139.066 206.386C139.43 205.876 139.807 205.38 140.185 204.878C141.87 202.664 143.647 200.519 145.227 198.222C147.227 195.337 149.074 192.355 150.773 189.289C151.941 187.179 153.032 185.021 154.046 182.842C154.466 181.948 154.871 181.033 155.256 180.118C158.83 171.828 161.326 163.104 162.69 154.186C163.627 148.06 164.012 141.865 163.844 135.677C163.669 129.454 162.823 123.357 161.634 117.266C161.48 116.442 161.753 115.597 162.634 115.318C163.389 115.073 164.396 115.492 164.592 116.31C166.299 123.308 166.991 130.641 167.033 137.835H167.026Z" fill="#292B2D"/>
<path d="M165.068 118.084C164.271 115.541 162.83 113.181 161.362 110.967C159.837 108.669 158.117 106.511 156.263 104.471C155.382 103.5 154.459 102.558 153.508 101.65C152.606 100.791 151.494 100.008 150.773 98.9816C150.368 98.4089 149.941 97.2146 150.927 96.9841C151.955 96.7466 152.941 97.6476 153.641 98.2622C156.305 100.588 158.914 102.97 161.55 105.323C162.949 106.567 164.907 104.436 163.516 103.186C160.851 100.791 158.221 98.346 155.522 95.9993C154.41 95.0355 153.151 94.1764 151.641 94.0507C150.228 93.932 148.794 94.4418 147.99 95.6431C147.13 96.9213 147.228 98.5695 147.899 99.9035C148.591 101.279 149.829 102.25 150.941 103.277C153.207 105.372 155.291 107.656 157.151 110.108C159.319 112.964 161.012 116.1 163.047 119.041C163.774 120.081 165.467 119.327 165.075 118.084H165.068Z" fill="#292B2D"/>
<path d="M165.537 97.3472C164.642 96.5091 163.704 95.7059 162.732 94.9516C160.732 93.4011 158.599 92.0182 156.347 90.8588C155.137 90.2372 153.837 89.5877 152.438 89.6785C151.235 89.7553 150.151 90.4258 149.494 91.4176C148.095 93.5198 149.228 96.2647 151.69 96.8025C152.808 97.0469 153.284 95.5104 152.34 94.9656C151.144 94.2811 151.221 92.2138 152.85 92.3115C153.781 92.3674 154.725 93.003 155.522 93.429C156.354 93.876 157.172 94.3579 157.977 94.8538C159.515 95.8177 160.977 96.9072 162.362 98.0876C163.082 98.7022 163.781 99.3378 164.453 100.001C165.187 100.721 165.781 101.594 166.893 101.615C167.523 101.629 167.866 101.028 167.907 100.483C167.991 99.2679 166.355 98.1015 165.551 97.3402L165.537 97.3472Z" fill="#292B2D"/>
<path d="M170.411 95.6641C167.648 92.3256 164.361 89.1966 160.564 87.0385C158.753 86.0118 156.522 85.3902 154.563 86.375C152.913 87.2061 151.759 89.0849 152.528 90.9078C152.927 91.8437 154.619 91.718 154.431 90.5516C154.249 89.3852 155.347 88.3934 156.473 88.3096C158.081 88.1909 159.634 89.3224 160.872 90.2094C163.599 92.172 166.103 94.4628 168.222 97.061C168.662 97.6057 169.383 97.8572 170.019 97.4521C170.558 97.1099 170.858 96.2089 170.411 95.6641Z" fill="#292B2D"/>
<path d="M180.419 100.001C179.768 98.5904 179.062 97.2075 178.314 95.8456C176.803 93.0798 175.111 90.4118 173.243 87.8695C172.327 86.6193 171.376 85.3971 170.376 84.2097C169.439 83.0922 168.502 81.8001 167.11 81.2204C165.795 80.6757 164.201 81.0179 163.487 82.324C162.872 83.4484 163.131 84.8383 163.62 85.9558C164.362 87.646 165.327 89.2594 166.18 90.8937C167.138 92.7236 168.047 94.6024 169.278 96.2646C169.963 97.1935 171.572 96.551 171.173 95.3706C169.977 91.8017 167.781 88.6448 166.229 85.2364C166.019 84.7824 165.816 84.2865 165.816 83.7767C165.816 83.5113 165.816 83.6091 165.844 83.6091C166.131 83.5811 166.481 83.9164 166.684 84.077C167.9 85.0828 168.879 86.5285 169.838 87.7647C171.873 90.3769 173.733 93.1357 175.383 95.9992C176.209 97.431 176.992 98.8907 177.719 100.378C178.391 101.747 178.971 103.724 180.195 104.702C180.671 105.079 181.545 104.939 181.629 104.241C181.81 102.795 181.006 101.286 180.412 100.001H180.419Z" fill="#292B2D"/>
<path d="M182.747 182.535C181.328 187.033 179.691 191.461 177.845 195.798C177.481 196.657 177.111 197.509 176.726 198.354C171.11 210.947 163.753 222.757 154.871 233.374C154.186 234.142 153.312 233.988 152.745 233.478C152.472 233.227 152.27 232.899 152.207 232.535C152.13 232.123 152.221 231.676 152.563 231.271C152.724 231.076 152.892 230.88 153.053 230.685C153.284 230.405 153.514 230.133 153.738 229.853C160.137 222.038 165.69 213.573 170.348 204.612C170.579 204.172 170.802 203.739 171.019 203.299C171.6 202.175 172.152 201.043 172.691 199.905C180.265 183.946 184.957 166.687 186.363 149.087C187.972 128.993 185.475 108.69 178.88 89.6296C177.656 90.8448 177.181 92.6677 177.726 94.3859C178.125 95.65 176.334 96.1459 175.81 95.0005C174.432 92.0392 175.943 88.2397 178.845 86.8079C179.516 86.4797 180.3 86.6682 180.579 87.4225C184.601 98.5485 187.293 110.177 188.622 121.925C190.923 142.284 188.937 162.986 182.754 182.542L182.747 182.535Z" fill="#292B2D"/>
<path d="M155.585 231.257C155.354 231.977 155.109 232.689 154.85 233.395C154.494 234.379 154.116 235.322 153.711 236.237C153.445 236.838 153.165 237.439 152.864 238.025C152.34 239.08 151.787 240.114 151.207 241.133C150.906 241.664 150.591 242.188 150.284 242.705C149.99 243.187 149.696 243.738 149.319 244.185C149.277 244.241 149.214 244.304 149.165 244.353C148.626 244.884 147.857 244.982 147.228 244.563C146.731 244.234 146.563 243.724 146.612 243.201C146.633 243.033 146.682 242.865 146.738 242.691C146.948 242.132 147.36 241.629 147.668 241.126C147.969 240.637 148.263 240.155 148.549 239.66C149.116 238.675 149.668 237.676 150.186 236.656C150.878 235.294 151.564 233.911 152.207 232.522C152.494 231.907 152.773 231.285 153.053 230.671C153.088 230.58 153.137 230.496 153.172 230.405C153.298 230.126 153.501 229.944 153.739 229.84C154.606 229.462 155.921 230.168 155.578 231.243L155.585 231.257Z" fill="#292B2D"/>
<path d="M122.61 167.616C122.596 167.477 122.547 167.344 122.464 167.225C122.401 167.155 122.338 167.079 122.282 167.009C122.198 166.953 122.121 166.897 122.037 166.841C121.792 166.701 121.463 166.701 121.198 166.778C121.149 166.792 121.1 166.806 121.051 166.82C120.925 166.855 120.876 166.883 120.827 166.911C120.771 166.925 120.715 166.953 120.673 166.988L120.17 167.351C120.135 167.379 120.093 167.407 120.058 167.435C119.967 167.498 119.862 167.575 119.799 167.644C119.694 167.77 119.624 167.847 119.547 167.924C119.498 167.994 119.449 168.063 119.4 168.133C119.337 168.245 119.302 168.371 119.309 168.496C119.295 168.58 119.295 168.657 119.323 168.741C119.337 168.867 119.379 168.978 119.449 169.076C119.547 169.216 119.673 169.328 119.82 169.411C120.044 169.537 120.31 169.523 120.547 169.467C120.61 169.453 120.673 169.439 120.736 169.418C120.827 169.404 120.911 169.39 120.988 169.349C121.037 169.328 121.079 169.307 121.128 169.286C121.219 169.244 121.31 169.202 121.408 169.16C121.498 169.118 121.589 169.076 121.687 169.034C121.778 168.992 121.869 168.95 121.953 168.909C122.037 168.846 122.114 168.776 122.191 168.706C122.275 168.622 122.317 168.587 122.352 168.545C122.408 168.469 122.464 168.385 122.52 168.301C122.596 168.168 122.631 168.028 122.624 167.882C122.645 167.784 122.638 167.693 122.61 167.602V167.616Z" fill="#292B2D"/>
<path d="M111.938 182.221C111.589 183.261 111.078 184.176 110.442 184.979C110.246 184.393 110.099 183.792 109.987 183.184C109.889 182.668 109.826 182.158 109.777 181.641C109.805 181.599 109.826 181.543 109.854 181.501C110.379 180.384 112.323 181.04 111.931 182.221H111.938Z" fill="#292B2D"/>
<path d="M112.337 175.907C112.581 176.493 112.197 177.185 111.672 177.436C111.071 177.716 110.483 177.485 110.092 177.01C110.197 176.521 110.323 176.039 110.476 175.564C110.714 174.838 110.98 174.112 111.295 173.413C111.323 173.518 111.344 173.609 111.379 173.707C111.49 174.098 111.644 174.461 111.798 174.838C111.826 174.901 111.854 174.971 111.889 175.034C111.903 175.062 111.917 175.09 111.931 175.124C112.071 175.39 112.218 175.641 112.337 175.914V175.907Z" fill="#292B2D"/>
<path d="M116.316 170.012C116.267 170.201 116.204 170.396 116.134 170.585C115.729 170.738 115.26 170.731 114.854 170.529C114.337 170.263 114.085 169.816 114.036 169.327C114.239 169.16 114.449 169.013 114.68 168.894C115.449 168.496 116.575 169.041 116.323 170.012H116.316Z" fill="#292B2D"/>
<path d="M123.897 194.632C123.729 194.639 123.562 194.646 123.408 194.653C122.631 194.674 121.841 194.632 121.065 194.513C121.065 194.178 121.065 193.836 121.079 193.5C121.1 192.83 121.471 192.292 122.142 192.159C122.715 192.041 123.506 192.397 123.632 193.018C123.736 193.556 123.82 194.094 123.897 194.632Z" fill="#292B2D"/>
<path d="M124.995 206.659C125.051 207.378 124.561 207.895 123.953 208.181C123.163 208.544 122.33 209.047 121.491 209.264C121.016 209.383 120.603 209.292 120.295 209.082C119.54 208.579 119.358 207.399 120.281 206.708C120.407 206.61 120.547 206.526 120.687 206.435C121.065 206.212 121.484 206.023 121.89 205.842C121.736 203.949 121.582 202.07 121.435 200.177C121.302 198.305 121.086 196.399 121.065 194.513C121.065 194.178 121.065 193.836 121.079 193.5C121.1 192.83 121.47 192.292 122.142 192.159C122.715 192.041 123.505 192.397 123.631 193.018C123.736 193.556 123.82 194.094 123.897 194.632C124.142 196.364 124.254 198.117 124.414 199.863C124.631 202.126 124.806 204.403 124.995 206.666V206.659Z" fill="#292B2D"/>
<path d="M142.038 206.512C141.891 206.959 141.73 207.406 141.556 207.86C140.947 209.445 140.234 210.989 139.408 212.484C138.408 214.286 137.282 216.241 135.856 217.75C134.688 218.986 132.953 219.768 131.289 219.028C129.876 218.399 129.065 216.961 128.806 215.501C128.492 213.671 129.247 212.03 129.736 210.304C130.289 208.342 129.639 206.645 129.268 204.717C128.072 198.487 129.792 191.084 134.233 186.376C134.478 186.118 134.73 185.873 134.989 185.636C135.702 184.979 136.548 185.203 136.961 185.769C137.15 186.02 137.254 186.334 137.22 186.677C137.199 186.914 137.108 187.151 136.926 187.396C136.8 187.564 136.674 187.731 136.555 187.906C134.8 190.329 133.359 192.983 132.632 195.896C131.939 198.669 131.835 201.532 132.282 204.354C132.555 206.016 133.016 207.602 132.87 209.306C132.723 210.947 131.925 212.4 131.667 214.013C131.562 214.677 131.653 216.206 132.52 216.416C133.492 216.653 134.548 214.76 134.968 214.153C136.45 212.03 137.625 209.739 138.646 207.371C138.786 207.057 138.919 206.728 139.052 206.4C139.164 206.135 139.276 205.869 139.381 205.597C139.534 205.199 139.835 204.982 140.171 204.892C141.115 204.654 142.388 205.429 142.038 206.526V206.512Z" fill="#292B2D"/>
<path d="M143.989 175.131C143.912 176.018 143.738 176.919 143.577 177.737C143.57 177.786 143.563 177.82 143.556 177.848C143.283 179.273 142.877 180.663 142.388 182.032C142.052 182.961 141.674 183.89 141.234 184.805C140.765 185.804 140.227 186.781 139.59 187.696C139.122 188.388 138.604 189.044 138.038 189.638C137.199 190.504 135.716 189.512 136.282 188.43C136.38 188.255 136.464 188.073 136.562 187.899C136.786 187.487 137.003 187.075 137.227 186.67C138.192 184.875 139.136 183.073 139.8 181.131C140.234 179.881 140.577 178.589 140.842 177.29C140.933 176.857 140.982 176.465 141.038 176.074C141.164 175.076 141.241 174.07 141.479 173.106C141.842 171.681 143.773 171.898 143.968 173.281C144.052 173.867 144.045 174.496 143.982 175.125L143.989 175.131Z" fill="#292B2D"/>
<path d="M147.563 183.911C146.612 185.356 145.269 186.376 143.647 187.019C142.856 187.34 142.01 187.529 141.164 187.654C140.646 187.738 140.094 187.787 139.59 187.689C139.122 187.612 138.702 187.41 138.381 186.991C138.052 186.572 138.22 185.978 138.499 185.601C139.087 184.819 140.36 184.944 141.234 184.798C141.262 184.791 141.29 184.791 141.318 184.784C141.814 184.693 142.793 184.386 143.241 184.148C143.989 183.757 144.402 183.45 144.898 182.856C144.926 182.821 145.136 182.542 145.143 182.542C145.241 182.395 145.325 182.241 145.402 182.088C145.486 181.941 145.549 181.787 145.619 181.634C145.619 181.606 145.71 181.354 145.724 181.32C145.759 181.159 145.801 180.998 145.829 180.838C145.836 180.754 145.85 180.677 145.857 180.593C145.857 180.572 145.857 180.537 145.864 180.495C145.857 180.307 145.843 180.118 145.836 179.937C145.822 179.853 145.815 179.811 145.815 179.804C145.801 179.727 145.787 179.664 145.766 179.594C145.731 179.448 145.668 179.308 145.612 179.168C145.584 179.133 145.458 178.91 145.437 178.882C145.402 178.826 145.353 178.763 145.311 178.707C145.164 178.561 145.052 178.442 144.926 178.337C144.898 178.316 144.794 178.239 144.752 178.205C144.64 178.135 144.521 178.065 144.402 178.009C144.367 177.988 144.129 177.89 144.094 177.869C143.968 177.834 143.842 177.792 143.71 177.772C143.675 177.765 143.633 177.758 143.591 177.758C143.556 177.744 143.514 177.744 143.472 177.737H143.584C143.549 177.737 143.465 177.73 143.325 177.723C143.297 177.723 143.269 177.716 143.234 177.716C143.22 177.723 143.01 177.716 142.982 177.723C142.577 177.744 142.584 177.744 142.234 177.862C141.695 178.037 141.122 177.758 140.884 177.276C140.674 176.829 140.779 176.41 141.052 176.081C141.122 175.997 141.192 175.928 141.283 175.858C142.059 175.236 143.045 175.02 144.003 175.131C144.689 175.194 145.374 175.418 145.962 175.767C147.304 176.542 148.241 177.806 148.528 179.329C148.822 180.893 148.444 182.584 147.577 183.918L147.563 183.911Z" fill="#292B2D"/>
<path d="M124.023 173.93C123.967 173.672 123.687 173.441 123.428 173.399C123.142 173.357 122.89 173.427 122.617 173.511C122.519 173.539 122.414 173.553 122.316 173.581C122.183 173.623 122.058 173.7 121.932 173.77C121.799 173.811 121.687 173.881 121.575 173.93C121.33 174.035 121.141 174.119 120.939 174.189C120.771 174.244 120.596 174.286 120.428 174.328C120.323 174.356 120.281 174.363 120.239 174.37C120.211 174.37 120.113 174.377 120.016 174.384C119.813 174.398 119.603 174.419 119.393 174.426C119.295 174.426 119.197 174.426 119.106 174.426C119.057 174.426 119.015 174.419 118.973 174.412C118.498 174.356 118.057 174.566 117.889 175.034C117.736 175.481 117.924 175.963 118.351 176.186C118.806 176.431 119.33 176.633 119.848 176.675C120.477 176.724 121.058 176.696 121.673 176.535C121.932 176.472 122.177 176.382 122.414 176.27C122.561 176.2 122.708 176.13 122.848 176.046C122.932 175.998 123.002 175.935 123.079 175.872C123.128 175.83 123.449 175.592 123.107 175.844C123.428 175.613 123.666 175.362 123.834 175.006C124.002 174.643 124.107 174.321 124.016 173.916L124.023 173.93Z" fill="#292B2D"/>
<path d="M120.379 174.349C120.435 174.335 120.4 174.342 120.309 174.363C120.337 174.363 120.358 174.356 120.379 174.349Z" fill="#292B2D"/>
<path d="M111.015 172.505C111.155 173.686 109.218 174.049 108.952 172.896C108.938 172.82 108.917 172.743 108.91 172.666C108.924 172.268 109.001 171.877 109.12 171.507C109.246 171.102 109.526 170.822 109.966 170.78C110.33 170.745 110.812 171.032 110.882 171.402C110.903 171.514 110.931 171.632 110.966 171.737C110.973 172.002 110.994 172.254 111.022 172.505H111.015Z" fill="#292B2D"/>
<path d="M155.123 179.902C154.697 180.747 153.368 180.873 152.655 180.202C152.648 179.958 152.662 179.734 152.683 179.504C152.704 179.308 152.753 179.127 152.822 178.959C152.85 178.875 152.871 178.805 152.906 178.721C152.99 178.491 153.298 178.26 153.529 178.198C153.704 178.149 153.886 178.142 154.067 178.17C154.536 178.24 154.879 178.693 154.921 179.14C154.921 179.168 154.921 179.189 154.928 179.224C154.935 179.28 154.949 179.343 154.956 179.399C154.997 179.573 155.06 179.734 155.123 179.902Z" fill="#292B2D"/>
<path d="M156.284 182.737C156.116 182.982 155.892 183.156 155.613 183.254C155.046 183.443 154.48 183.212 154.039 182.842C153.92 182.744 153.808 182.647 153.703 182.535C153.542 182.36 153.368 182.165 153.235 181.962C153.095 181.767 152.997 181.543 152.899 181.313C152.752 180.97 152.661 180.579 152.647 180.202C152.64 179.958 152.654 179.734 152.675 179.504C152.696 179.308 152.745 179.127 152.815 178.959C152.843 178.875 152.864 178.805 152.899 178.721C152.983 178.491 153.291 178.26 153.522 178.198C153.696 178.149 153.878 178.142 154.06 178.17C154.529 178.24 154.871 178.693 154.913 179.14C154.913 179.168 154.913 179.189 154.92 179.224C154.927 179.28 154.941 179.343 154.948 179.399C154.99 179.573 155.053 179.734 155.116 179.902C155.151 179.979 155.2 180.048 155.242 180.125C155.319 180.244 155.396 180.356 155.48 180.461C155.648 180.635 155.836 180.796 156.039 180.942C156.151 181.054 156.221 181.145 156.305 181.236C156.452 181.438 156.48 181.669 156.522 181.913C156.564 182.193 156.431 182.514 156.277 182.737H156.284Z" fill="#292B2D"/>
<path d="M185.195 209.012C184.37 215.075 179.307 219.14 173.719 220.872C173.124 221.046 172.649 221.696 172.712 222.318C173.194 226.683 171.103 231.188 167.334 233.527C165.383 234.743 163.089 235.273 160.795 235.211C159.704 235.183 158.613 234.973 157.571 234.659C156.599 234.365 155.739 233.863 154.836 233.43C163.753 222.758 171.11 210.94 176.726 198.354C182.174 198.669 185.923 203.641 185.195 209.012Z" fill="#292B2D"/>
<path d="M186.979 213.322C184.979 218.155 180.531 221.493 175.691 223.246C175.852 228.331 173.236 233.422 168.858 236.132C166.439 237.627 163.536 238.353 160.697 238.235C158.396 238.13 155.697 237.599 153.711 236.244C153.368 236.014 153.053 235.762 152.766 235.476C152.109 234.84 152.242 233.981 152.752 233.478C153.137 233.094 153.739 232.913 154.361 233.199C154.522 233.269 154.676 233.346 154.836 233.429C155.746 233.869 156.613 234.372 157.578 234.666C158.62 234.98 159.718 235.19 160.802 235.217C163.096 235.273 165.39 234.75 167.341 233.534C171.11 231.194 173.201 226.697 172.719 222.324C172.649 221.696 173.132 221.053 173.726 220.879C179.314 219.147 184.37 215.075 185.202 209.019C185.93 203.648 182.174 198.683 176.733 198.361C176.516 198.34 176.307 198.34 176.083 198.34C174.46 198.354 174.432 196.196 175.943 195.917C176.579 195.798 177.216 195.77 177.852 195.805C180.132 195.938 182.335 196.978 184.069 198.459C188.405 202.161 189.084 208.258 186.993 213.329L186.979 213.322Z" fill="#292B2D"/>
<path d="M120.624 208.384C120.589 208.691 120.463 208.929 120.289 209.082C119.61 209.753 118.128 209.327 118.016 208.202C117.848 206.519 117.589 204.892 116.855 203.355C116.162 201.874 115.148 200.54 113.98 199.402C110.302 195.805 105.378 194.548 100.406 194.674C99.4619 194.688 98.5178 194.764 97.5807 194.883C96.6156 195.002 95.6645 195.163 94.7273 195.365C90.6991 196.238 86.8666 197.719 83.0622 199.29C82.181 199.653 81.2928 200.024 80.4116 200.394C77.803 201.483 75.1805 202.559 72.5019 203.446C70.6766 204.054 69.7605 201.232 71.5788 200.617C76.1665 199.074 80.5515 197.027 85.0483 195.274C89.2934 193.619 93.8531 192.222 98.4409 191.81C99.6508 191.698 100.868 191.656 102.078 191.698C104.553 191.775 107.029 192.194 109.435 193.074C114.897 195.065 120.324 200.387 120.68 206.442C120.722 207.085 120.701 207.734 120.624 208.391V208.384Z" fill="#292B2D"/>
<path d="M24.582 140.238C23.9176 140.238 23.9805 141.258 24.6379 141.258C25.2953 141.258 25.2394 140.238 24.582 140.238Z" fill="#292B2D"/>
<path d="M95.5594 225.104C91.1885 226.508 86.7686 227.765 82.2997 228.827C81.7053 228.967 81.1108 229.106 80.5164 229.239C80.1317 229.33 79.7471 229.414 79.3624 229.497C75.1174 230.454 70.8024 231.348 66.4804 231.823C62.8158 232.228 58.9484 232.27 55.3957 231.16C51.752 230.014 48.7029 227.737 46.6538 224.504C44.6117 221.277 43.6116 217.554 42.9612 213.839C42.1709 209.369 41.9471 204.829 41.9681 200.303C42.0031 191.691 42.8913 183.08 42.2828 174.475C42.0171 170.592 41.4926 166.715 40.4226 162.965C39.5274 159.787 38.5553 156.421 36.5551 153.739C34.6879 151.238 32.1282 149.38 29.9533 147.18C28.2748 145.476 26.6313 143.73 25.0438 141.942C23.6661 140.399 21.61 138.492 21.9667 136.208C22.2114 134.692 24.0018 133.058 25.4774 133.854C25.6173 133.568 25.8201 133.282 26.0859 133.009C27.8552 131.228 30.289 131.885 32.1912 132.995C32.7227 132.01 33.6738 131.284 34.8977 131.27C36.1006 131.249 37.1076 131.996 37.9818 132.751C38.9889 133.617 39.982 134.511 40.975 135.391C42.8843 137.081 44.7865 138.764 46.6957 140.447C48.4301 141.977 50.3533 143.562 52.2346 145.274C53.0459 146 53.8501 146.754 54.6264 147.53C58.8365 151.748 62.1934 156.658 61.48 162.783C61.2912 164.418 58.8155 163.88 58.9903 162.273C59.4659 157.845 56.8923 153.781 53.927 150.714C53.1577 149.911 52.3535 149.143 51.5353 148.382C51.2345 148.095 50.9198 147.816 50.6121 147.537C48.619 145.742 46.5489 144.016 44.5557 142.242L39.6603 137.905C38.7581 137.102 37.8489 136.299 36.9468 135.496C36.5691 135.167 35.4851 133.84 34.8767 133.98C34.2892 134.12 34.4361 135.084 34.576 135.461C34.8697 136.257 35.4711 136.941 35.9817 137.605C37.3804 139.428 38.8071 141.237 40.2267 143.046C42.9962 146.566 42.2409 145.602 45.0383 149.108C46.0873 150.407 43.8634 151.846 42.8353 150.512C39.2476 145.867 39.0938 145.776 35.4572 141.16C34.0934 139.435 32.0024 137.542 31.7576 135.23C31.7506 135.174 31.7506 135.118 31.7506 135.063C31.7226 135.056 31.6947 135.056 31.6597 135.042C30.9184 134.783 27.5265 133.673 27.8552 135.551C28.0021 136.397 28.7993 137.137 29.3728 137.738C30.1211 138.52 30.8694 139.288 31.6177 140.07C33.1493 141.656 34.6809 143.255 36.2125 144.848C37.765 146.461 39.5414 148.011 40.8911 149.799C41.8213 151.029 39.996 152.342 38.912 151.455C37.5902 150.365 36.5551 148.982 35.3732 147.767C34.1424 146.503 32.8136 145.329 31.5897 144.051C30.3169 142.717 29.1001 141.348 27.9251 139.931C27.4076 139.316 24.6941 136.669 24.806 135.915C24.5962 137.256 25.1557 138.611 25.9879 139.686C26.8132 140.762 27.9112 141.6 28.9602 142.466C33.7857 146.454 37.9119 151.273 41.1079 156.651C44.262 161.952 44.9683 169.167 45.346 175.243C45.8635 183.715 45.0103 192.194 45.0453 200.68C45.0593 205.024 45.297 209.397 46.0733 213.671C46.7097 217.17 47.7518 220.732 49.8708 223.652C54.2487 229.658 62.2983 229.358 68.9071 228.331C73.0333 227.681 77.1595 226.871 81.2507 225.914C82.7963 225.551 84.3418 225.181 85.8804 224.783C88.8247 224.036 91.755 223.225 94.6643 222.387C96.4546 221.864 97.3428 224.559 95.5594 225.132V225.104Z" fill="#292B2D"/>
<path d="M71.306 187.941C70.5997 180.481 69.8654 172.882 69.1031 165.374C68.3478 157.964 67.089 150.484 66.7533 143.053C66.7533 142.976 66.7533 142.906 66.7463 142.829C66.6763 141.146 66.6973 139.456 66.7603 137.765C66.8162 136.431 66.9421 135.09 66.5505 133.784C65.6693 130.865 62.1865 130.257 60.0325 132.255C57.7666 134.364 58.41 137.556 57.4239 140.196C56.4868 142.682 54.6125 144.275 52.2627 145.274C52.0109 145.378 51.7592 145.476 51.5004 145.567C50.5073 145.909 50.3115 146.824 50.6332 147.536C50.9409 147.816 51.2556 148.095 51.5564 148.382C51.8151 148.465 52.1088 148.479 52.4305 148.402C53.1928 148.228 53.9411 147.928 54.6475 147.529C56.0672 146.754 57.333 145.623 58.2771 144.421C59.9556 142.284 60.529 139.993 60.8787 137.353C61.0186 136.313 61.1864 134.986 62.0466 134.245C62.8089 133.589 63.6551 133.833 63.8789 134.783C64.1587 135.901 63.9349 137.151 63.8859 138.282C63.816 139.854 63.83 141.432 63.9069 143.004C64.1727 148.151 65.3685 153.326 65.5644 158.537C65.7742 164.026 66.5644 169.516 67.082 174.992C67.8023 182.654 68.5296 190.308 69.2499 197.97C69.6626 202.342 70.0052 206.735 70.5018 211.101C70.7186 212.972 73.6139 212.84 73.467 210.933C72.8936 203.264 72.0264 195.609 71.299 187.962L71.306 187.941Z" fill="#292B2D"/>
<path d="M140.262 157.699C132.115 153.697 121.065 153.473 113.834 159.535C110.001 162.748 107.889 167.721 108.91 172.652C108.924 172.261 109.001 171.87 109.12 171.5C109.001 171.877 108.931 172.261 108.91 172.659C108.875 173.204 108.924 173.756 109.029 174.293C109.113 174.74 109.211 175.187 109.386 175.606C109.491 175.886 109.623 176.151 109.749 176.417C109.847 176.605 109.931 176.815 110.099 177.003C109.763 178.519 109.672 180.083 109.798 181.627C109.826 181.585 109.847 181.529 109.875 181.487C110.4 180.37 112.344 181.026 111.952 182.207C111.603 183.247 111.092 184.162 110.456 184.972C109.148 186.642 107.358 187.878 105.511 189.065C104.301 189.854 103.071 190.623 102.084 191.677C104.56 191.754 107.036 192.173 109.442 193.053C114.904 195.044 120.331 200.366 120.687 206.421C121.065 206.198 121.484 206.009 121.89 205.827C121.736 203.935 121.582 202.056 121.436 200.163C121.303 198.291 121.086 196.385 121.065 194.499C121.065 194.164 121.065 193.821 121.079 193.486C121.1 192.816 121.47 192.278 122.142 192.145C122.715 192.026 123.506 192.383 123.631 193.004C123.736 193.542 123.82 194.08 123.897 194.618C125.233 194.527 126.709 194.22 127.457 193.053C127.926 192.327 127.296 191.566 126.632 191.342C125.988 191.119 125.31 191.314 124.653 191.405C123.995 191.503 123.338 191.566 122.673 191.552C121.429 191.51 120.17 191.188 119.044 190.679C116.743 189.631 114.953 187.752 113.924 185.454C112.854 183.052 112.582 180.384 113.085 177.806C113.379 176.291 113.959 174.852 114.645 173.469C115.379 171.982 116.288 170.599 117.211 169.237C118.107 167.903 118.897 166.506 120.03 165.36C120.806 164.578 121.68 163.873 122.617 163.286C123.226 162.909 123.862 162.581 124.52 162.308C124.548 162.294 124.576 162.287 124.611 162.273C128.044 160.883 131.8 160.911 135.283 162.036C135.017 162.469 134.765 162.916 134.527 163.377C133.136 162.972 131.632 162.993 130.275 163.537C129.772 163.733 129.457 164.25 129.632 164.788C129.807 165.339 130.366 165.535 130.891 165.43C131.136 165.381 131.443 165.339 131.73 165.332C131.898 165.325 132.066 165.311 132.227 165.311H132.478C132.478 165.311 132.562 165.318 132.583 165.311C132.898 165.339 133.213 165.402 133.52 165.472C133.45 165.605 133.394 165.745 133.338 165.877C133.22 166.143 133.101 166.415 132.989 166.68C132.583 167.623 132.22 168.594 131.884 169.6C131.898 169.509 131.898 169.432 131.87 169.348C131.856 169.209 131.814 169.083 131.723 168.957C131.667 168.88 131.604 168.818 131.548 168.741C131.464 168.685 131.387 168.629 131.303 168.573C131.059 168.433 130.723 168.433 130.457 168.51C130.415 168.524 130.359 168.538 130.317 168.552C130.296 168.559 130.275 168.566 130.254 168.573C130.198 168.587 130.142 168.608 130.093 168.636C130.038 168.657 129.982 168.678 129.94 168.72L129.436 169.09C129.401 169.118 129.359 169.139 129.324 169.174C129.233 169.237 129.121 169.314 129.03 169.439C128.954 169.516 128.891 169.593 128.814 169.67C128.765 169.733 128.716 169.809 128.667 169.872C128.611 169.991 128.569 170.11 128.576 170.242C128.555 170.326 128.562 170.403 128.583 170.487C128.597 170.606 128.639 170.724 128.716 170.822C128.814 170.955 128.94 171.074 129.086 171.15C129.31 171.276 129.576 171.262 129.814 171.206C129.87 171.192 129.94 171.171 129.996 171.157C130.087 171.15 130.17 171.129 130.254 171.095C130.296 171.074 130.345 171.06 130.387 171.039C130.485 170.997 130.569 170.948 130.667 170.913C130.758 170.871 130.849 170.822 130.94 170.78C131.031 170.745 131.115 170.696 131.205 170.654C131.296 170.599 131.373 170.522 131.492 170.403C131.534 170.368 131.576 170.326 131.611 170.291C131.646 170.242 131.688 170.194 131.723 170.138C131.338 171.402 131.052 172.687 130.905 174C130.401 178.428 131.366 182.912 134.255 186.369C134.332 186.467 134.408 186.558 134.492 186.649C135.024 187.249 136.115 187.096 136.618 186.551C136.842 186.299 136.968 186.027 136.989 185.755C137.178 186.006 137.283 186.32 137.248 186.656C138.213 184.861 139.157 183.059 139.821 181.117C140.255 179.867 140.598 178.575 140.87 177.227C140.682 176.808 140.78 176.389 141.052 176.067C141.178 175.069 141.255 174.063 141.493 173.099C141.857 171.674 143.787 171.891 143.983 173.274C144.067 173.86 144.06 174.489 143.997 175.117C144.682 175.18 145.367 175.404 145.955 175.753C147.298 176.528 148.235 177.792 148.521 179.315C148.815 180.88 148.437 182.57 147.57 183.904C146.619 185.349 145.276 186.369 143.654 187.012C142.864 187.333 142.017 187.522 141.171 187.647C140.654 187.731 140.101 187.78 139.598 187.682C139.129 188.374 138.612 189.03 138.045 189.624C137.206 190.49 135.723 189.498 136.29 188.416C136.388 188.241 136.472 188.059 136.569 187.885C134.814 190.308 133.373 192.962 132.646 195.875C131.954 198.648 131.849 201.511 132.296 204.333C132.569 205.995 133.031 207.581 132.884 209.285C132.737 210.926 131.94 212.379 131.681 213.992C131.576 214.656 131.667 216.185 132.534 216.395C133.506 216.632 134.562 214.739 134.982 214.132C136.465 212.009 137.639 209.718 138.661 207.35C138.668 207.085 138.765 206.805 138.954 206.533L139.066 206.379C139.178 206.114 139.29 205.848 139.395 205.576C139.549 205.178 139.849 204.961 140.192 204.871C141.871 202.657 143.647 200.512 145.227 198.215C147.228 195.33 149.074 192.348 150.773 189.282C151.941 187.172 153.032 185.014 154.046 182.835C153.927 182.737 153.815 182.64 153.711 182.528C153.55 182.353 153.375 182.158 153.242 181.955C153.102 181.76 153.004 181.536 152.906 181.306C152.759 180.963 152.669 180.572 152.655 180.181C152.648 179.951 152.662 179.727 152.683 179.497C152.704 179.301 152.752 179.119 152.822 178.952C152.85 178.868 152.871 178.798 152.906 178.714C152.99 178.484 153.298 178.253 153.529 178.191C153.704 178.142 153.885 178.135 154.067 178.163C154.536 178.232 154.879 178.686 154.92 179.133C154.92 179.161 154.92 179.182 154.927 179.217C154.934 179.273 154.948 179.336 154.955 179.392C154.997 179.566 155.06 179.727 155.123 179.895C155.235 179.671 155.284 179.399 155.249 179.078C154.172 169.991 148.556 161.77 140.262 157.692V157.699Z" fill="#292B2D"/>
<path d="M88.9084 217.631C88.3769 220.187 87.3348 222.611 85.8802 224.755C84.8731 226.257 83.6702 227.626 82.2995 228.82C81.7051 228.96 81.1106 229.099 80.5162 229.232C80.1315 229.323 79.7469 229.407 79.3622 229.49C78.9007 228.89 78.8377 227.933 79.607 227.332C80.1875 226.885 80.733 226.403 81.2505 225.886C84.4815 222.632 86.3977 218.036 86.3278 213.461C86.2369 207.951 83.3415 203.125 79.4252 199.395C78.579 198.585 79.558 197.069 80.6211 197.67C81.8659 198.375 82.9779 199.081 83.957 200.142C84.9081 201.169 85.7893 202.293 86.5026 203.502C88.9853 207.755 89.9154 212.812 88.9084 217.638V217.631Z" fill="#292B2D"/>
<path d="M99.8532 221.745C99.3357 221.661 98.8811 221.891 98.6153 222.338C98.3216 222.827 98.1328 223.4 97.9509 223.931C97.7971 224.392 95.3144 240.526 95.2025 240.994C95.0906 241.461 94.9997 241.943 94.9228 242.418C94.7969 243.152 94.615 243.941 95.0696 244.604C95.5732 245.338 96.5802 245.408 97.2026 244.786C97.5104 244.479 97.6572 244.06 97.6992 243.641C97.7132 243.48 97.7202 243.382 97.7202 243.326C97.7341 243.18 97.7481 243.033 97.7621 242.893C97.8111 242.425 97.881 241.964 97.9509 241.503C98.0978 240.484 100.685 223.812 100.755 222.785C100.783 222.311 100.301 221.815 99.8532 221.745Z" fill="#292B2D"/>
<path d="M147.367 242.747C144.997 244.381 142.059 244.479 139.276 244.444C135.849 244.402 132.415 244.283 128.988 244.199C121.911 244.025 114.827 243.836 107.749 243.676C103.749 243.585 99.7486 243.445 95.7483 243.473C94.2307 243.487 94.4335 245.68 95.8812 245.764C103.133 246.183 110.421 246.239 117.68 246.427C124.827 246.616 131.968 246.846 139.115 246.979C142.451 247.042 145.927 246.846 148.773 244.926C150.165 243.99 148.745 241.79 147.36 242.74L147.367 242.747Z" fill="#292B2D"/>
<path d="M172.362 199.898C171.236 200.079 170.194 200.484 169.047 200.589C167.991 200.687 166.942 200.659 165.9 200.491C163.781 200.142 161.753 199.29 160.109 197.907C156.857 195.169 155.277 190.713 155.829 186.53C156.032 184.993 153.794 184.497 153.43 186.041C152.221 191.119 154.123 196.692 158.116 200.079C160.116 201.77 162.592 202.901 165.173 203.355C166.452 203.579 167.788 203.655 169.089 203.551C170.446 203.439 172.033 203.215 173.229 202.524C174.411 201.832 173.81 199.667 172.369 199.905L172.362 199.898Z" fill="#292B2D"/>
<path d="M125.044 162.762C124.345 161.785 123.268 161.296 122.072 161.582C121.701 161.673 121.484 162.106 121.554 162.455C121.631 162.846 121.96 163.077 122.351 163.084C122.47 163.084 122.624 163.132 122.673 163.146C122.855 163.223 122.862 163.244 122.981 163.335C123.282 163.559 123.442 163.698 123.603 164.054C123.673 164.215 123.736 164.543 123.715 164.837C123.687 165.242 123.561 165.598 123.393 165.94C123.065 166.618 122.54 167.232 121.96 167.714C121.666 167.952 121.309 168.182 120.967 168.371C120.617 168.559 120.232 168.657 119.862 168.818C119.379 169.027 119.064 169.509 119.239 170.033C119.414 170.571 119.946 170.766 120.463 170.655C121.023 170.536 121.61 170.201 122.107 169.914C122.596 169.635 123.044 169.293 123.463 168.922C124.331 168.168 125.037 167.211 125.415 166.122C125.799 165.018 125.743 163.74 125.044 162.762Z" fill="#292B2D"/>
<path d="M113.246 130.467C113.211 130.746 113.197 131.033 113.127 131.312C113.106 131.417 113.071 131.508 113.022 131.605C113.239 132.492 112.791 133.526 111.61 133.526C103.805 133.54 96 133.477 88.2022 133.442C74.3761 133.393 60.5569 133.337 46.7307 133.289C39.7931 133.261 32.8486 133.24 25.904 133.205C18.9595 133.184 11.9939 133.24 5.06334 132.904C4.55282 132.876 4.17517 132.639 3.93739 132.311C3.72059 132.45 3.45484 132.499 3.21006 132.478C2.59463 132.436 2.12607 131.955 2.07012 131.347C2.04215 130.984 2.01417 130.621 1.9862 130.257C1.97221 129.894 1.9862 129.531 1.9862 129.161C1.9792 128.93 2.02116 128.714 2.12607 128.497L2.196 128.406C2.34287 127.973 2.69954 127.603 3.22405 127.568C7.14741 127.345 11.0708 127.457 15.0011 127.485C18.9385 127.512 22.8618 127.561 26.7992 127.603C40.6813 127.75 54.5634 127.911 68.4456 128.078C75.3901 128.169 82.3277 128.246 89.2792 128.337C92.7201 128.379 96.1609 128.42 99.6017 128.462C101.385 128.483 103.168 128.504 104.945 128.525C106.665 128.546 108.393 128.504 110.099 128.749C110.218 128.77 110.33 128.798 110.428 128.84C110.574 128.819 110.714 128.812 110.861 128.805C111.162 128.805 111.477 128.798 111.784 128.791C112.036 128.777 112.274 128.826 112.505 128.937C112.673 129.021 112.812 129.133 112.924 129.293C113.05 129.419 113.148 129.573 113.19 129.747C113.274 129.985 113.281 130.215 113.232 130.46L113.246 130.467Z" fill="#292B2D"/>
<path d="M4.62259 119.802C4.44775 118.559 4.27991 117.308 4.13304 116.065C3.84631 113.628 3.60853 111.183 3.43369 108.739C3.07702 103.78 3.16095 98.8139 2.88121 93.8621C2.79728 92.4163 0.398508 92.1369 0.251644 93.6735C-0.230908 98.6463 0.0698127 103.759 0.419488 108.732C0.594326 111.176 0.818119 113.621 1.10485 116.058C1.25172 117.308 1.41257 118.552 1.5874 119.795C1.74826 120.954 1.70629 122.686 2.4546 123.615C3.00709 124.3 4.37082 124.537 4.75547 123.503C5.20305 122.302 4.79743 121.038 4.6156 119.802H4.62259Z" fill="#292B2D"/>
<path d="M40.1566 94.7631C40.0167 92.7377 38.9397 91.1313 36.9326 90.5655C34.9744 90.0138 32.6875 90.2932 30.6804 90.3071C26.1556 90.3351 21.6308 90.4887 17.113 90.7052C14.5463 90.831 11.9867 90.9846 9.4201 91.1592C6.95139 91.3338 4.18895 91.3268 1.85311 92.1929C0.853042 92.5631 0.846048 94.0996 1.972 94.3091C4.0281 94.6933 6.24504 94.4279 8.31512 94.2952C10.4481 94.1625 12.5882 94.0437 14.7212 93.946C18.9942 93.7434 23.2742 93.6177 27.5543 93.5618C29.6313 93.5339 31.7084 93.5059 33.7925 93.5059C34.5618 93.5059 35.401 93.4291 36.1493 93.6736C36.8347 93.8971 36.9116 94.4209 36.9536 95.0914C37.0655 97.047 36.9256 99.0445 36.9046 101.007C36.8836 103.123 36.8556 105.24 36.8347 107.356C36.8067 109.717 36.7787 112.077 36.7577 114.431C36.7438 115.639 36.7368 116.847 36.7228 118.063C36.7158 119.278 36.6249 120.479 36.9186 121.667C37.2753 123.105 39.2754 122.742 39.6111 121.52C39.8978 120.458 39.8279 119.341 39.8489 118.251C39.8699 117.043 39.8908 115.828 39.9118 114.62C39.9468 112.385 39.9748 110.143 40.0097 107.908C40.0447 105.666 40.0727 103.431 40.1076 101.189C40.1356 99.0655 40.3104 96.8863 40.1706 94.7701L40.1566 94.7631Z" fill="#292B2D"/>
<path d="M37.7928 121.094C32.1351 121.017 26.4424 121.282 20.7846 121.38C17.9522 121.429 15.1129 121.492 12.2805 121.555C10.9237 121.583 9.56701 121.611 8.21726 121.667C6.82555 121.729 5.22404 121.611 3.97919 122.309C3.18892 122.749 3.32879 123.936 4.0771 124.321C5.28698 124.942 6.8815 124.761 8.21027 124.775C9.62995 124.782 11.0496 124.761 12.4623 124.74C15.2947 124.705 18.1341 124.663 20.9664 124.614C26.6242 124.509 32.3169 124.572 37.9747 124.293C40.0657 124.188 39.8489 121.122 37.7858 121.094H37.7928Z" fill="#292B2D"/>
<path d="M93.3704 95.2241C93.2165 92.165 93.1466 89.022 92.671 85.9978C92.4682 84.6848 92.0766 83.3577 91.0625 82.4288C90.0345 81.479 88.6637 81.2415 87.314 81.1717C84.1529 81.018 80.9639 81.0599 77.7958 81.0529C71.2709 81.0529 64.7529 81.1647 58.2349 81.4371C54.6822 81.5837 51.1155 81.7164 47.5768 82.0377C46.0313 82.1774 44.3808 82.5406 43.3318 83.7698C42.4156 84.8454 42.1009 86.34 42.6954 87.6042C42.3457 92.9542 42.4856 98.367 42.5065 103.717C42.5135 106.476 42.5135 109.242 42.5345 112C42.5555 114.585 42.6744 117.169 43.2898 119.683C43.8423 121.939 44.8633 124.244 47.1852 125.145C49.521 126.046 52.3044 125.808 54.7662 125.871C60.5358 126.025 66.3125 126.074 72.0821 126.018C75.2781 125.983 78.4672 125.927 81.6632 125.815C84.8593 125.704 88.0343 125.417 91.2303 125.271C91.8108 125.243 92.4892 124.747 92.5521 124.132C93.1815 117.769 93.5312 111.372 93.5802 104.974C93.6011 101.719 93.5382 98.4648 93.3774 95.2101L93.3704 95.2241ZM74.8445 122.784C69.4386 122.861 64.0326 122.854 58.6336 122.742C55.9621 122.693 53.2835 122.637 50.619 122.519C49.8078 122.484 48.8916 122.435 48.1713 122.037C47.2831 121.555 46.9404 120.556 46.6607 119.641C45.9403 117.329 45.8285 114.885 45.7865 112.475C45.7445 109.919 45.7515 107.356 45.7375 104.8C45.7096 99.3029 45.8354 93.7294 45.4578 88.2328C45.8494 87.7718 46.0033 87.1013 45.6606 86.3959C45.7585 86.5985 45.8354 86.1305 45.9893 85.9978C46.2621 85.7464 46.7166 85.6626 47.0593 85.5997C48.3881 85.3622 49.8008 85.3902 51.1365 85.2994C54.0528 85.0968 56.9761 84.9222 59.8994 84.7825C65.6201 84.5102 71.3478 84.3356 77.0755 84.3146C79.9988 84.3006 82.929 84.3146 85.8523 84.3635C86.6916 84.3775 88.1042 84.1749 88.8106 84.7337C89.454 85.2365 89.482 86.382 89.5589 87.1153C90.1463 92.8704 90.3841 98.6673 90.475 104.443C90.5729 110.457 90.3352 116.484 89.8246 122.484C87.5378 122.561 85.2369 122.547 82.95 122.61C80.2505 122.686 77.544 122.742 74.8445 122.784Z" fill="#292B2D"/>
<path d="M6.19603 81.891C6.08413 80.5639 5.98622 79.2299 5.9023 77.9029C5.72746 75.179 5.60857 72.4552 5.54563 69.7243C5.48269 67.0563 5.4687 64.3883 5.50367 61.7203C5.52465 60.3863 5.55262 59.0523 5.5736 57.7253C5.60158 56.2865 5.75543 54.8058 5.62256 53.374C5.48269 51.8445 3.21679 51.621 2.88809 53.1785C2.60835 54.5334 2.60835 55.9792 2.53143 57.3551C2.4545 58.7519 2.39855 60.1418 2.37057 61.5387C2.31463 64.2695 2.31463 66.9934 2.37057 69.7243C2.42652 72.4552 2.53842 75.179 2.69927 77.9029C2.78319 79.2369 2.87411 80.5639 2.986 81.891C3.0979 83.2948 3.04895 84.9082 3.50352 86.2492C3.9581 87.6041 6.24498 87.639 6.4408 86.0885C6.60864 84.7196 6.30792 83.2599 6.19603 81.891Z" fill="#292B2D"/>
<path d="M40.4784 85.453C39.3734 84.4891 37.5691 84.985 36.2054 85.0619C34.7437 85.1457 33.2821 85.2085 31.8134 85.2644C28.8832 85.3692 25.9529 85.4181 23.0226 85.4111C20.0923 85.4041 17.162 85.3552 14.2387 85.2504C11.3504 85.1457 8.35719 84.7057 5.48285 84.9431C3.99323 85.0619 3.85336 87.1572 5.29403 87.5134C8.09843 88.2048 11.1756 88.1489 14.0499 88.2956C17.0361 88.4423 20.0294 88.54 23.0226 88.554C25.9529 88.568 28.8832 88.5261 31.8134 88.4213C33.2751 88.3724 34.7437 88.3096 36.2054 88.2257C37.5621 88.1559 39.6042 88.4353 40.5623 87.3248C41.0239 86.794 41.0309 85.9489 40.4784 85.467V85.453Z" fill="#292B2D"/>
<path d="M42.8701 54.6871C42.8211 52.4312 43.1568 49.3022 40.4364 48.4711C39.3733 48.1428 38.1635 48.2057 37.0655 48.1428C35.6038 48.066 34.1422 48.0241 32.6805 47.9892C27.3865 47.8774 22.0854 47.9752 16.7983 48.2825C13.819 48.4571 10.8468 48.6806 7.88155 49.0159C6.60173 49.1625 5.27296 49.3581 4.22394 50.1613C3.09798 51.0273 2.5385 52.3124 3.00007 53.6884C3.44066 55.0084 5.29395 54.8268 5.62264 53.5417C5.79048 52.8782 6.39193 52.5429 7.01435 52.3963C8.16828 52.1308 9.43411 52.1169 10.616 52.0051C12.9169 51.7956 15.2247 51.621 17.5396 51.4883C22.2812 51.2159 27.0298 51.1181 31.7784 51.181C34.0862 51.2159 36.4011 51.2788 38.709 51.3765C38.7509 51.3765 39.5761 51.4324 39.5342 51.3905C39.709 51.5721 39.6461 52.0889 39.6531 52.3124C39.709 53.5836 39.723 54.8547 39.744 56.1259C39.8209 60.7844 39.758 65.4429 39.5622 70.0945C39.4503 72.7555 39.3034 75.4095 39.1216 78.0636C39.0307 79.3766 38.9327 80.6967 38.8139 82.0097C38.702 83.3297 38.4852 84.6847 38.653 85.9978C38.7999 87.1152 40.6252 87.8276 41.1007 86.5076C41.9749 84.0631 41.9609 81.2205 42.1777 78.6433C42.4015 75.9753 42.5764 73.3073 42.6953 70.6323C42.933 65.3172 42.989 59.9882 42.8701 54.6662V54.6871Z" fill="#292B2D"/>
<path d="M68.6761 71.219C68.5013 68.2297 68.1656 65.2404 67.69 62.279C67.4522 60.7634 67.1725 59.2479 66.8508 57.7462C66.592 56.4891 66.4172 55.0782 65.6619 53.9887C63.8646 51.4045 60.0601 52.1658 57.3886 52.3124C53.9128 52.494 50.437 52.6896 46.9613 52.8782C46.4437 52.8991 46.0871 53.1436 45.8633 53.4649C45.3388 53.4229 44.6954 53.7791 44.6604 54.3379C44.4226 57.411 44.5625 60.505 44.6884 63.5851C44.8212 66.756 44.9471 69.9199 45.087 73.0838C45.1989 75.5283 45.4157 78.5804 48.5138 78.8877C49.9195 79.0274 51.3881 78.8319 52.7938 78.755C54.3534 78.6782 55.9199 78.6014 57.4865 78.5245C59.053 78.4407 60.6126 78.3779 62.1861 78.2871C63.41 78.2312 64.6968 78.1753 65.8437 77.6934C68.5362 76.534 68.83 73.7892 68.6761 71.205V71.219ZM65.3402 74.4736C64.7947 75.186 63.6478 75.2 62.8295 75.2489C61.5357 75.3257 60.2349 75.3746 58.9411 75.4375C56.2906 75.5702 53.654 75.7029 51.0035 75.8356C50.3601 75.8705 48.7586 76.2407 48.4089 75.654C47.9403 74.9067 48.1432 73.5797 48.1082 72.7346C47.9683 69.6964 47.8075 66.6512 47.6536 63.6061C47.5277 61.0079 47.4088 58.4028 47.0592 55.8186C47.0871 55.8186 47.1011 55.8255 47.1361 55.8255C49.7726 55.6719 52.4092 55.5252 55.0458 55.3786L59.0041 55.1481C60.0391 55.0922 61.1581 54.9106 62.1791 55.1062C63.1932 55.2947 63.417 55.8884 63.6478 56.8243C63.9485 58.0466 64.1863 59.2967 64.4101 60.533C64.8786 63.0822 65.2213 65.6455 65.4661 68.2227C65.585 69.4799 65.6969 70.744 65.7458 72.0012C65.7738 72.7904 65.8437 73.8031 65.3402 74.4736Z" fill="#4CB210"/>
<path d="M65.3406 74.4736C64.7951 75.186 63.6482 75.2 62.8299 75.2489C61.5361 75.3257 60.2353 75.3746 58.9415 75.4375C56.291 75.5702 53.6545 75.7029 51.0039 75.8356C50.3605 75.8705 48.759 76.2407 48.4093 75.654C47.9408 74.9067 48.1436 73.5797 48.1086 72.7346C47.9687 69.6964 47.8079 66.6512 47.654 63.6061C47.5281 61.0079 47.4092 58.4028 47.0596 55.8186C47.0875 55.8186 47.1015 55.8256 47.1365 55.8256C49.7731 55.6719 52.4096 55.5252 55.0462 55.3786L59.0045 55.1481C60.0395 55.0922 61.1585 54.9106 62.1796 55.1062C63.1936 55.2947 63.4174 55.8884 63.6482 56.8243C63.9489 58.0466 64.1867 59.2968 64.4105 60.533C64.879 63.0822 65.2217 65.6455 65.4665 68.2227C65.5854 69.4799 65.6973 70.744 65.7462 72.0012C65.7742 72.7904 65.8441 73.8032 65.3406 74.4736Z" fill="#4CB210"/>
<path d="M94.4475 64.3813C94.3426 62.6143 94.1538 60.8612 93.867 59.1082C93.6153 57.4808 93.4754 55.5182 92.5523 54.1004C91.6921 52.7874 90.1605 52.2007 88.6569 52.0261C86.9644 51.8375 85.2231 51.7956 83.5236 51.7467C79.6772 51.635 75.8308 51.7188 71.9983 51.9842C71.236 52.0331 70.7815 52.515 70.6206 53.0807C70.2569 53.3112 69.9842 53.7163 69.9492 54.275C69.7394 57.3272 69.9422 60.4282 70.0052 63.4873C70.0751 66.4976 70.1311 69.5008 70.215 72.5111C70.2849 75.1022 70.9493 77.6515 73.7467 78.4617C74.9776 78.8179 76.3203 78.7061 77.5791 78.6363C79.0967 78.5525 80.6073 78.4547 82.1109 78.329C85.6077 78.0287 89.0835 77.5677 92.5523 76.9601C93.1957 76.8413 93.881 76.4502 93.9789 75.7308C94.4825 71.9733 94.6713 68.1738 94.4545 64.3813H94.4475ZM91.0696 74.0755C87.9086 74.5505 84.7475 74.9486 81.5654 75.207C79.88 75.3467 78.1876 75.4654 76.4882 75.5283C75.3902 75.5702 74.0334 75.6819 73.5998 74.4667C73.1173 73.1117 73.3481 71.3796 73.3131 69.9688C73.2711 68.2855 73.2152 66.6023 73.1662 64.9191C73.0753 61.6574 73.1313 58.3399 72.8236 55.0782C75.9567 54.8757 79.1107 54.7779 82.2578 54.8198C83.9363 54.8408 85.6217 54.9036 87.3001 55.0014C88.2163 55.0503 89.608 55.0293 90.0766 56.0002C90.671 57.2503 90.7409 58.9615 90.9368 60.3234C91.1675 61.9578 91.3214 63.6061 91.4053 65.2544C91.5452 68.1948 91.4333 71.1351 91.0696 74.0616V74.0755Z" fill="#4CB210"/>
<path d="M91.0693 74.0756C87.9083 74.5505 84.7472 74.9486 81.5651 75.207C79.8797 75.3467 78.1873 75.4655 76.4878 75.5283C75.3899 75.5702 74.0331 75.682 73.5995 74.4667C73.117 73.1118 73.3478 71.3796 73.3128 69.9688C73.2708 68.2856 73.2149 66.6024 73.1659 64.9192C73.075 61.6575 73.131 58.3399 72.8232 55.0783C75.9563 54.8757 79.1104 54.7779 82.2575 54.8199C83.9359 54.8408 85.6214 54.9037 87.2998 55.0014C88.216 55.0503 89.6077 55.0294 90.0762 56.0002C90.6707 57.2504 90.7406 58.9615 90.9364 60.3235C91.1672 61.9578 91.3211 63.6061 91.405 65.2544C91.5449 68.1948 91.433 71.1352 91.0693 74.0616V74.0756Z" fill="#4CB210"/>
<path d="M71.0262 27.0013C70.4177 24.3333 69.8303 21.2952 66.6063 20.8342C65.0957 20.6177 63.5151 20.6945 61.9906 20.6875C60.417 20.6736 58.8435 20.6875 57.2699 20.7085C53.5774 20.7713 49.8848 20.9459 46.2062 21.2183C45.1222 21.3021 44.6746 22.245 44.8145 23.0762C44.7516 23.1879 44.7026 23.2997 44.6746 23.4393C43.4018 29.9417 43.6676 36.9749 44.7376 43.4913C44.9544 44.8183 45.2621 46.1383 46.1852 47.172C47.2273 48.3454 48.6959 48.6108 50.1925 48.7086C53.5914 48.939 57.0112 48.946 60.417 48.7505C64.2774 48.527 68.0959 48.0031 71.8934 47.2558C72.6137 47.1161 72.9844 46.299 72.9984 45.6494C73.0963 39.3775 72.4319 33.1126 71.0332 26.9944L71.0262 27.0013ZM52.843 45.6285C51.6681 45.5936 50.1366 45.7542 49.0176 45.3212C48.1084 44.965 48.0175 43.6589 47.8916 42.8278C47.4511 39.8874 47.1853 36.9191 47.1014 33.9507C47.0035 30.717 47.1853 27.4902 47.3322 24.2635C50.759 24.0121 54.1928 23.8374 57.6266 23.7676C59.5638 23.7257 61.501 23.7187 63.4382 23.7327C64.5782 23.7397 66.6692 23.3485 67.2567 24.6127C67.935 26.0724 68.1379 27.9233 68.4456 29.4947C68.7953 31.2548 69.068 33.0358 69.2848 34.8238C69.6694 38.0156 69.8303 41.2214 69.8093 44.4342C64.2215 45.405 58.5148 45.8101 52.85 45.6355L52.843 45.6285Z" fill="#4CB210"/>
<path d="M78.5862 93.4291C77.0266 94.7701 75.8308 96.5231 74.5789 98.1365C73.3131 99.7708 72.0473 101.398 70.7884 103.039C68.6834 105.784 66.5853 108.522 64.4803 111.267C63.2774 109.591 62.1654 107.845 61.1514 106.043C59.7667 103.591 58.6757 101.028 57.5497 98.4508C56.8084 96.7676 54.2628 97.5219 54.7803 99.3448C56.3678 104.953 59.5149 110.275 63.0746 114.864C63.669 115.625 64.9838 115.988 65.6832 115.087C68.2428 111.763 70.8024 108.438 73.362 105.121C74.6209 103.479 75.8727 101.838 77.1246 100.19C78.4044 98.5067 79.845 96.8304 80.7612 94.9167C81.4465 93.4919 79.6842 92.4862 78.5932 93.4291H78.5862Z" fill="#4CB210"/>
<path d="M143.304 57.5437C137.129 53.4509 129.345 52.1867 122.464 54.5754C122.771 52.1797 122.618 49.7352 121.974 47.3955C120.799 43.149 118.065 39.3845 114.75 36.5279C106.476 29.3969 94.028 26.5543 83.6846 30.4376C82.4538 30.8986 83.0482 32.6865 84.314 32.3583C92.7692 30.1722 102.12 31.3665 109.575 35.9342C115.785 39.7407 120.834 46.4945 119.946 54.0655C119.876 54.6522 119.764 55.2319 119.631 55.8116C119.009 56.1329 118.393 56.4821 117.792 56.8732C115.995 58.0535 114.351 59.5202 113.05 61.2314C112.001 62.6143 110.225 65.1566 112.155 66.6023C114.029 68.0132 116.624 65.5687 117.904 64.2975C119.331 62.8867 120.457 61.1336 121.219 59.2828C121.436 58.7659 121.617 58.2351 121.778 57.7043C127.786 54.9944 134.814 55.637 140.598 58.9964C149.039 63.8924 153.417 73.2793 154.193 82.6942C154.326 84.3215 156.858 84.1818 156.746 82.5475C156.081 72.7485 151.683 63.1102 143.297 57.5507L143.304 57.5437ZM115.582 63.0124C115.295 63.2708 114.988 63.5083 114.666 63.7318C114.568 63.8016 114.449 63.8645 114.33 63.9273C114.463 63.7248 114.61 63.5223 114.75 63.3267C115.673 62.0695 116.778 60.945 118.009 59.9812C117.358 61.0987 116.554 62.1254 115.575 63.0124H115.582Z" fill="#4CB210"/>
<path d="M38.534 23.8444C38.1913 23.7536 37.8487 23.6559 37.513 23.5441C37.457 23.5232 37.1843 23.4254 37.1563 23.4114C36.9605 23.3346 36.7717 23.2578 36.5758 23.1739C35.8695 22.8666 35.1981 22.5034 34.5477 22.1123C34.3869 22.0145 34.233 21.9237 34.0722 21.819C34.0162 21.7841 33.8064 21.6444 33.7644 21.6164C33.4777 21.4139 33.198 21.2044 32.9252 20.9809C32.3308 20.499 31.7783 19.9751 31.2118 19.4653C30.5964 18.9135 29.4774 17.824 28.6732 18.704C27.9878 19.4513 28.7081 20.5897 29.1977 21.2463C30.2048 22.5873 31.5825 23.6349 33.0092 24.5079C34.5197 25.4369 36.2681 26.0585 38.0025 26.4216C38.7019 26.5683 39.4152 26.0934 39.5551 25.4019C39.7019 24.6756 39.2194 24.033 38.527 23.8584L38.534 23.8444Z" fill="#4CB210"/>
<path d="M47.0452 15.6867C46.0311 14.0314 45.1919 12.2853 44.5065 10.4694C44.1638 9.56845 43.8981 8.65351 43.6393 7.73158C43.3666 6.76076 43.1498 5.6782 42.5833 4.83309C42.1077 4.12069 41.1566 4.41404 40.9188 5.1404C40.5901 6.16011 40.8279 7.34046 41.0377 8.36715C41.2475 9.39385 41.5902 10.4136 41.9679 11.3914C42.7302 13.3819 43.7792 15.2467 45.066 16.9439C45.9682 18.1312 47.8354 16.9788 47.0382 15.6867H47.0452Z" fill="#4CB210"/>
<path d="M57.193 0.586653C57.0252 -0.216542 55.9062 -0.139715 55.5635 0.460936C54.4166 2.44448 54.1508 4.95184 53.5984 7.1519C53.0319 9.39386 52.3955 11.6288 51.7101 13.8359C51.3115 15.121 53.4375 15.8683 53.969 14.6251C54.9341 12.3762 55.7314 10.0783 56.3608 7.71763C56.9692 5.44075 57.6826 2.94036 57.186 0.593637L57.193 0.586653Z" fill="#4CB210"/>
<path d="M51.2626 32.8682C49.6401 32.8682 49.787 35.3685 51.4095 35.3685C53.032 35.3685 52.8851 32.8682 51.2626 32.8682Z" fill="#292B2D"/>
<path d="M66.5503 32.1208C66.4943 31.9462 66.3964 31.7926 66.2565 31.6668C66.1516 31.5621 66.0257 31.4922 65.8859 31.4573C65.76 31.4014 65.6201 31.3735 65.4733 31.3875C65.2844 31.4014 65.1166 31.4573 64.9627 31.5551C64.8019 31.6599 64.676 31.7926 64.5921 31.9672C64.5641 32.023 64.5361 32.0719 64.5081 32.1278C64.4802 32.2116 64.4452 32.2954 64.4172 32.3792C64.3823 32.5119 64.3893 32.6377 64.4172 32.7634C64.4172 32.8472 64.4522 32.931 64.4942 33.0078C64.5431 33.1335 64.613 33.2383 64.718 33.3221C64.7949 33.371 64.8648 33.4269 64.9417 33.4758C65.0257 33.5037 65.1096 33.5317 65.1935 33.5666C65.3264 33.5945 65.4523 33.5945 65.5782 33.5666C65.711 33.5526 65.8299 33.5107 65.9348 33.4339L66.1027 33.3501C66.2635 33.2453 66.3894 33.1126 66.4733 32.938C66.5572 32.7704 66.5992 32.5888 66.5852 32.4002C66.5712 32.3094 66.5503 32.2256 66.5363 32.1348L66.5503 32.1208Z" fill="#292B2D"/>
<path d="M56.3749 29.7741C56.4169 30.284 56.5078 30.7938 56.5847 31.3037C56.6616 31.7926 56.7525 32.2815 56.8435 32.7704C56.8924 33.0148 56.9344 33.2593 56.9833 33.5037C57.0183 33.6714 57.0393 33.846 57.0812 34.0136C57.1232 34.2161 57.2351 34.3977 57.326 34.5793C57.5218 34.9565 58.0463 35.1241 58.438 35.0473C58.8296 34.9774 59.2632 34.6352 59.3052 34.2161C59.3262 34.0276 59.3471 33.839 59.3331 33.6504C59.3192 33.4618 59.2632 33.2663 59.2213 33.0847C59.1723 32.8612 59.1303 32.6307 59.0814 32.4072C58.9765 31.8974 58.8786 31.3945 58.7597 30.8916C58.6408 30.4097 58.5429 29.9208 58.396 29.4459C58.3261 29.2084 58.2492 28.9709 58.1652 28.7404C58.0673 28.4611 57.9974 28.1468 57.8226 27.9163C57.382 27.3506 56.5427 27.4903 56.3469 28.1887C56.27 28.475 56.3189 28.7893 56.3329 29.0827C56.3469 29.3132 56.3609 29.5367 56.3819 29.7671L56.3749 29.7741Z" fill="#292B2D"/>
<path d="M63.0884 35.3197C62.3331 35.8994 61.6268 36.528 60.8015 37.0029C60.0532 37.4359 59.214 37.7432 58.3608 37.9039C57.4866 38.0645 56.5705 38.0855 55.6963 37.9458C54.7172 37.7851 53.829 37.422 52.8919 37.1356C51.9757 36.8562 51.4512 38.1413 52.0736 38.728C53.7241 40.2646 56.5075 40.4811 58.6266 40.1039C60.8225 39.7128 63.3612 38.6163 64.4172 36.535C64.8158 35.7597 63.8367 34.747 63.0744 35.3267L63.0884 35.3197Z" fill="#292B2D"/>
<path d="M62.1233 60.107C61.9554 59.6041 61.4729 59.2898 60.9484 59.3038C59.7455 59.3387 58.9972 60.8543 58.4167 61.7343C57.8363 62.6143 57.2698 63.5083 56.7523 64.4303C56.1648 65.4639 55.6263 66.5186 55.1018 67.5872C54.3045 66.3649 53.4234 65.1985 52.4233 64.1649C51.3812 63.0893 49.5489 64.6328 50.4091 65.8551C51.696 67.685 52.9828 69.466 54.0458 71.4425C54.5563 72.3924 56.1298 72.2736 56.5564 71.3168C57.3957 69.452 58.3188 67.6221 59.3399 65.8481C59.8364 64.989 60.3329 64.1299 60.8575 63.2918C61.4099 62.3978 62.4939 61.2245 62.1163 60.107H62.1233Z" fill="#292B2D"/>
<path d="M86.9152 58.6542C85.8732 58.6681 85.062 59.7996 84.4815 60.5399C83.894 61.2803 83.3346 62.0346 82.7891 62.8029C82.0897 63.7946 81.4463 64.8213 80.8239 65.855C80.6001 65.5477 80.3763 65.2334 80.1525 64.9261C79.4741 63.9832 78.8237 62.9844 78.0125 62.1463C77.5789 61.6993 76.7886 61.7343 76.341 62.1184C75.8305 62.5584 75.7886 63.18 76.0823 63.7597C76.5718 64.7235 77.2782 65.5896 77.9006 66.4696C78.53 67.3566 79.1594 68.2506 79.7888 69.1376C80.4043 70.0037 81.6771 69.9548 82.1946 69.0189C83.0338 67.4893 84.0199 65.9109 84.971 64.535C85.4746 63.8086 86.0061 63.1032 86.5516 62.4047C87.132 61.6644 88.1811 60.6517 88.0412 59.639C87.9643 59.0523 87.5307 58.6332 86.9152 58.6472V58.6542Z" fill="#292B2D"/>
<path d="M32.8344 59.2828C31.2539 60.065 30.1349 61.4549 28.988 62.754C27.8271 64.0601 26.7361 65.415 25.687 66.8119C23.9457 69.1307 22.3232 71.5403 20.8266 74.0267C20.0573 73.3143 19.3509 72.539 18.7565 71.666C18.3089 71.0095 17.8823 70.339 17.5326 69.6266C17.141 68.8373 16.9242 67.9224 16.2948 67.2938C15.6514 66.6582 14.5114 67.0773 14.3436 67.9224C14.1547 68.8513 14.5883 69.8361 14.959 70.6812C15.3366 71.5612 15.7702 72.4273 16.3087 73.2235C17.3718 74.8019 18.7005 76.2058 20.2251 77.3512C21.0224 77.9449 22.0294 77.8192 22.547 76.9321C24.2394 74.0337 26.0717 71.226 28.0928 68.544C29.1069 67.196 30.1629 65.862 31.2329 64.556C32.3029 63.2499 33.5198 62.0486 34.1982 60.4841C34.5828 59.5901 33.6806 58.8568 32.8484 59.2688L32.8344 59.2828Z" fill="#4CB210"/>
<path d="M28.5544 97.1867C27.1347 97.7803 26.1486 99.1981 25.2464 100.378C24.2883 101.636 23.4072 102.949 22.5819 104.29C21.4769 106.085 20.4979 107.949 19.6307 109.863C19.1551 108.99 18.6935 108.11 18.2459 107.23C17.3648 105.491 16.6514 103.654 15.7073 101.95C15.0079 100.686 13.2106 101.712 13.5323 102.977C14.0219 104.904 14.917 106.762 15.7563 108.557C16.6165 110.408 17.5606 112.21 18.5816 113.984C19.1061 114.899 20.7356 114.885 21.1413 113.858C22.2462 111.092 23.561 108.41 25.1066 105.868C25.8339 104.667 26.6172 103.507 27.4214 102.362C28.2886 101.14 29.5405 99.8826 29.9041 98.3949C30.086 97.6686 29.2747 96.8863 28.5474 97.1936L28.5544 97.1867Z" fill="#4CB210"/>
<path d="M187.258 194.471C184.202 192.634 180.055 192.257 176.922 194.115C175.684 194.848 176.635 196.853 177.999 196.378C180.384 195.554 182.894 195.561 185.181 196.692C187.538 197.858 189.07 200.03 189.811 202.503C191.406 207.846 188.426 213.224 183.971 216.171C182.629 217.058 181.181 217.743 179.67 218.287C178.88 218.567 178.069 218.804 177.251 219.007C176.391 219.216 175.453 219.279 174.74 219.852C174.118 220.355 173.922 221.521 174.845 221.891C176.474 222.548 178.545 221.759 180.132 221.235C181.79 220.69 183.391 219.936 184.867 219.007C187.685 217.226 190.084 214.684 191.517 211.68C194.343 205.758 193.196 198.047 187.251 194.471H187.258Z" fill="#292B2D"/>
<path d="M154.878 165.444C154.675 164.906 154.207 164.606 153.633 164.599C152.983 164.592 152.333 164.732 151.717 164.962C151.717 164.278 151.654 163.593 151.514 162.902C151.416 162.427 150.864 162.099 150.423 162.064C149.906 162.029 149.5 162.294 149.228 162.72C148.262 164.257 147.878 166.143 148.123 167.938C148.164 168.273 148.353 168.587 148.626 168.769C148.731 169.048 148.962 169.335 149.235 169.46C149.815 169.726 150.661 169.558 150.927 168.915C150.948 168.867 150.976 168.825 150.997 168.776C151.542 168.538 152.067 168.168 152.563 167.882C153.165 167.533 153.766 167.197 154.368 166.855C154.822 166.597 155.06 165.933 154.871 165.444H154.878Z" fill="#292B2D"/>
</g>
<defs>
<clipPath id="clip0_507_1707">
<rect width="193" height="247" fill="white"/>
</clipPath>
</defs>
</svg>
